<svg width="191" height="238" viewBox="0 0 191 238" fill="none" xmlns="http://www.w3.org/2000/svg">
<path d="M28 41.0677H70.9134V32.4738H60.8203L59.6204 33.5304H41.9751L53.621 16.9061V36.982L52.774 37.7569V50.1547H63.1495V0.845302H56.3031L28 41.0677Z" fill="#F8BAB2"/>
<path d="M86.2373 25.5C86.2373 23.011 86.4726 20.7569 86.9431 18.7376C87.4137 16.6713 88.0959 14.9102 88.99 13.4544C89.884 11.9517 90.9427 10.8011 92.1661 10.0028C93.3895 9.20442 94.7541 8.80525 96.2599 8.80525C97.8126 8.80525 99.2007 9.20442 100.424 10.0028C101.648 10.8011 102.706 11.9517 103.6 13.4544C104.494 14.9102 105.177 16.6713 105.647 18.7376C106.118 20.7569 106.353 23.011 106.353 25.5C106.353 27.9889 106.118 30.2666 105.647 32.3329C105.177 34.3522 104.494 36.1133 103.6 37.616C102.706 39.0718 101.648 40.1989 100.424 40.9972C99.2007 41.7956 97.8126 42.1948 96.2599 42.1948C94.7541 42.1948 93.3895 41.7956 92.1661 40.9972C90.9427 40.1989 89.884 39.0718 88.99 37.616C88.0959 36.1133 87.4137 34.3522 86.9431 32.3329C86.4726 30.2666 86.2373 27.9889 86.2373 25.5ZM76.4265 25.5C76.4265 30.7127 77.25 35.221 78.8968 39.0249C80.5908 42.8287 82.92 45.7873 85.8844 47.9005C88.8959 49.9668 92.3544 51 96.2599 51C100.307 51 103.812 49.9668 106.776 47.9005C109.741 45.7873 112.047 42.8287 113.693 39.0249C115.34 35.221 116.164 30.7127 116.164 25.5C116.164 20.2873 115.34 15.779 113.693 11.9751C112.047 8.17127 109.741 5.23619 106.776 3.16989C103.812 1.05663 100.307 0 96.2599 0C92.3544 0 88.8959 1.05663 85.8844 3.16989C82.92 5.23619 80.5908 8.17127 78.8968 11.9751C77.25 15.779 76.4265 20.2873 76.4265 25.5Z" fill="#F8BAB2"/>
<path d="M120.087 41.0677H163V32.4738H152.907L151.707 33.5304H134.062L145.708 16.9061V36.982L144.861 37.7569V50.1547H155.236V0.845302H148.39L120.087 41.0677Z" fill="#F8BAB2"/>
<g clip-path="url(#clip0_696_552)">
<path fill-rule="evenodd" clip-rule="evenodd" d="M187.964 174.176H3.35649V424.802H187.964V174.176ZM0 170.789V428.189H191.32V170.789H0Z" fill="#C5C5C5"/>
<path fill-rule="evenodd" clip-rule="evenodd" d="M162.788 213.121H28.5284V258.844H162.788V213.121ZM25.1719 209.734V262.23H166.145V209.734H25.1719Z" fill="#C5C5C5"/>
<path fill-rule="evenodd" clip-rule="evenodd" d="M187.964 174.176H3.35649V182.643H187.964V174.176ZM0 170.789V186.03H191.32V170.789H0Z" fill="#C5C5C5"/>
<path fill-rule="evenodd" clip-rule="evenodd" d="M11.749 424.8L11.749 186.027L3.35776 186.027L3.35775 424.8L11.749 424.8ZM15.1055 182.641L0.00126362 182.641L0.00125247 428.187L15.1055 428.187L15.1055 182.641Z" fill="#C5C5C5"/>
<path fill-rule="evenodd" clip-rule="evenodd" d="M187.964 424.8L187.964 186.027L179.573 186.027L179.573 424.8L187.964 424.8ZM191.32 182.641L176.216 182.641L176.216 428.187L191.32 428.187L191.32 182.641Z" fill="#C5C5C5"/>
<path fill-rule="evenodd" clip-rule="evenodd" d="M127.747 142H153.415L166.784 155.489L172.631 174.175H14.7617L35.1744 150.635L61.5159 144.433L70.0663 149.363L78.4314 144.54H115.268L117.746 150.97L127.747 142ZM119.51 155.547L121.92 161.799L114.382 170.788H140.972V165.6L130.244 155.547H119.51ZM144.329 170.788H168.052L163.83 157.299L152.025 145.387H129.023L121.471 152.161H131.562L144.329 164.123V170.788ZM109.985 170.788L118.068 161.149L112.972 147.927H79.3227L73.4489 151.314L80.364 155.301L83.5953 170.788H109.985ZM80.1652 170.788L77.3901 157.487L60.995 148.034L36.9891 153.686L22.1587 170.788H80.1652Z" fill="#C5C5C5"/>
<path fill-rule="evenodd" clip-rule="evenodd" d="M80.0966 258.847L80.0966 213.125L83.4531 213.125L83.4531 258.847L80.0966 258.847Z" fill="#C5C5C5"/>
<path fill-rule="evenodd" clip-rule="evenodd" d="M50.0419 258.847L50.0419 213.125L53.3984 213.125L53.3984 258.847L50.0419 258.847Z" fill="#C5C5C5"/>
<path fill-rule="evenodd" clip-rule="evenodd" d="M110.151 258.847L110.151 213.125L113.508 213.125L113.508 258.847L110.151 258.847Z" fill="#C5C5C5"/>
<path fill-rule="evenodd" clip-rule="evenodd" d="M140.206 258.847L140.206 213.125L143.562 213.125L143.562 258.847L140.206 258.847Z" fill="#C5C5C5"/>
</g>
<defs>
<clipPath id="clip0_696_552">
<rect width="191" height="96" fill="white" transform="translate(0 142)"/>
</clipPath>
</defs>
</svg>
