<svg width="108" height="63" viewBox="0 0 108 63" fill="none" xmlns="http://www.w3.org/2000/svg">
<path d="M49.3736 24.5C45.4029 35.5 50.8627 43.3333 55.3298 48C54.1716 42.5 53.8407 36 58.3079 26.5C63.4162 15.6363 55.3298 0 55.3298 0C55.3298 12.855 54.1712 11.2093 49.3736 24.5Z" fill="#D8D8D8"/>
<path d="M1.37364 39.5C-2.59708 50.5 2.86268 58.3333 7.32978 63C6.17165 57.5 5.84074 51 10.3079 41.5C15.4162 30.6363 7.32979 15 7.32979 15C7.32979 27.855 6.17124 26.2093 1.37364 39.5Z" fill="#D8D8D8"/>
<path d="M97.3736 39.5C93.4029 50.5 98.8627 58.3333 103.33 63C102.172 57.5 101.841 51 106.308 41.5C111.416 30.6363 103.33 15 103.33 15C103.33 27.855 102.171 26.2093 97.3736 39.5Z" fill="#D8D8D8"/>
</svg>
