<svg width="5" height="8" viewBox="0 0 5 8" fill="none" xmlns="http://www.w3.org/2000/svg">
<path d="M4.01432 3.7446L4.01424 3.74467C4.07752 3.81858 4.10245 3.91218 4.09977 4.00011C4.10271 4.088 4.07772 4.18178 4.01431 4.25551L4.01145 4.25883L4.01138 4.25876L1.44311 6.99349C1.31871 7.1361 1.11135 7.1355 0.987647 6.9917C0.871068 6.85619 0.871072 6.6417 0.987645 6.50618L0.990486 6.50288L0.990556 6.50294L3.34076 4.00001L0.990345 1.49707L0.987359 1.49389L0.987431 1.49382C0.870859 1.35831 0.870854 1.14382 0.987431 1.00831L4.01432 3.7446ZM4.01432 3.7446L4.01117 3.74125M4.01432 3.7446L4.01117 3.74125M4.01117 3.74125L1.4429 1.00652M4.01117 3.74125L1.4429 1.00652M1.4429 1.00652C1.3185 0.863901 1.11114 0.864497 0.987433 1.0083L1.4429 1.00652Z" fill="#EE523F" stroke="#EE523F" stroke-width="0.2"/>
</svg>
