<svg width="15" height="16" viewBox="0 0 15 16" fill="none" xmlns="http://www.w3.org/2000/svg">
<mask id="path-1-outside-1_826_11101" maskUnits="userSpaceOnUse" x="8" y="3.5" width="7" height="11" fill="black">
<rect fill="white" x="8" y="3.5" width="7" height="11"/>
<path d="M14.1498 8.71455L9.6461 4.61028C9.49831 4.46324 9.25863 4.46324 9.11084 4.61028C8.96305 4.75731 8.96305 4.99588 9.11084 5.14292L13.343 9L9.11122 12.8571C8.96343 13.0041 8.96343 13.2427 9.11122 13.3897C9.25901 13.5367 9.49869 13.5367 9.64647 13.3897L14.1502 9.28544C14.229 9.20706 14.2627 9.10315 14.2575 9.00038C14.2624 8.89722 14.2286 8.79332 14.1498 8.71455Z"/>
</mask>
<path d="M14.1498 8.71455L9.6461 4.61028C9.49831 4.46324 9.25863 4.46324 9.11084 4.61028C8.96305 4.75731 8.96305 4.99588 9.11084 5.14292L13.343 9L9.11122 12.8571C8.96343 13.0041 8.96343 13.2427 9.11122 13.3897C9.25901 13.5367 9.49869 13.5367 9.64647 13.3897L14.1502 9.28544C14.229 9.20706 14.2627 9.10315 14.2575 9.00038C14.2624 8.89722 14.2286 8.79332 14.1498 8.71455Z" fill="#FEFEFE"/>
<path d="M14.1498 8.71455L14.2914 8.57296L14.2845 8.56672L14.1498 8.71455ZM9.6461 4.61028L9.50491 4.7522L9.51139 4.7581L9.6461 4.61028ZM9.11084 4.61028L9.2519 4.75207L9.2519 4.75206L9.11084 4.61028ZM9.11084 5.14292L8.96965 5.28483L8.97612 5.29074L9.11084 5.14292ZM13.343 9L13.4777 9.14782L13.6399 9L13.4777 8.85218L13.343 9ZM9.11122 12.8571L8.97636 12.7091L8.97016 12.7153L9.11122 12.8571ZM9.64647 13.3897L9.51162 13.2417L9.50541 13.2479L9.64647 13.3897ZM14.1502 9.28544L14.2851 9.43341L14.2913 9.42721L14.1502 9.28544ZM14.2575 9.00038L14.0577 8.99089L14.0572 9.00075L14.0577 9.0106L14.2575 9.00038ZM14.2845 8.56672L9.78082 4.46245L9.51139 4.7581L14.0151 8.86237L14.2845 8.56672ZM9.78716 4.4685C9.56135 4.24383 9.19559 4.24383 8.96978 4.4685L9.2519 4.75206C9.32167 4.68265 9.43527 4.68265 9.50504 4.75206L9.78716 4.4685ZM8.96979 4.46849C8.7434 4.69371 8.74341 5.05947 8.96978 5.2847L9.2519 5.00114C9.1827 4.93228 9.1827 4.8209 9.2519 4.75207L8.96979 4.46849ZM8.97612 5.29074L13.2083 9.14782L13.4777 8.85218L9.24556 4.9951L8.97612 5.29074ZM13.2083 8.85219L8.97649 12.7093L9.24594 13.0049L13.4777 9.14782L13.2083 8.85219ZM8.97016 12.7153C8.74378 12.9405 8.74378 13.3063 8.97016 13.5315L9.25227 13.2479C9.18308 13.1791 9.18307 13.0677 9.25228 12.9989L8.97016 12.7153ZM8.97016 13.5315C9.19597 13.7561 9.56173 13.7562 9.78753 13.5315L9.50541 13.2479C9.43565 13.3173 9.32204 13.3173 9.25227 13.2479L8.97016 13.5315ZM9.78118 13.5375L14.2849 9.43327L14.0155 9.13762L9.51175 13.2419L9.78118 13.5375ZM14.2913 9.42721C14.4144 9.30467 14.4651 9.1435 14.4572 8.99015L14.0577 9.0106C14.0604 9.06279 14.0435 9.10946 14.0091 9.14368L14.2913 9.42721ZM14.4573 9.00986C14.4645 8.85667 14.4141 8.69594 14.2912 8.57311L14.0084 8.85599C14.0432 8.8907 14.0602 8.93777 14.0577 8.99089L14.4573 9.00986Z" fill="#FEFEFE" mask="url(#path-1-outside-1_826_11101)"/>
<path d="M13 9L1 9" stroke="#FEFEFE" stroke-width="1.3" stroke-linecap="round"/>
</svg>
