<svg width="44" height="44" viewBox="0 0 44 44" fill="none" xmlns="http://www.w3.org/2000/svg">
<path opacity="0.6" d="M27.6288 19.7131C27.5666 19.6505 27.4927 19.6009 27.4112 19.567C27.3297 19.5331 27.2424 19.5156 27.1541 19.5156C27.0659 19.5156 26.9785 19.5331 26.8971 19.567C26.8156 19.6009 26.7416 19.6505 26.6794 19.7131L21.9998 24.8475L17.3263 19.72C17.2644 19.6566 17.1906 19.6061 17.1091 19.5714C17.0276 19.5366 16.9401 19.5184 16.8515 19.5176C16.7629 19.5168 16.6751 19.5336 16.593 19.5669C16.5109 19.6002 16.4362 19.6494 16.3732 19.7117C16.3103 19.774 16.2602 19.8482 16.226 19.9299C16.1918 20.0116 16.174 20.0992 16.1738 20.1878C16.1736 20.2764 16.1909 20.3641 16.2247 20.446C16.2586 20.5279 16.3082 20.6022 16.3709 20.6648L21.4952 26.2881C21.5575 26.3518 21.6319 26.4023 21.714 26.4367C21.7962 26.4711 21.8845 26.4886 21.9735 26.4882L22.0238 26.4881C22.1117 26.4888 22.1989 26.472 22.2803 26.4387C22.3617 26.4055 22.4357 26.3564 22.4981 26.2943L27.6348 20.658C27.7579 20.5311 27.8263 20.361 27.8251 20.1843C27.824 20.0076 27.7535 19.8384 27.6288 19.7131V19.7131Z" fill="#EE523F"/>
</svg>
