<svg width="16" height="8" viewBox="0 0 16 8" fill="none" xmlns="http://www.w3.org/2000/svg">
<path d="M4.54923 6.60318L2.31679 4.38458H13.6833L11.4508 6.60378L11.4506 6.60399C11.2998 6.75476 11.2998 6.99223 11.4506 7.14299C11.5286 7.221 11.629 7.2525 11.7241 7.2525C11.8246 7.2525 11.9232 7.21175 11.9976 7.13727L11.9977 7.13726L14.8621 4.27167C14.94 4.19382 14.9747 4.09177 14.9726 3.99229C14.9738 3.98624 14.975 3.97827 14.975 3.96891L14.975 3.96843C14.9743 3.818 14.8871 3.68672 14.7602 3.62387L11.997 0.860731L11.9263 0.931442C11.8146 0.819728 11.633 0.819728 11.5213 0.931442C11.4096 1.04316 11.4096 1.23909 11.5213 1.3508L11.4503 1.42129L11.4504 1.42131C11.4504 1.42138 11.4505 1.42144 11.4506 1.42151L13.6274 3.6117H2.37197L4.54885 1.42151C4.54889 1.42147 4.54893 1.42143 4.54897 1.42139C4.69972 1.27052 4.69942 1.01894 4.54903 0.867784C4.3997 0.717694 4.15522 0.711386 4.00241 0.864146C4.00241 0.864151 4.0024 0.864155 4.0024 0.86416L1.23913 3.62569C1.11295 3.68861 1.025 3.818 1.025 3.97004C1.025 3.97935 1.02614 3.98742 1.02751 3.99386C1.02612 4.09203 1.06011 4.19305 1.13761 4.27128L1.13794 4.27162L4.00241 7.13609L4.00279 7.13647C4.07823 7.21111 4.17705 7.24903 4.27593 7.24903C4.37485 7.24903 4.47388 7.21109 4.54945 7.13553C4.70021 6.98476 4.70021 6.75417 4.54945 6.6034L4.54923 6.60318Z" fill="white" stroke="white" stroke-width="0.2"/>
</svg>
