<svg width="37" height="37" viewBox="0 0 37 37" fill="none" xmlns="http://www.w3.org/2000/svg">
<g opacity="0.4">
<path d="M25 18C26.6569 18 28 16.6569 28 15C28 13.3431 26.6569 12 25 12C23.3431 12 22 13.3431 22 15C22 16.6569 23.3431 18 25 18Z" fill="#3B3B3B"/>
<rect x="6" y="14.1001" width="25" height="1.8" rx="0.9" fill="#3B3B3B"/>
<path d="M15 26C16.6569 26 18 24.6569 18 23C18 21.3431 16.6569 20 15 20C13.3431 20 12 21.3431 12 23C12 24.6569 13.3431 26 15 26Z" fill="#3B3B3B"/>
<rect x="6" y="22.1001" width="25" height="1.8" rx="0.9" fill="#3B3B3B"/>
</g>
</svg>
