<svg width="36" height="36" viewBox="0 0 36 36" fill="none" xmlns="http://www.w3.org/2000/svg">
<path d="M33.4313 8.05339C33.0167 7.56327 32.4361 7.2639 31.7963 7.21046L9.26153 5.32884C8.62166 5.27541 7.99954 5.47434 7.50935 5.8889C7.02117 6.30184 6.72223 6.87952 6.66711 7.51621L6.21373 11.7697H4.40343C3.07818 11.7697 2 12.8479 2 14.1731V28.2794C2 29.6047 3.07818 30.6829 4.40343 30.6829H27.0167C28.342 30.6829 29.4201 29.6047 29.4201 28.2794V25.9911L30.2226 26.0581C30.2903 26.0638 30.3576 26.0666 30.4243 26.0666C31.6598 26.0666 32.7131 25.116 32.8177 23.863L33.9915 9.80564C34.0449 9.16583 33.8459 8.54358 33.4313 8.05339V8.05339ZM4.40343 13.0197H27.0167C27.6526 13.0197 28.1701 13.5371 28.1701 14.1731V15.4585H3.25V14.1731C3.25 13.5371 3.76743 13.0197 4.40343 13.0197V13.0197ZM3.25 16.7085H28.1701V19.3015H3.25V16.7085ZM27.0167 29.4329H4.40343C3.76743 29.4329 3.25 28.9154 3.25 28.2794V20.5515H28.1701V28.2794C28.1701 28.9154 27.6526 29.4329 27.0167 29.4329ZM32.7458 9.70158L31.572 23.759C31.5191 24.3928 30.9603 24.8656 30.3266 24.8125L29.4201 24.7368V14.1731C29.4201 12.8479 28.342 11.7697 27.0167 11.7697H7.47085L7.91079 7.64221C7.91129 7.63746 7.91173 7.63277 7.9121 7.62796C7.96504 6.99415 8.52354 6.5214 9.15753 6.57453L31.6923 8.45614C31.9994 8.48177 32.2781 8.62546 32.477 8.8607C32.6759 9.09595 32.7714 9.39451 32.7458 9.70158V9.70158Z" fill="#F5978C"/>
<path d="M25.5547 22.4102H19.5396C19.1944 22.4102 18.9146 22.69 18.9146 23.0352V26.9595C18.9146 27.3047 19.1944 27.5845 19.5396 27.5845H25.5547C25.8999 27.5845 26.1797 27.3047 26.1797 26.9595V23.0352C26.1797 22.69 25.8999 22.4102 25.5547 22.4102ZM24.9297 26.3345H20.1646V23.6602H24.9297V26.3345Z" fill="#F5978C"/>
</svg>
