<svg width="36" height="36" viewBox="0 0 36 36" fill="none" xmlns="http://www.w3.org/2000/svg">
<path d="M33.9551 19.809C33.955 19.8088 33.955 19.8087 33.9549 19.8086L27.9132 4.6383C27.785 4.31597 27.4196 4.15861 27.0973 4.28684C27.0971 4.28692 27.0968 4.287 27.0966 4.28715L2.58608 14.047C2.48612 14.0902 2.39944 14.1591 2.33481 14.2468C2.13097 14.3527 2.0022 14.5623 2 14.792V31.1244C2 31.4713 2.28126 31.7526 2.62817 31.7526H29.0112C29.3581 31.7526 29.6394 31.4713 29.6394 31.1244V22.2044L33.6044 20.6252C33.9267 20.4966 34.0836 20.1312 33.9551 19.809ZM28.3831 30.4962H3.25634V15.4202H28.3831V30.4962ZM12.481 14.167L22.999 9.97585C23.9378 10.9625 25.2385 11.5233 26.6003 11.5287L27.6494 14.167H12.481ZM29.6394 20.8551V14.792C29.6394 14.4451 29.3581 14.1638 29.0112 14.1638H29.0012L27.6701 10.8207C27.6553 10.7929 27.6381 10.7663 27.6186 10.7416C27.5512 10.439 27.2711 10.2326 26.9622 10.2579C25.695 10.3734 24.4554 9.83961 23.6687 8.83949C23.4729 8.59788 23.1288 8.53781 22.8627 8.69878C22.8329 8.70231 22.8033 8.70781 22.7742 8.71511L9.93314 13.8284C9.77775 13.8893 9.65345 14.0102 9.58827 14.1638H5.68861L26.9785 5.68671L32.556 19.6917L29.6394 20.8551Z" fill="#F5978C"/>
<path d="M4.96121 26.2547C6.1808 26.6152 7.13514 27.5684 7.49712 28.7875C7.57651 29.0536 7.82126 29.2359 8.09891 29.236C8.13149 29.234 8.16385 29.2291 8.19565 29.2216C8.22384 29.2296 8.25265 29.2355 8.28171 29.2392H23.3577C23.3837 29.2358 23.4093 29.2305 23.4344 29.2234C23.7482 29.2998 24.0645 29.1073 24.1409 28.7935C24.1412 28.7923 24.1415 28.7912 24.1417 28.79C24.5027 27.5696 25.4572 26.6151 26.6776 26.2541C26.9736 26.1636 27.1575 25.8687 27.1085 25.5631C27.1169 25.5326 27.123 25.5015 27.1268 25.4701V20.4448C27.1231 20.4133 27.1168 20.3822 27.1079 20.3518C27.1571 20.0461 26.9732 19.7511 26.677 19.6608C25.4566 19.2999 24.5023 18.345 24.1423 17.1243C24.0514 16.8263 23.7536 16.6419 23.4463 16.6934C23.4173 16.6853 23.3877 16.6794 23.3577 16.6758H8.28171C8.25006 16.6796 8.21873 16.6858 8.18811 16.6946C7.88258 16.6459 7.58782 16.8298 7.49712 17.1255C7.13585 18.3457 6.18142 19.2999 4.96121 19.6608C4.66526 19.7513 4.48137 20.0462 4.53028 20.3518C4.52212 20.3824 4.51623 20.4134 4.5127 20.4448V25.4701C4.51631 25.4997 4.5222 25.5289 4.53028 25.5575C4.47877 25.865 4.66306 26.1632 4.96121 26.2547ZM5.76903 20.6998C7.03039 20.1932 8.03012 19.1935 8.53674 17.9321H23.1021C23.6089 19.1935 24.6089 20.1932 25.8704 20.6998V25.2151C24.6095 25.7223 23.6099 26.7218 23.1027 27.9828H8.53674C8.02957 26.7218 7.03 25.7223 5.76903 25.2151V20.6998Z" fill="#F5978C"/>
<path d="M15.8198 26.7255C17.9014 26.7255 19.5888 25.0381 19.5888 22.9565C19.5888 20.8749 17.9014 19.1875 15.8198 19.1875C13.7382 19.1875 12.0508 20.8749 12.0508 22.9565C12.0528 25.0372 13.7391 26.7235 15.8198 26.7255ZM15.8198 20.4438C17.2075 20.4438 18.3325 21.5688 18.3325 22.9565C18.3325 24.3442 17.2075 25.4692 15.8198 25.4692C14.4321 25.4692 13.3071 24.3442 13.3071 22.9565C13.3071 21.5688 14.4321 20.4438 15.8198 20.4438Z" fill="#F5978C"/>
<path d="M8.91003 23.9001C9.43039 23.9001 9.85228 23.4782 9.85228 22.9579C9.85228 22.4375 9.43039 22.0156 8.91003 22.0156C8.38967 22.0156 7.96777 22.4375 7.96777 22.9579C7.96777 23.4783 8.38967 23.9001 8.91003 23.9001ZM8.91003 22.6438C9.08348 22.6438 9.22411 22.7844 9.22411 22.9579C9.22411 23.1313 9.08348 23.272 8.91003 23.272C8.73657 23.272 8.59594 23.1313 8.59594 22.9579C8.59594 22.7844 8.73657 22.6438 8.91003 22.6438Z" fill="#F5978C"/>
<path d="M22.7294 23.9001C23.2497 23.9001 23.6716 23.4782 23.6716 22.9579C23.6716 22.4375 23.2497 22.0156 22.7294 22.0156C22.209 22.0156 21.7871 22.4375 21.7871 22.9579C21.7871 23.4783 22.209 23.9001 22.7294 23.9001ZM22.7294 22.6438C22.9028 22.6438 23.0434 22.7844 23.0434 22.9579C23.0434 23.1313 22.9028 23.272 22.7294 23.272C22.5559 23.272 22.4153 23.1313 22.4153 22.9579C22.4153 22.7844 22.5559 22.6438 22.7294 22.6438Z" fill="#F5978C"/>
</svg>
