<svg width="40" height="40" viewBox="0 0 40 40" fill="none" xmlns="http://www.w3.org/2000/svg">
<circle cx="20" cy="20" r="17" fill="#999999"/>
<path fill-rule="evenodd" clip-rule="evenodd" d="M13.9771 12.9169C13.6842 12.624 13.2093 12.624 12.9164 12.9169C12.6236 13.2098 12.6236 13.6847 12.9164 13.9776L18.9391 20.0002L12.9171 26.0223C12.6242 26.3152 12.6242 26.79 12.9171 27.0829C13.21 27.3758 13.6849 27.3758 13.9777 27.0829L19.9998 21.0609L26.0218 27.0829C26.3147 27.3758 26.7895 27.3758 27.0824 27.0829C27.3753 26.79 27.3753 26.3152 27.0824 26.0223L21.0604 20.0002L27.0831 13.9776C27.376 13.6847 27.376 13.2098 27.0831 12.9169C26.7902 12.624 26.3153 12.624 26.0224 12.9169L19.9998 18.9396L13.9771 12.9169Z" fill="#FCFCFC"/>
</svg>
