<svg width="40" height="40" viewBox="0 0 40 40" fill="none" xmlns="http://www.w3.org/2000/svg">
<g clip-path="url(#clip0_874_376)">
<path fill-rule="evenodd" clip-rule="evenodd" d="M38.9453 27.0143H38.882V18.2758C38.882 18.1816 38.8637 18.0881 38.8246 17.9906L34.9077 8.57164C34.7195 8.11813 34.2808 7.825 33.7898 7.825H26.5938C25.926 7.825 25.3828 8.3682 25.3828 9.03594V12.8195V15.5539V17.4195H22.9047V8.07813C22.9047 7.41039 22.3615 6.86719 21.6938 6.86719H6.26797C5.60023 6.86719 5.05703 7.41039 5.05703 8.07813V17.4195H2.32891C1.66117 17.4195 1.11797 17.9627 1.11797 18.6305V27.0143H1.05469C0.473125 27.0143 0 27.4874 0 28.069V29.2127C0 29.7943 0.473125 30.2674 1.05469 30.2674H3.45023C4.10344 31.9423 5.73297 33.1328 7.63625 33.1328C9.53953 33.1328 11.1691 31.9423 11.8223 30.2674H13.114L15.8484 30.2672H28.0014C28.6546 31.9423 30.2841 33.1328 32.1875 33.1328C34.0909 33.1328 35.7203 31.9423 36.3735 30.2674H38.9453C39.5269 30.2674 40 29.7943 40 29.2127V28.069C40 27.4875 39.5269 27.0143 38.9453 27.0143ZM26.5547 9.03594V12.8195V15.5539V27.0144H28.0012C28.6544 25.3391 30.284 24.1484 32.1875 24.1484C34.091 24.1484 35.7206 25.3391 36.3738 27.0143H37.7102V24.5953H35.9656C35.4702 24.5953 35.0672 24.1923 35.0672 23.6969V22.1109C35.0672 21.6155 35.4702 21.2125 35.9656 21.2125H37.7102V18.7938H29.0156C28.5202 18.7938 28.1172 18.3907 28.1172 17.8953V11.7703C28.1172 11.1026 28.6604 10.5594 29.3281 10.5594H34.4651L33.8254 9.02109C33.8191 9.00594 33.8056 8.99688 33.7898 8.99688H26.5938C26.5722 8.99688 26.5547 9.01438 26.5547 9.03594ZM12.1055 29.0955H13.114L15.8484 29.0953H27.7183C27.7031 28.9458 27.6953 28.7941 27.6953 28.6406C27.6953 28.4873 27.7031 28.3357 27.7182 28.1863H12.1055C12.1206 28.3357 12.1284 28.4873 12.1284 28.6406C12.1284 28.7941 12.1206 28.9459 12.1055 29.0955ZM29.3281 11.7313C29.3066 11.7313 29.2891 11.7488 29.2891 11.7703V17.6219H37.4021L34.9524 11.7313H29.3281ZM36.2391 22.3844V23.4234H37.7102V22.3844H36.2391ZM21.7328 17.4195V8.07813C21.7328 8.05695 21.7149 8.03906 21.6938 8.03906H16.6813V17.4195H21.7328ZM12.4523 8.03906V17.4195H15.5094V8.03906H12.4523ZM6.26797 8.03906C6.24719 8.03906 6.22891 8.05727 6.22891 8.07813V17.4195H11.2805V8.03906H6.26797ZM3.76094 22.3844H2.28984V23.4234H3.76094V22.3844ZM1.17188 28.1862V29.0955L3.16711 29.0955C3.15195 28.9459 3.14414 28.7941 3.14414 28.6405C3.14414 28.4872 3.15195 28.3356 3.16703 28.1862H1.17188ZM4.31602 28.6406C4.31602 30.4715 5.80547 31.9609 7.63633 31.9609C9.46711 31.9609 10.9566 30.4715 10.9566 28.6406C10.9566 26.8098 9.46719 25.3203 7.63633 25.3203C5.80547 25.3203 4.31602 26.8098 4.31602 28.6406ZM3.45008 27.0144C4.1032 25.3391 5.73281 24.1484 7.63633 24.1484C9.53984 24.1484 11.1695 25.3391 11.8226 27.0143H25.3828V18.5914H2.32891C2.30773 18.5914 2.28984 18.6093 2.28984 18.6305V21.2125H4.03438C4.52977 21.2125 4.93281 21.6155 4.93281 22.1109V23.6969C4.93281 24.1923 4.52977 24.5953 4.03438 24.5953H2.28984V27.0144H3.45008ZM28.8672 28.6406C28.8672 30.4715 30.3566 31.9609 32.1875 31.9609C34.0184 31.9609 35.5078 30.4715 35.5078 28.6406C35.5078 26.8098 34.0184 25.3203 32.1875 25.3203C30.3566 25.3203 28.8672 26.8098 28.8672 28.6406ZM36.6567 29.0955H38.8281V28.1863H36.6568C36.6719 28.3357 36.6797 28.4873 36.6797 28.6406C36.6797 28.7941 36.6719 28.9459 36.6567 29.0955Z" fill="#F5978C"/>
<path d="M32.1875 26.6875C31.1105 26.6875 30.2344 27.5637 30.2344 28.6406C30.2344 29.7176 31.1105 30.5938 32.1875 30.5938C33.2645 30.5938 34.1406 29.7176 34.1406 28.6406C34.1406 27.5637 33.2645 26.6875 32.1875 26.6875ZM32.1875 29.4219C31.7567 29.4219 31.4062 29.0714 31.4062 28.6406C31.4062 28.2098 31.7567 27.8594 32.1875 27.8594C32.6183 27.8594 32.9688 28.2098 32.9688 28.6406C32.9688 29.0714 32.6183 29.4219 32.1875 29.4219Z" fill="#F5978C"/>
<path d="M7.63632 26.6875C6.55937 26.6875 5.6832 27.5637 5.6832 28.6406C5.6832 29.7176 6.55937 30.5938 7.63632 30.5938C8.71328 30.5938 9.58945 29.7176 9.58945 28.6406C9.58945 27.5637 8.71328 26.6875 7.63632 26.6875ZM7.63632 29.4219C7.20554 29.4219 6.85507 29.0714 6.85507 28.6406C6.85507 28.2098 7.20554 27.8594 7.63632 27.8594C8.0671 27.8594 8.41757 28.2098 8.41757 28.6406C8.41757 29.0714 8.0671 29.4219 7.63632 29.4219Z" fill="#F5978C"/>
</g>
<defs>
<clipPath id="clip0_874_376">
<rect width="40" height="40" fill="white"/>
</clipPath>
</defs>
</svg>
