<svg width="20" height="20" viewBox="0 0 20 20" fill="none" xmlns="http://www.w3.org/2000/svg">
<path d="M19.427 10.2177C19.1087 10.2177 18.854 10.4724 18.854 10.7907V16.0029C18.854 17.4206 17.6995 18.5708 16.2861 18.5708H3.71392C2.29626 18.5708 1.14601 17.4163 1.14601 16.0029V10.7058C1.14601 10.3875 0.891341 10.1328 0.573005 10.1328C0.254669 10.1328 0 10.3875 0 10.7058V16.0029C0 18.053 1.66808 19.7169 3.71392 19.7169H16.2861C18.3362 19.7169 20 18.0488 20 16.0029V10.7907C20 10.4766 19.7453 10.2177 19.427 10.2177Z" fill="#EE523F"/>
<path d="M9.59598 15.1653C9.70634 15.2756 9.85489 15.335 9.9992 15.335C10.1435 15.335 10.2921 15.2799 10.4024 15.1653L14.0442 11.5235C14.2692 11.2985 14.2692 10.9378 14.0442 10.7128C13.8192 10.4878 13.4585 10.4878 13.2335 10.7128L10.5722 13.3783V1.75269C10.5722 1.43436 10.3175 1.17969 9.9992 1.17969C9.68087 1.17969 9.4262 1.43436 9.4262 1.75269V13.3783L6.76066 10.7128C6.53571 10.4878 6.17493 10.4878 5.94997 10.7128C5.72501 10.9378 5.72501 11.2985 5.94997 11.5235L9.59598 15.1653Z" fill="#EE523F"/>
</svg>
