<svg width="446" height="420" viewBox="0 0 446 420" fill="none" xmlns="http://www.w3.org/2000/svg">
<path d="M214.221 187.26H339.936V356.403H268.18V358.689H342.221V184.975H211.936L211.936 233.728L214.221 234.5L214.221 187.26Z" fill="#C5C5C5"/>
<path d="M306.792 342.69V279.833H293.5L292 277.547H309.078V344.975H268.53L267.424 342.69H306.792Z" fill="#C5C5C5"/>
<path d="M292.524 342.606C294.971 339.171 296.506 334.058 296.506 329.438C296.506 325.83 294.917 320.034 290.783 315.347C290.632 315.751 290.468 316.191 290.283 316.668C289.826 317.844 289.221 319.297 288.481 320.308C288.137 320.779 287.504 321.524 286.52 321.845C285.968 322.024 285.348 322.054 284.728 321.866C284.134 321.687 283.676 321.351 283.339 321.012L282.824 320.494L282.704 319.774C282.526 318.699 282.396 317.707 282.273 316.762C281.825 313.335 281.458 310.53 279.154 306.672C277.574 304.025 276.353 302.303 274.866 300.875C274.144 300.183 273.334 299.536 272.35 298.881C272.391 300.121 272.314 301.403 272.01 302.73C271.478 305.047 270.3 307.359 268.2 309.917V306C270.115 302.835 270.251 300.259 269.957 297.457C269.878 296.699 269.767 295.924 269.651 295.116C269.631 294.975 269.61 294.833 269.59 294.689C270.506 295.15 271.333 295.593 272.089 296.032C276.403 298.537 278.37 300.9 281.117 305.5C283.682 309.796 284.111 313.116 284.565 316.623L284.565 316.623C284.612 316.983 284.659 317.347 284.708 317.713C284.783 318.266 284.864 318.827 284.959 319.4C285.483 319.927 285.997 319.736 286.49 319.146C286.694 318.901 286.895 318.588 287.091 318.229C287.65 317.203 288.173 315.802 288.641 314.547L288.642 314.546C288.77 314.202 288.894 313.869 289.014 313.558L289.032 313.512C289.119 313.286 289.203 313.073 289.285 312.876C289.404 312.59 289.517 312.338 289.625 312.132C289.904 311.598 290.145 311.373 290.339 311.678C296.486 317.083 298.792 324.735 298.792 329.438C298.792 334.88 296.86 341.011 293.649 344.891H268.672L267.174 342.606H292.524Z" fill="#C5C5C5"/>
<path d="M314.792 356.404V270.69H288L287 268.404H317.078V358.69H267.5L268.338 356.404H314.792Z" fill="#C5C5C5"/>
<path d="M322.792 213.545H231.364V234.5H229.078V211.26H325.078V246.688H275L274 244.403H322.792V213.545Z" fill="#C5C5C5"/>
<path fill-rule="evenodd" clip-rule="evenodd" d="M339.936 187.26H214.221V192.975H339.936V187.26ZM211.936 184.975V195.26H342.221V184.975H211.936Z" fill="#C5C5C5"/>
<path d="M219.936 195.262L214.222 195.262L214.222 234L211.936 234L211.936 192.977L222.222 192.977L222.222 234L219.936 234L219.936 195.262Z" fill="#C5C5C5"/>
<path fill-rule="evenodd" clip-rule="evenodd" d="M339.936 356.405L339.936 195.262L334.222 195.262L334.222 356.405L339.936 356.405ZM342.222 192.977L331.936 192.977L331.936 358.691L342.222 358.691L342.222 192.977Z" fill="#C5C5C5"/>
<path fill-rule="evenodd" clip-rule="evenodd" d="M298.93 165.547H316.41L325.514 174.651L329.496 187.261H221.989L235.89 171.375L253.828 167.189L259.651 170.516L265.347 167.261H290.432L292.12 171.601L298.93 165.547ZM293.321 174.69L294.962 178.909L289.829 184.975H307.936V181.474L300.63 174.69H293.321ZM310.222 184.975H326.377L323.502 175.872L315.463 167.833H299.799L294.657 172.404H301.528L310.222 180.477V184.975ZM286.835 184.975L292.339 178.47L288.869 169.547H265.954L261.954 171.833L266.663 174.524L268.864 184.975H286.835ZM266.528 184.975L264.638 175.999L253.473 169.619L237.126 173.433L227.026 184.975H266.528Z" fill="#C5C5C5"/>
<path fill-rule="evenodd" clip-rule="evenodd" d="M267.467 235.404L267.467 213.547L269.753 213.547L269.753 235.404L267.467 235.404Z" fill="#C5C5C5"/>
<path fill-rule="evenodd" clip-rule="evenodd" d="M247 234.404L247 213.547L249.286 213.547L249.286 234.404L247 234.404Z" fill="#C5C5C5"/>
<path fill-rule="evenodd" clip-rule="evenodd" d="M287.934 244.404L287.934 213.547L290.22 213.547L290.22 244.404L287.934 244.404Z" fill="#C5C5C5"/>
<path fill-rule="evenodd" clip-rule="evenodd" d="M308.403 244.404L308.403 213.547L310.688 213.547L310.688 244.404L308.403 244.404Z" fill="#C5C5C5"/>
<path fill-rule="evenodd" clip-rule="evenodd" d="M255.158 34.295H301.254V141.238H255.158V34.295ZM303.098 32.4512V143.082H253.314V32.4512H303.098Z" fill="#C5C5C5"/>
<path fill-rule="evenodd" clip-rule="evenodd" d="M254.697 45.3575H302.176V43.5137H254.697V45.3575Z" fill="#C5C5C5"/>
<path fill-rule="evenodd" clip-rule="evenodd" d="M254.699 132.018H301.717V130.174H254.699V132.018Z" fill="#C5C5C5"/>
<path fill-rule="evenodd" clip-rule="evenodd" d="M268.987 22.3087H287.426V32.4499H268.987V22.3087ZM289.27 20.4648V34.2937H267.143V20.4648H289.27Z" fill="#C5C5C5"/>
<path d="M287.426 143.082H268.987V167.266H267.143V141.238H289.27V167.266H287.426V143.082Z" fill="#C5C5C5"/>
<path fill-rule="evenodd" clip-rule="evenodd" d="M303.099 57.3419H309.553V66.5612H303.099V57.3419ZM311.396 55.498V68.405H301.255V55.498H311.396Z" fill="#C5C5C5"/>
<path fill-rule="evenodd" clip-rule="evenodd" d="M303.099 118.19H309.553V127.409H303.099V118.19ZM311.396 116.346V129.253H301.255V116.346H311.396Z" fill="#C5C5C5"/>
<path fill-rule="evenodd" clip-rule="evenodd" d="M263.457 92.3753L263.457 51.8105L261.613 51.8105L261.613 92.3753L263.457 92.3753Z" fill="#C5C5C5"/>
<path fill-rule="evenodd" clip-rule="evenodd" d="M270.832 103.438L270.832 62.873L268.988 62.873L268.988 103.438L270.832 103.438Z" fill="#C5C5C5"/>
<g clip-path="url(#clip0_742_1897)">
<path d="M180.932 234.45V389.051C180.931 389.822 180.313 390.457 179.544 390.482L90.9081 386.482C90.1162 386.482 89.4727 385.838 89.4727 385.047V287.599C89.4727 286.806 90.1152 286.164 90.9081 286.164C91.7015 286.164 92.3435 286.805 92.3435 287.599V383.607L178.061 387.609V234.45C178.061 233.659 178.705 233.016 179.497 233.016C180.289 233.016 180.932 233.659 180.932 234.45Z" fill="#F8BAB2"/>
<path fill-rule="evenodd" clip-rule="evenodd" d="M180.695 233.666C180.432 233.261 179.982 233.015 179.493 233.015L90.9067 233.012C90.3921 233.012 89.9095 233.295 89.6545 233.751L89.6537 233.752L60.1241 286.9L60.1232 286.902C59.8766 287.35 59.8832 287.891 60.1421 288.331C60.3978 288.764 60.868 289.034 61.3774 289.034H155.875C156.443 289.034 156.954 288.7 157.183 288.186L180.803 235.036L180.695 233.666ZM66.3963 286.164H64L65.0692 283.909L91.7517 235.881H177.289L154.941 286.164H66.3963Z" fill="#F8BAB2"/>
<path d="M179.42 364.407L90.8855 361.315C90.0945 361.287 89.4735 360.621 89.5011 359.83C89.5287 359.04 90.1943 358.419 90.9857 358.446L179.521 361.538C180.312 361.566 180.933 362.232 180.905 363.022C180.877 363.813 180.21 364.434 179.42 364.407Z" fill="#F8BAB2"/>
<path fill-rule="evenodd" clip-rule="evenodd" d="M270.395 386.886C269.854 387.564 269.02 388 268.084 388C268.12 388 268.157 387.998 268.193 387.997C269.085 387.964 269.875 387.537 270.395 386.886Z" fill="#F8BAB2"/>
<path d="M269.519 385.052C269.519 385.836 268.879 386.481 268.084 386.481L179.497 390.482C178.705 390.482 178.061 389.838 178.061 389.047V234.449C178.061 233.658 178.705 233.014 179.497 233.014C180.288 233.014 180.932 233.658 180.932 234.449V387.61L266.653 383.612V287.604C266.653 286.807 267.294 286.169 268.084 286.169C268.879 286.169 269.519 286.809 269.519 287.604V385.052Z" fill="#F8BAB2"/>
<path fill-rule="evenodd" clip-rule="evenodd" d="M201.809 288.185L178.188 235.033L178.186 235.028C177.991 234.592 178.029 234.081 178.296 233.667C178.566 233.257 179.018 233.014 179.499 233.014L268.089 233.015C268.617 233.015 269.091 233.298 269.339 233.749L298.874 286.907L298.875 286.909C299.122 287.353 299.116 287.894 298.859 288.33C298.599 288.765 298.13 289.034 297.616 289.034H203.122C202.555 289.034 202.037 288.697 201.809 288.186L201.809 288.185ZM204.055 286.165L181.704 235.882H267.241L295.177 286.165H204.055Z" fill="#F8BAB2"/>
<path d="M268.107 361.314L179.574 364.406C178.783 364.433 178.117 363.812 178.089 363.021C178.061 362.231 178.682 361.565 179.474 361.537L268.007 358.446C268.8 358.418 269.464 359.038 269.491 359.829C269.519 360.621 268.9 361.286 268.107 361.314Z" fill="#F8BAB2"/>
</g>
<g clip-path="url(#clip1_742_1897)">
<path fill-rule="evenodd" clip-rule="evenodd" d="M361.636 289.681L383.743 279.36L416.312 349.122L394.204 359.443L361.636 289.681ZM384.457 277.393L418.278 349.838L393.491 361.41L359.669 288.965L384.457 277.393Z" fill="#C5C5C5"/>
<path fill-rule="evenodd" clip-rule="evenodd" d="M384.849 262.504L385.082 278.735L360.295 290.307L348.002 279.706L384.849 262.504ZM383.403 264.813L383.59 277.797L360.535 288.561L350.701 280.08L383.403 264.813Z" fill="#C5C5C5"/>
<path fill-rule="evenodd" clip-rule="evenodd" d="M392.174 260.719L358.909 255.007L341.928 284.176L392.174 260.719ZM387.263 261.377L359.671 256.639L345.586 280.834L387.263 261.377Z" fill="#C5C5C5"/>
<path fill-rule="evenodd" clip-rule="evenodd" d="M368.417 285.698L362.467 272.953L361.127 273.578L367.077 286.323L368.417 285.698Z" fill="#C5C5C5"/>
<path fill-rule="evenodd" clip-rule="evenodd" d="M377.797 281.321L371.847 268.576L370.507 269.201L376.457 281.946L377.797 281.321Z" fill="#C5C5C5"/>
<path fill-rule="evenodd" clip-rule="evenodd" d="M363.427 297.015L388.214 285.443L387.588 284.102L362.8 295.674L363.427 297.015Z" fill="#C5C5C5"/>
<path fill-rule="evenodd" clip-rule="evenodd" d="M389.732 353.361L414.52 341.789L413.894 340.447L389.106 352.02L389.732 353.361Z" fill="#C5C5C5"/>
<path fill-rule="evenodd" clip-rule="evenodd" d="M401.73 324.883L387.951 295.369L386.611 295.994L400.39 325.509L401.73 324.883Z" fill="#C5C5C5"/>
</g>
<path fill-rule="evenodd" clip-rule="evenodd" d="M67.2309 337.354L58.1039 336.137L49.2175 338.588L44.5478 350.116L40.0458 350.82L32.6963 356.332L31.9078 363.767L29.347 362.37L19.7275 371.679L21.9387 382.419H89.4995V381.247H76.3462L80.7587 371.871L77.4185 365.051L88.8492 361.377L89.4995 361.695V360.391L88.9401 360.118L86.3746 360.942L84.1176 352.401L73.2294 347.58L72.4947 347.513V343.546L67.2309 337.354ZM71.3233 347.407V343.977L66.6299 338.455L58.1855 337.329L50.0862 339.564L45.8971 349.905L49.7912 349.297L53.9237 352.13L63.2828 346.676L71.3233 347.407ZM54.9927 352.863L58.3572 355.169L73.4663 356.982L76.8978 363.988L85.2579 361.301L83.1289 353.244L72.9314 348.729L63.5494 347.876L54.9927 352.863ZM75.0516 381.247L79.4593 371.881L72.6945 358.07L51.3151 355.504L38.4947 367.359L46.1077 371.512L46.9667 381.247H75.0516ZM45.7907 381.247L44.996 372.24L29.5424 363.811L21.0047 372.073L22.8935 381.247H45.7907ZM40.515 351.932L33.8074 356.963L33.0213 364.374L37.4094 366.767L50.9172 354.276L55.8458 354.868L49.5125 350.526L40.515 351.932Z" fill="#C5C5C5"/>
<path d="M13.0449 382.419V381.248H89.4761V382.419H14.2164H13.0449Z" fill="#C5C5C5"/>
<path fill-rule="evenodd" clip-rule="evenodd" d="M76.1317 372.596L75.2317 373.346L67.1241 363.617L55.8019 363.617L55.8019 362.445L67.6728 362.445L76.1317 372.596Z" fill="#C5C5C5"/>
<path fill-rule="evenodd" clip-rule="evenodd" d="M52.8607 346.417L53.7606 347.167L57.9542 342.135L63.7967 342.135L63.7967 340.964L57.4055 340.964L52.8607 346.417Z" fill="#C5C5C5"/>
<path fill-rule="evenodd" clip-rule="evenodd" d="M25.5408 376.938L26.6951 377.137L27.8107 370.683L32.8704 367.761L32.2847 366.747L26.7498 369.942L25.5408 376.938Z" fill="#C5C5C5"/>
<defs>
<clipPath id="clip0_742_1897">
<rect width="251" height="254" fill="white" transform="translate(54 137)"/>
</clipPath>
<clipPath id="clip1_742_1897">
<rect width="77.9981" height="141" fill="white" transform="matrix(-0.906118 0.423025 0.423025 0.906118 385.676 218)"/>
</clipPath>
</defs>
</svg>
