<svg width="419" height="336" viewBox="0 0 419 336" fill="none" xmlns="http://www.w3.org/2000/svg">
<path fill-rule="evenodd" clip-rule="evenodd" d="M97 141C87.6112 141 80 133.389 80 124V110.72C81.3807 110.72 82.5 111.839 82.5 113.22V124C82.5 132.008 88.9919 138.5 97 138.5H113.422C114.802 138.5 115.922 139.619 115.922 141H97ZM197.422 141C197.422 139.619 196.302 138.5 194.922 138.5H162.078C160.698 138.5 159.578 139.619 159.578 141H197.422ZM277 110.72C275.619 110.72 274.5 111.839 274.5 113.22V124C274.5 132.008 268.008 138.5 260 138.5H243.578C242.198 138.5 241.078 139.619 241.078 141H260C269.389 141 277 133.389 277 124V110.72ZM277 57.2201C275.619 57.2201 274.5 58.3394 274.5 59.7201V81.2799C274.5 82.6606 275.619 83.7799 277 83.7799V57.2201ZM241.078 0C241.078 1.38071 242.198 2.5 243.578 2.5H260C268.008 2.5 274.5 8.99187 274.5 17V27.7799C274.5 29.1606 275.619 30.2799 277 30.2799V17C277 7.61116 269.389 0 260 0H241.078ZM159.578 0C159.578 1.38071 160.698 2.5 162.078 2.5H194.922C196.302 2.5 197.422 1.38071 197.422 0H159.578ZM80 30.2798C81.3807 30.2798 82.5 29.1606 82.5 27.7798V17C82.5 8.99187 88.9919 2.5 97 2.5H113.422C114.802 2.5 115.922 1.38071 115.922 0H97C87.6112 0 80 7.61116 80 17V30.2798ZM80 83.7799C81.3807 83.7799 82.5 82.6606 82.5 81.2799V59.7201C82.5 58.3394 81.3807 57.2201 80 57.2201V83.7799Z" fill="#D8D8D8"/>
<path d="M177.073 82.2034C176.164 82.2034 175.429 81.4684 175.429 80.5595C175.429 78.4092 175.734 76.5518 176.341 74.9902C176.786 73.8129 177.509 72.6264 178.503 71.4278C179.235 70.5555 180.547 69.2806 182.444 67.6092C184.341 65.9347 185.573 64.6019 186.143 63.6076C186.714 62.6133 186.994 61.5275 186.994 60.3502C186.994 58.2182 186.162 56.3486 184.499 54.7351C182.837 53.1217 180.797 52.3165 178.381 52.3165C176.048 52.3165 174.099 53.0485 172.537 54.5094C171.397 55.5769 170.54 57.0836 169.972 59.0295C169.582 60.3654 168.279 61.2194 166.898 61.0547C165.147 60.8473 163.994 59.1149 164.494 57.4222C165.263 54.8205 166.55 52.7252 168.353 51.1331C170.857 48.9157 174.169 47.8086 178.29 47.8086C182.651 47.8086 186.131 48.995 188.73 51.371C191.328 53.7469 192.625 56.617 192.625 59.9842C192.625 61.9331 192.167 63.7296 191.255 65.3705C190.343 67.0144 188.556 69.0122 185.899 71.3668C184.115 72.9497 182.947 74.1179 182.398 74.8682C181.849 75.6185 181.443 76.4816 181.181 77.4546C180.986 78.1774 180.852 79.2388 180.778 80.6327C180.733 81.5111 180.004 82.2004 179.125 82.2004H177.073V82.2034ZM175.124 90.0724C175.124 88.3492 176.521 86.9523 178.244 86.9523C179.967 86.9523 181.364 88.3492 181.364 90.0724C181.364 91.7957 179.967 93.1926 178.244 93.1926C176.521 93.1926 175.124 91.7957 175.124 90.0724V90.0724Z" fill="#DEDEDE"/>
<path fill-rule="evenodd" clip-rule="evenodd" d="M333 221C323.611 221 316 213.389 316 204V193.44C317.381 193.44 318.5 194.56 318.5 195.94V204C318.5 212.008 324.992 218.5 333 218.5H346.903C348.284 218.5 349.403 219.619 349.403 221H333ZM419 193.44C417.619 193.44 416.5 194.56 416.5 195.94V204C416.5 212.008 410.008 218.5 402 218.5H388.097C386.716 218.5 385.597 219.619 385.597 221H402C411.389 221 419 213.389 419 204V193.44ZM385.597 147C385.597 148.381 386.716 149.5 388.097 149.5H402C410.008 149.5 416.5 155.992 416.5 164V172.06C416.5 173.44 417.619 174.56 419 174.56V164C419 154.611 411.389 147 402 147H385.597ZM316 174.56C317.381 174.56 318.5 173.44 318.5 172.06V164C318.5 155.992 324.992 149.5 333 149.5H346.903C348.284 149.5 349.403 148.381 349.403 147H333C323.611 147 316 154.611 316 164V174.56Z" fill="#D8D8D8"/>
<path d="M366.588 191.982C366.007 191.982 365.537 191.512 365.537 190.931C365.537 189.557 365.732 188.369 366.12 187.371C366.404 186.618 366.866 185.859 367.502 185.093C367.97 184.535 368.809 183.72 370.022 182.652C371.234 181.581 372.022 180.729 372.387 180.093C372.752 179.457 372.931 178.763 372.931 178.011C372.931 176.648 372.399 175.452 371.336 174.421C370.273 173.389 368.969 172.874 367.424 172.874C365.932 172.874 364.686 173.342 363.688 174.276C362.959 174.959 362.411 175.922 362.048 177.166C361.798 178.02 360.966 178.566 360.082 178.461C358.963 178.328 358.226 177.221 358.546 176.139C359.037 174.475 359.86 173.136 361.013 172.118C362.614 170.7 364.731 169.992 367.366 169.992C370.154 169.992 372.379 170.751 374.041 172.27C375.702 173.789 376.531 175.624 376.531 177.777C376.531 179.023 376.238 180.171 375.655 181.22C375.072 182.271 373.929 183.549 372.231 185.054C371.09 186.066 370.343 186.813 369.992 187.293C369.641 187.772 369.382 188.324 369.214 188.946C369.089 189.408 369.004 190.087 368.957 190.978C368.928 191.54 368.462 191.98 367.9 191.98H366.588V191.982ZM365.342 197.013C365.342 195.912 366.235 195.018 367.336 195.018C368.438 195.018 369.331 195.912 369.331 197.013C369.331 198.115 368.438 199.008 367.336 199.008C366.235 199.008 365.342 198.115 365.342 197.013V197.013Z" fill="#DEDEDE"/>
<path fill-rule="evenodd" clip-rule="evenodd" d="M17 300C15.1519 300 13.3728 299.705 11.7069 299.16C11.3093 299.03 10.9182 298.885 10.5342 298.727C10.1471 298.568 9.76713 298.395 9.39499 298.208C9.88767 297.008 11.2317 296.374 12.4847 296.784C13.9025 297.248 15.4194 297.5 17 297.5H25.4627C26.8434 297.5 27.9627 298.619 27.9627 300H17ZM66.605 298.208C66.1123 297.008 64.7683 296.374 63.5153 296.784C62.0975 297.248 60.5806 297.5 59 297.5H50.5373C49.1566 297.5 48.0373 298.619 48.0373 300H59C60.8481 300 62.6273 299.705 64.2931 299.16C64.6907 299.03 65.0818 298.885 65.4658 298.727C65.853 298.568 66.2329 298.395 66.605 298.208ZM76 276.47C74.6193 276.47 73.5 277.589 73.5 278.97V283C73.5 284.581 73.248 286.097 72.7839 287.515C72.3737 288.768 73.0077 290.112 74.2082 290.605C74.3947 290.233 74.5679 289.853 74.7272 289.466C74.8853 289.082 75.0297 288.691 75.1598 288.293C75.7051 286.627 76 284.848 76 283V276.47ZM74.2082 255.395C73.0077 255.888 72.3737 257.232 72.7839 258.485C73.248 259.903 73.5 261.419 73.5 263V267.03C73.5 268.411 74.6193 269.53 76 269.53V263C76 261.152 75.7051 259.373 75.1598 257.707C75.0297 257.309 74.8853 256.918 74.7272 256.534C74.5679 256.147 74.3947 255.767 74.2082 255.395ZM48.0373 246C48.0373 247.381 49.1566 248.5 50.5373 248.5H59C60.5806 248.5 62.0975 248.752 63.5153 249.216C64.7683 249.626 66.1123 248.992 66.605 247.792C66.2329 247.605 65.8529 247.432 65.4658 247.273C65.0818 247.115 64.6906 246.97 64.2931 246.84C62.6272 246.295 60.8481 246 59 246H48.0373ZM27.9627 246C27.9627 247.381 26.8434 248.5 25.4627 248.5H17C15.4194 248.5 13.9025 248.752 12.4847 249.216C11.2317 249.626 9.88767 248.992 9.39499 247.792C9.76713 247.605 10.1471 247.432 10.5342 247.273C10.9182 247.115 11.3093 246.97 11.7069 246.84C13.3728 246.295 15.1519 246 17 246H27.9627ZM0 269.53C1.38071 269.53 2.5 268.411 2.5 267.03V263C2.5 261.419 2.752 259.903 3.21613 258.485C3.62629 257.232 2.99233 255.888 1.79177 255.395C1.60532 255.767 1.43212 256.147 1.2728 256.534C1.11474 256.918 0.970325 257.309 0.840181 257.707C0.29489 259.373 0 261.152 0 263V269.53ZM1.79177 290.605C2.99233 290.112 3.62629 288.768 3.21613 287.515C2.752 286.097 2.5 284.581 2.5 283V278.97C2.5 277.589 1.38071 276.47 0 276.47V283C0 284.848 0.29489 286.627 0.840182 288.293C0.970326 288.691 1.11474 289.082 1.2728 289.466C1.43212 289.853 1.60532 290.233 1.79177 290.605Z" fill="#D8D8D8"/>
<path d="M36.8684 278.677C36.4661 278.677 36.1408 278.352 36.1408 277.949C36.1408 276.998 36.2758 276.176 36.5444 275.484C36.7415 274.963 37.0615 274.438 37.5016 273.908C37.8256 273.521 38.4061 272.957 39.2458 272.217C40.0855 271.476 40.6309 270.886 40.8833 270.446C41.1358 270.006 41.26 269.525 41.26 269.004C41.26 268.061 40.8914 267.233 40.1557 266.519C39.4199 265.805 38.5168 265.448 37.4476 265.448C36.4148 265.448 35.5522 265.772 34.861 266.419C34.3561 266.892 33.9767 267.558 33.7256 268.42C33.5528 269.011 32.9764 269.389 32.3648 269.316C31.5899 269.224 31.0796 268.458 31.301 267.708C31.6412 266.557 32.2109 265.629 33.0088 264.925C34.1171 263.943 35.5832 263.453 37.4071 263.453C39.3376 263.453 40.8779 263.978 42.0281 265.03C43.1783 266.082 43.7521 267.352 43.7521 268.842C43.7521 269.705 43.5496 270.5 43.1459 271.226C42.7423 271.954 41.9512 272.838 40.7753 273.881C39.9856 274.581 39.4685 275.098 39.2255 275.43C38.9825 275.762 38.803 276.144 38.6869 276.575C38.6005 276.895 38.5411 277.365 38.5087 277.982C38.4884 278.371 38.1658 278.676 37.777 278.676H36.8684V278.677ZM36.0058 282.16C36.0058 281.397 36.6241 280.779 37.3868 280.779C38.1496 280.779 38.7679 281.397 38.7679 282.16C38.7679 282.923 38.1496 283.541 37.3868 283.541C36.6241 283.541 36.0058 282.923 36.0058 282.16V282.16Z" fill="#DEDEDE"/>
<g clip-path="url(#clip0_742_1965)">
<path d="M198.932 178.45V333.051C198.931 333.822 198.313 334.457 197.544 334.482L108.908 330.482C108.116 330.482 107.473 329.838 107.473 329.047V231.599C107.473 230.806 108.115 230.164 108.908 230.164C109.702 230.164 110.344 230.805 110.344 231.599V327.607L196.061 331.609V178.45C196.061 177.659 196.705 177.016 197.497 177.016C198.289 177.016 198.932 177.659 198.932 178.45Z" fill="#F8BAB2"/>
<path fill-rule="evenodd" clip-rule="evenodd" d="M198.695 177.664C198.432 177.259 197.982 177.013 197.493 177.013L108.907 177.01C108.392 177.01 107.91 177.293 107.654 177.749L107.654 177.75L78.1241 230.898L78.1232 230.9C77.8766 231.348 77.8832 231.889 78.1421 232.329C78.3978 232.762 78.868 233.032 79.3774 233.032H173.875C174.443 233.032 174.954 232.698 175.183 232.184L198.803 179.034L198.695 177.664ZM84.3963 230.163H82L83.0692 227.907L109.752 179.879H195.289L172.941 230.163H84.3963Z" fill="#F8BAB2"/>
<path d="M197.419 308.405L108.885 305.313C108.094 305.285 107.472 304.619 107.5 303.828C107.528 303.038 108.193 302.417 108.985 302.445L197.52 305.536C198.311 305.564 198.932 306.23 198.904 307.02C198.876 307.811 198.209 308.432 197.419 308.405Z" fill="#F8BAB2"/>
<path fill-rule="evenodd" clip-rule="evenodd" d="M288.395 330.886C287.854 331.564 287.02 332 286.084 332C286.12 332 286.157 331.998 286.193 331.997C287.085 331.964 287.875 331.537 288.395 330.886Z" fill="#F8BAB2"/>
<path d="M287.519 329.052C287.519 329.836 286.879 330.481 286.084 330.481L197.497 334.482C196.705 334.482 196.061 333.838 196.061 333.047V178.449C196.061 177.658 196.705 177.014 197.497 177.014C198.288 177.014 198.932 177.658 198.932 178.449V331.61L284.653 327.612V231.604C284.653 230.807 285.294 230.169 286.084 230.169C286.879 230.169 287.519 230.809 287.519 231.604V329.052Z" fill="#F8BAB2"/>
<path fill-rule="evenodd" clip-rule="evenodd" d="M219.809 232.185L196.188 179.033L196.186 179.028C195.991 178.592 196.029 178.081 196.296 177.667C196.566 177.257 197.018 177.014 197.499 177.014L286.089 177.015C286.617 177.015 287.091 177.298 287.339 177.749L316.874 230.907L316.875 230.909C317.122 231.353 317.116 231.894 316.859 232.33C316.599 232.765 316.13 233.034 315.616 233.034H221.122C220.555 233.034 220.037 232.697 219.809 232.186L219.809 232.185ZM222.055 230.165L199.704 179.882H285.241L313.177 230.165H222.055Z" fill="#F8BAB2"/>
<path d="M286.107 305.316L197.574 308.408C196.783 308.435 196.117 307.814 196.089 307.023C196.061 306.233 196.682 305.567 197.474 305.539L286.007 302.447C286.8 302.42 287.464 303.04 287.491 303.831C287.519 304.623 286.9 305.288 286.107 305.316Z" fill="#F8BAB2"/>
</g>
<defs>
<clipPath id="clip0_742_1965">
<rect width="251" height="254" fill="white" transform="translate(72 81)"/>
</clipPath>
</defs>
</svg>
