<svg width="274" height="354" viewBox="0 0 274 354" fill="none" xmlns="http://www.w3.org/2000/svg">
<g clip-path="url(#clip0_1163_21446)">
<path d="M143.066 2.17305C142.866 1.88427 142.584 1.66291 142.257 1.53798C142.043 1.44544 141.812 1.39802 141.578 1.39865L125.422 1.39844C125.188 1.39781 124.958 1.44523 124.743 1.53776C124.416 1.66268 124.134 1.88404 123.934 2.17283C123.736 2.45343 123.631 2.78926 123.633 3.13305V23.0971C123.631 23.4409 123.736 23.7768 123.934 24.0575C124.134 24.3463 124.416 24.5677 124.743 24.6926C124.958 24.785 125.188 24.8324 125.422 24.8317C125.898 24.8344 126.357 24.6512 126.701 24.3208L133.5 17.7535L140.299 24.3209C140.646 24.6459 141.104 24.8234 141.578 24.8162C141.869 24.8202 142.156 24.7532 142.415 24.621C142.675 24.4888 142.898 24.2953 143.066 24.0571C143.264 23.7766 143.369 23.4408 143.367 23.0971V3.13326C143.369 2.7895 143.264 2.45366 143.066 2.17305Z" fill="#F8BAB2"/>
<path d="M91.0661 214.173C90.8662 213.884 90.5842 213.663 90.2569 213.538C90.0426 213.445 89.8117 213.398 89.5784 213.399L73.4216 213.398C73.1884 213.398 72.9576 213.445 72.7434 213.538C72.416 213.663 72.1339 213.884 71.934 214.173C71.7362 214.453 71.6311 214.789 71.6333 215.133V235.097C71.6311 235.441 71.7363 235.777 71.934 236.057C72.1339 236.346 72.416 236.568 72.7434 236.693C72.9576 236.785 73.1884 236.832 73.4216 236.832C73.8979 236.834 74.3567 236.651 74.7012 236.321L81.5001 229.754L88.2988 236.321C88.6456 236.646 89.1041 236.823 89.5783 236.816C89.869 236.82 90.1562 236.753 90.4154 236.621C90.6746 236.489 90.8979 236.295 91.0662 236.057C91.2639 235.777 91.3689 235.441 91.3666 235.097V215.133C91.3689 214.789 91.2638 214.454 91.0661 214.173Z" fill="#F8BAB2"/>
<path d="M272.066 105.173C271.866 104.884 271.584 104.663 271.257 104.538C271.043 104.445 270.812 104.398 270.578 104.399L254.422 104.398C254.188 104.398 253.958 104.445 253.743 104.538C253.416 104.663 253.134 104.884 252.934 105.173C252.736 105.453 252.631 105.789 252.633 106.133V126.097C252.631 126.441 252.736 126.777 252.934 127.057C253.134 127.346 253.416 127.568 253.743 127.693C253.958 127.785 254.188 127.832 254.422 127.832C254.898 127.834 255.357 127.651 255.701 127.321L262.5 120.754L269.299 127.321C269.646 127.646 270.104 127.823 270.578 127.816C270.869 127.82 271.156 127.753 271.415 127.621C271.675 127.489 271.898 127.295 272.066 127.057C272.264 126.777 272.369 126.441 272.367 126.097V106.133C272.369 105.789 272.264 105.454 272.066 105.173Z" fill="#F8BAB2"/>
<path d="M38.7069 39.9632H118.326V147.087H72.8808V148.535H119.774V38.5156H37.2593V130.998L38.7069 131.488V39.9632Z" fill="#C5C5C5"/>
<path d="M59.6976 98.5922H97.3357V138.402H70.5024L71.203 139.849H98.7833V97.1445H58.25V134.397H59.6976V98.5922Z" fill="#C5C5C5"/>
<path d="M71.3104 119.368L71.3533 119.332L71.3932 119.291C73.6913 116.982 74.8592 115.041 75.3066 113.092C75.4996 112.252 75.5482 111.44 75.5222 110.655C76.1456 111.069 76.6585 111.479 77.1155 111.918C78.0575 112.822 78.8305 113.912 79.8316 115.589C81.2906 118.032 81.5229 119.809 81.8066 121.979C81.8848 122.578 81.967 123.206 82.0799 123.887L82.1556 124.343L82.4819 124.671C82.6954 124.886 82.9856 125.098 83.3614 125.212C83.7541 125.331 84.1467 125.312 84.4967 125.198C85.1195 124.995 85.5203 124.523 85.7385 124.225C86.207 123.585 86.5901 122.664 86.8794 121.92C86.9967 121.618 87.101 121.339 87.1964 121.083C89.8143 124.052 90.821 127.723 90.821 130.008C90.821 132.933 89.8491 136.171 88.2987 138.347H70.3439L71.2924 139.794H89.0115C91.0454 137.337 92.2686 133.454 92.2686 130.008C92.2686 127.029 90.8085 122.183 86.9149 118.759C86.792 118.566 86.6397 118.709 86.4629 119.047C86.3948 119.178 86.323 119.337 86.2479 119.518C86.1959 119.643 86.1423 119.778 86.0873 119.921L86.0758 119.95C86 120.148 85.9213 120.358 85.84 120.576C85.5433 121.371 85.212 122.259 84.8579 122.908C84.7337 123.136 84.6068 123.334 84.4775 123.489C84.1655 123.863 83.84 123.983 83.508 123.65C83.4479 123.287 83.3966 122.932 83.3491 122.581C83.3178 122.35 83.288 122.12 83.2584 121.891C82.971 119.67 82.6989 117.567 81.0745 114.847C79.335 111.934 78.0889 110.437 75.3566 108.85C74.8782 108.572 74.3542 108.291 73.774 108L73.8126 108.27C73.8859 108.782 73.9562 109.273 74.0066 109.753C74.2797 112.357 73.9672 114.653 70.3671 118.27C65.7435 122.242 64.04 124.758 64.04 130.008C64.04 131.791 64.3677 133.692 64.9659 135.452L66.7309 136.022C65.9443 134.165 65.4877 132.013 65.4877 130.008C65.4877 127.554 65.8824 125.876 66.7309 124.37C67.605 122.819 69.0242 121.332 71.3104 119.368Z" fill="#C5C5C5"/>
<path d="M54.6302 92.8031H102.402V147.089H72.9806L72.4496 148.536H103.849V91.3555H53.1826V133.533L54.6302 133.771V92.8031Z" fill="#C5C5C5"/>
<path fill-rule="evenodd" clip-rule="evenodd" d="M107.469 56.6117H49.5643V76.1545H107.469V56.6117ZM48.1167 55.1641V77.6022H108.917V55.1641H48.1167Z" fill="#C5C5C5"/>
<path fill-rule="evenodd" clip-rule="evenodd" d="M118.326 39.9632H38.7069V43.5823H118.326V39.9632ZM37.2593 38.5156V45.0299H119.774V38.5156H37.2593Z" fill="#C5C5C5"/>
<path fill-rule="evenodd" clip-rule="evenodd" d="M42.3257 131.426L42.3257 45.0297L38.7067 45.0297L38.7067 130.816L42.3257 131.426ZM43.7734 43.582L37.2591 43.582L37.2591 131.736L43.7734 132.582L43.7734 43.582Z" fill="#C5C5C5"/>
<path fill-rule="evenodd" clip-rule="evenodd" d="M118.326 147.087L118.326 45.0297L114.707 45.0297L114.707 147.087L118.326 147.087ZM119.773 43.582L113.259 43.582L113.259 148.534L119.773 148.534L119.773 43.582Z" fill="#C5C5C5"/>
<path fill-rule="evenodd" clip-rule="evenodd" d="M92.3559 26.2109H103.426L109.192 31.9766L111.714 39.9633H43.6265L52.4302 29.9019L63.791 27.251L67.4787 29.3582L71.0865 27.2967H86.9738L88.0426 30.045L92.3559 26.2109ZM88.8035 32.0014L89.8427 34.6736L86.5917 38.5157H98.0597V36.298L93.4326 32.0014H88.8035ZM99.5073 38.5157H109.739L107.918 32.75L102.827 27.6586H92.9063L89.6491 30.5538H94.001L99.5073 35.6667V38.5157ZM84.6954 38.5157L88.1814 34.3959L85.9836 28.7443H71.4709L68.9376 30.1919L71.92 31.8961L73.3136 38.5157H84.6954ZM71.8343 38.5157L70.6374 32.8305L63.5664 28.7899L53.2129 31.2057L46.8167 38.5157H71.8343Z" fill="#C5C5C5"/>
<path fill-rule="evenodd" clip-rule="evenodd" d="M72.4293 76.1522L72.4293 56.6094L73.877 56.6094L73.877 76.1522L72.4293 76.1522Z" fill="#C5C5C5"/>
<path fill-rule="evenodd" clip-rule="evenodd" d="M59.4669 76.1522L59.4669 56.6094L60.9146 56.6094L60.9145 76.1522L59.4669 76.1522Z" fill="#C5C5C5"/>
<path fill-rule="evenodd" clip-rule="evenodd" d="M85.3912 76.1522L85.3912 56.6094L86.8389 56.6094L86.8389 76.1522L85.3912 76.1522Z" fill="#C5C5C5"/>
<path fill-rule="evenodd" clip-rule="evenodd" d="M98.3551 76.1522L98.3551 56.6094L99.8027 56.6094L99.8027 76.1522L98.3551 76.1522Z" fill="#C5C5C5"/>
<path fill-rule="evenodd" clip-rule="evenodd" d="M63.913 135.926L14.1166 128.474C8.73844 127.669 3.72618 131.377 2.92141 136.755C2.11664 142.133 5.82409 147.145 11.2023 147.95L60.9987 155.402C66.3768 156.206 71.3891 152.499 72.1939 147.121C72.9986 141.743 69.2912 136.73 63.913 135.926ZM14.3308 127.042C8.16198 126.119 2.41282 130.372 1.48973 136.541C0.56664 142.71 4.81917 148.459 10.988 149.382L60.7845 156.833C66.9533 157.756 72.7025 153.504 73.6256 147.335C74.5486 141.166 70.2961 135.417 64.1273 134.494L14.3308 127.042Z" fill="#C5C5C5"/>
<path fill-rule="evenodd" clip-rule="evenodd" d="M31.2059 133.129L43.3835 135.678L43.0868 137.095L31.1652 134.6L13.1158 137.348L12.8978 135.917L31.2059 133.129Z" fill="#C5C5C5"/>
<path fill-rule="evenodd" clip-rule="evenodd" d="M18.4121 138.87L25.4019 139.982L25.1744 141.411L18.3998 140.334L8.06595 141.801L7.86244 140.368L18.4121 138.87Z" fill="#C5C5C5"/>
<path fill-rule="evenodd" clip-rule="evenodd" d="M39.6294 149.266L32.1237 146.31L32.6542 144.963L39.851 147.797L51.1534 146.941L51.2627 148.385L39.6294 149.266Z" fill="#C5C5C5"/>
<path fill-rule="evenodd" clip-rule="evenodd" d="M54.8315 144.838C55.4823 138.761 60.6773 134.781 65.3225 134.781V136.229C61.4117 136.229 56.8423 139.656 56.2709 144.992C55.9874 147.638 56.8968 150.347 58.3604 152.361C59.8458 154.406 61.7598 155.56 63.3843 155.444L63.488 156.888C61.1401 157.056 58.806 155.438 57.1892 153.212C55.5507 150.957 54.5038 147.897 54.8315 144.838Z" fill="#C5C5C5"/>
<path fill-rule="evenodd" clip-rule="evenodd" d="M67.0227 150.111C68.4676 148.89 69.3364 147.474 69.3364 146.313C69.3364 144.94 68.6912 143.308 67.6944 142C66.6575 140.64 65.5346 139.997 64.8007 139.997C63.9129 139.997 62.6647 140.558 61.5932 141.625C60.5394 142.675 59.8632 144.014 59.8632 145.305C59.8632 146.834 60.2738 148.627 60.968 150.003C61.7088 151.471 62.5083 151.997 63.0783 151.997C63.495 151.997 64.1106 151.851 64.8483 151.511C65.5695 151.178 66.3309 150.695 67.0227 150.111ZM63.0783 153.26C65.7418 153.26 70.5994 149.751 70.5994 146.313C70.5994 142.875 67.4642 138.734 64.8007 138.734C62.1372 138.734 58.6001 141.867 58.6001 145.305C58.6001 148.744 60.4148 153.26 63.0783 153.26Z" fill="#C5C5C5"/>
<path fill-rule="evenodd" clip-rule="evenodd" d="M63.0938 142.453L64.5354 142.584L64.2042 146.228L66.4978 148.521L65.4742 149.545L62.7012 146.772L63.0938 142.453Z" fill="#C5C5C5"/>
<g clip-path="url(#clip1_1163_21446)">
<path fill-rule="evenodd" clip-rule="evenodd" d="M67.8469 246.753H27.809V340.252H67.8469V246.753ZM26.2075 245.141V341.864H69.4485V245.141H26.2075Z" fill="#C5C5C5"/>
<path fill-rule="evenodd" clip-rule="evenodd" d="M68.2478 256.425H27.0088V254.812H68.2478V256.425Z" fill="#C5C5C5"/>
<path fill-rule="evenodd" clip-rule="evenodd" d="M68.2469 332.19H27.4082V330.578H68.2469V332.19Z" fill="#C5C5C5"/>
<path fill-rule="evenodd" clip-rule="evenodd" d="M55.8354 236.272H39.8203V245.138H55.8354V236.272ZM38.2188 234.66V246.751H57.4369V234.66H38.2188Z" fill="#C5C5C5"/>
<path fill-rule="evenodd" clip-rule="evenodd" d="M55.8354 341.862H39.8203V350.728H55.8354V341.862ZM38.2188 340.25V352.34H57.4369V340.25H38.2188Z" fill="#C5C5C5"/>
<path fill-rule="evenodd" clip-rule="evenodd" d="M26.2068 266.901H20.6015V274.961H26.2068V266.901ZM19 265.289V276.573H27.8083V265.289H19Z" fill="#C5C5C5"/>
<path fill-rule="evenodd" clip-rule="evenodd" d="M26.2068 320.096H20.6015V328.157H26.2068V320.096ZM19 318.484V329.769H27.8083V318.484H19Z" fill="#C5C5C5"/>
<path fill-rule="evenodd" clip-rule="evenodd" d="M60.6387 297.532L60.6387 262.066L62.2402 262.066L62.2402 297.532L60.6387 297.532Z" fill="#C5C5C5"/>
<path fill-rule="evenodd" clip-rule="evenodd" d="M54.2334 307.203L54.2334 271.738L55.835 271.738L55.835 307.203L54.2334 307.203Z" fill="#C5C5C5"/>
</g>
<path fill-rule="evenodd" clip-rule="evenodd" d="M212.957 143.547L223.317 144.932L229.292 151.981V156.496L230.126 156.572L242.486 162.059L245.048 171.781L247.96 170.842L264.021 178.723L267.92 186.186L263.986 196.226H171.905L169.395 184.001L180.314 173.406L183.221 174.995L184.116 166.533L192.458 160.259L197.569 159.459L202.87 146.337L212.957 143.547ZM199.101 159.219L203.521 158.526L208.212 161.751L218.836 155.542L227.963 156.374V152.471L222.635 146.186L213.049 144.904L203.856 147.447L199.101 159.219ZM209.425 162.585L213.244 165.21L230.395 167.274L234.291 175.248L243.78 172.189L241.364 163.019L229.788 157.88L219.138 156.909L209.425 162.585ZM234.882 176.458L238.673 184.22L233.664 194.892H263.08L266.46 186.265L263.045 179.728L247.857 172.276L234.882 176.458ZM232.195 194.892L237.198 184.231L229.519 168.511L205.251 165.591L190.698 179.085L199.34 183.811L200.315 194.892H232.195ZM198.98 194.892L198.078 184.64L180.536 175.046L170.844 184.45L172.988 194.892H198.98ZM189.466 178.411L204.799 164.194L210.394 164.867L203.204 159.925L192.991 161.525L185.377 167.251L184.485 175.687L189.466 178.411Z" fill="#C5C5C5"/>
<path d="M163.138 196.224H271.511H272.841V194.891H161.809V196.224H163.138Z" fill="#C5C5C5"/>
<path fill-rule="evenodd" clip-rule="evenodd" d="M233.421 185.045L232.399 185.898L223.196 174.825L210.344 174.825L210.344 173.491H223.819L233.421 185.045Z" fill="#C5C5C5"/>
<path fill-rule="evenodd" clip-rule="evenodd" d="M207.004 155.248L208.026 156.101L212.786 150.374L219.418 150.374L219.418 149.04L212.163 149.04L207.004 155.248Z" fill="#C5C5C5"/>
<path fill-rule="evenodd" clip-rule="evenodd" d="M175.993 189.986L177.303 190.213L178.569 182.866L184.313 179.541L183.648 178.387L177.365 182.024L175.993 189.986Z" fill="#C5C5C5"/>
</g>
<defs>
<clipPath id="clip0_1163_21446">
<rect width="274" height="354" fill="white"/>
</clipPath>
<clipPath id="clip1_1163_21446">
<rect width="55" height="153" fill="white" transform="translate(14 217)"/>
</clipPath>
</defs>
</svg>
