<svg width="32" height="32" viewBox="0 0 32 32" fill="none" xmlns="http://www.w3.org/2000/svg">
<path d="M24.2716 7.06837C24.0987 6.81862 23.8548 6.62717 23.5717 6.51912C23.3864 6.43909 23.1867 6.39808 22.985 6.39862L9.01148 6.39844C8.80982 6.3979 8.61018 6.4389 8.42492 6.51893C8.14181 6.62697 7.89781 6.81842 7.72488 7.06818C7.55387 7.31086 7.46293 7.60131 7.46487 7.89864V25.1648C7.46296 25.4622 7.55389 25.7527 7.72488 25.9955C7.8978 26.2452 8.14181 26.4367 8.42492 26.5447C8.61019 26.6247 8.80983 26.6657 9.01148 26.6651C9.42343 26.6674 9.8202 26.509 10.1182 26.2232L15.9983 20.5434L21.8783 26.2233C22.1782 26.5043 22.5748 26.6578 22.9848 26.6516C23.2362 26.6551 23.4847 26.5972 23.7088 26.4828C23.933 26.3685 24.1261 26.2011 24.2717 25.9951C24.4426 25.7525 24.5335 25.4621 24.5315 25.1649V7.89883C24.5335 7.60152 24.4426 7.31106 24.2716 7.06837V7.06837Z" fill="#C7C6C6"/>
</svg>
