<svg width="261" height="305" viewBox="0 0 261 305" fill="none" xmlns="http://www.w3.org/2000/svg">
<g clip-path="url(#clip0_1163_22899)">
<path d="M258.973 2.27672C258.763 1.97405 258.468 1.74204 258.125 1.6111C257.9 1.51411 257.658 1.46441 257.413 1.46507L240.478 1.46485C240.234 1.46419 239.992 1.51389 239.767 1.61087C239.424 1.7418 239.128 1.97381 238.919 2.2765C238.711 2.57059 238.601 2.92258 238.604 3.2829V24.2074C238.601 24.5678 238.711 24.9198 238.919 25.214C239.128 25.5167 239.424 25.7487 239.767 25.8796C239.992 25.9766 240.234 26.0262 240.478 26.0255C240.977 26.0283 241.458 25.8363 241.819 25.49L248.946 18.6068L256.072 25.4902C256.436 25.8307 256.916 26.0167 257.413 26.0092C257.718 26.0134 258.019 25.9432 258.291 25.8046C258.562 25.666 258.797 25.4632 258.973 25.2137C259.18 24.9196 259.29 24.5677 259.288 24.2074V3.28313C259.29 2.92283 259.18 2.57084 258.973 2.27672Z" fill="#F8BAB2"/>
<path d="M149.584 41.8845H233.04V154.162H185.405V155.679H234.558V40.3672H148.067V137.299L149.584 137.812V41.8845Z" fill="#C5C5C5"/>
<path d="M171.587 103.334H211.039V145.058H182.912L183.647 146.576H212.556V101.816H170.069V140.861H171.587V103.334Z" fill="#C5C5C5"/>
<path d="M183.759 125.107L183.804 125.068L183.846 125.026C186.255 122.606 187.479 120.571 187.948 118.529C188.151 117.648 188.201 116.797 188.174 115.974C188.828 116.408 189.365 116.838 189.844 117.298C190.832 118.245 191.642 119.388 192.691 121.146C194.221 123.707 194.464 125.569 194.761 127.843C194.843 128.47 194.93 129.129 195.048 129.843L195.127 130.321L195.469 130.665C195.693 130.889 195.997 131.112 196.391 131.231C196.803 131.356 197.214 131.336 197.581 131.217C198.234 131.005 198.654 130.51 198.883 130.197C199.374 129.526 199.775 128.561 200.079 127.781C200.202 127.464 200.311 127.172 200.411 126.904C203.155 130.015 204.21 133.863 204.21 136.258C204.21 139.324 203.191 142.718 201.566 144.998H182.746L183.741 146.516H202.314C204.446 143.94 205.728 139.87 205.728 136.258C205.728 133.136 204.197 128.056 200.116 124.468C199.987 124.266 199.827 124.415 199.642 124.77C199.571 124.907 199.496 125.074 199.417 125.264C199.362 125.395 199.306 125.536 199.248 125.686L199.236 125.717C199.157 125.923 199.074 126.144 198.989 126.373C198.678 127.206 198.331 128.136 197.96 128.817C197.83 129.055 197.697 129.263 197.561 129.426C197.234 129.818 196.893 129.944 196.545 129.594C196.482 129.214 196.428 128.842 196.378 128.474C196.345 128.231 196.314 127.99 196.283 127.751C195.982 125.423 195.697 123.219 193.994 120.368C192.171 117.314 190.865 115.746 188.001 114.082C187.499 113.791 186.95 113.497 186.342 113.191L186.382 113.475C186.459 114.011 186.533 114.525 186.586 115.029C186.872 117.758 186.544 120.164 182.771 123.956C177.924 128.118 176.139 130.756 176.139 136.258C176.139 138.127 176.482 140.12 177.109 141.964L178.959 142.561C178.135 140.616 177.656 138.36 177.656 136.258C177.656 133.687 178.07 131.928 178.959 130.349C179.875 128.723 181.363 127.165 183.759 125.107Z" fill="#C5C5C5"/>
<path d="M166.275 97.2634H216.349V154.161H185.51L184.953 155.678H217.866V95.7461H164.758V139.953L166.275 140.202V97.2634Z" fill="#C5C5C5"/>
<path fill-rule="evenodd" clip-rule="evenodd" d="M221.66 59.3337H160.965V79.8167H221.66V59.3337ZM159.448 57.8164V81.334H223.178V57.8164H159.448Z" fill="#C5C5C5"/>
<path fill-rule="evenodd" clip-rule="evenodd" d="M233.04 41.8845H149.584V45.6776H233.04V41.8845ZM148.067 40.3672V47.1949H234.558V40.3672H148.067Z" fill="#C5C5C5"/>
<path fill-rule="evenodd" clip-rule="evenodd" d="M153.378 137.746L153.378 47.193L149.584 47.193L149.584 137.106L153.378 137.746ZM154.895 45.6758L148.067 45.6758L148.067 138.071L154.895 138.958L154.895 45.6758Z" fill="#C5C5C5"/>
<path fill-rule="evenodd" clip-rule="evenodd" d="M233.04 154.16L233.04 47.193L229.247 47.193L229.247 154.16L233.04 154.16ZM234.558 45.6758L227.729 45.6758L227.729 155.677L234.558 155.677L234.558 45.6758Z" fill="#C5C5C5"/>
<path fill-rule="evenodd" clip-rule="evenodd" d="M205.819 27.4688H217.423L223.466 33.5118L226.11 41.8828H154.741L163.969 31.3372L175.878 28.5588L179.743 30.7675L183.525 28.6067H200.178L201.298 31.4872L205.819 27.4688ZM202.095 33.5378L203.185 36.3386L199.777 40.3655H211.798V38.0411L206.948 33.5378H202.095ZM213.315 40.3655H224.04L222.131 34.3224L216.794 28.986H206.396L202.982 32.0205H207.543L213.315 37.3795V40.3655ZM197.789 40.3655L201.443 36.0474L199.14 30.124H183.928L181.272 31.6412L184.398 33.4275L185.859 40.3655H197.789ZM184.308 40.3655L183.054 34.4068L175.642 30.1718L164.79 32.7038L158.085 40.3655H184.308Z" fill="#C5C5C5"/>
<path fill-rule="evenodd" clip-rule="evenodd" d="M184.932 79.8112L184.932 59.3281L186.449 59.3281L186.449 79.8112L184.932 79.8112Z" fill="#C5C5C5"/>
<path fill-rule="evenodd" clip-rule="evenodd" d="M171.345 79.8112L171.345 59.3281L172.862 59.3281L172.862 79.8112L171.345 79.8112Z" fill="#C5C5C5"/>
<path fill-rule="evenodd" clip-rule="evenodd" d="M198.519 79.8112L198.519 59.3281L200.036 59.3281L200.036 79.8112L198.519 79.8112Z" fill="#C5C5C5"/>
<path fill-rule="evenodd" clip-rule="evenodd" d="M212.107 79.8112L212.107 59.3281L213.625 59.3281L213.625 79.8112L212.107 79.8112Z" fill="#C5C5C5"/>
<path fill-rule="evenodd" clip-rule="evenodd" d="M176.005 142.461L123.809 134.651C118.172 133.807 112.918 137.693 112.074 143.33C111.231 148.967 115.117 154.22 120.754 155.064L172.951 162.874C178.588 163.717 183.842 159.831 184.685 154.194C185.529 148.558 181.643 143.304 176.005 142.461ZM124.034 133.15C117.568 132.183 111.541 136.64 110.574 143.106C109.606 149.571 114.064 155.597 120.53 156.564L172.726 164.374C179.192 165.342 185.218 160.885 186.186 154.419C187.154 147.953 182.696 141.928 176.23 140.96L124.034 133.15Z" fill="#C5C5C5"/>
<path fill-rule="evenodd" clip-rule="evenodd" d="M141.722 139.528L154.486 142.2L154.175 143.685L141.679 141.069L122.76 143.95L122.532 142.45L141.722 139.528Z" fill="#C5C5C5"/>
<path fill-rule="evenodd" clip-rule="evenodd" d="M128.311 145.545L135.638 146.711L135.4 148.209L128.299 147.08L117.467 148.617L117.253 147.115L128.311 145.545Z" fill="#C5C5C5"/>
<path fill-rule="evenodd" clip-rule="evenodd" d="M150.551 156.441L142.684 153.343L143.24 151.931L150.783 154.902L162.631 154.005L162.745 155.518L150.551 156.441Z" fill="#C5C5C5"/>
<path fill-rule="evenodd" clip-rule="evenodd" d="M166.486 151.802C167.168 145.433 172.613 141.262 177.482 141.262V142.779C173.383 142.779 168.593 146.371 167.994 151.963C167.697 154.737 168.651 157.576 170.185 159.688C171.742 161.831 173.748 163.04 175.451 162.918L175.559 164.432C173.098 164.608 170.652 162.912 168.957 160.579C167.24 158.215 166.142 155.008 166.486 151.802Z" fill="#C5C5C5"/>
<path fill-rule="evenodd" clip-rule="evenodd" d="M179.265 157.33C180.78 156.051 181.69 154.567 181.69 153.349C181.69 151.911 181.014 150.2 179.969 148.829C178.882 147.403 177.705 146.73 176.936 146.73C176.005 146.73 174.697 147.317 173.574 148.436C172.469 149.537 171.76 150.94 171.76 152.293C171.76 153.896 172.191 155.775 172.919 157.217C173.695 158.756 174.533 159.307 175.131 159.307C175.567 159.307 176.213 159.154 176.986 158.797C177.742 158.449 178.54 157.942 179.265 157.33ZM175.131 160.631C177.922 160.631 183.014 156.953 183.014 153.349C183.014 149.746 179.728 145.406 176.936 145.406C174.144 145.406 170.437 148.69 170.437 152.293C170.437 155.897 172.339 160.631 175.131 160.631Z" fill="#C5C5C5"/>
<path fill-rule="evenodd" clip-rule="evenodd" d="M175.146 149.301L176.658 149.438L176.31 153.257L178.715 155.661L177.642 156.734L174.735 153.827L175.146 149.301Z" fill="#C5C5C5"/>
<path d="M77.6355 89.2689C77.4259 88.9662 77.1303 88.7342 76.7872 88.6033C76.5626 88.5063 76.3206 88.4566 76.0761 88.4573L59.1406 88.457C58.8962 88.4564 58.6542 88.5061 58.4297 88.6031C58.0866 88.734 57.7909 88.966 57.5813 89.2687C57.374 89.5628 57.2638 89.9148 57.2662 90.2751V111.2C57.2638 111.56 57.374 111.912 57.5813 112.206C57.7908 112.509 58.0866 112.741 58.4297 112.872C58.6542 112.969 58.8962 113.018 59.1406 113.018C59.6399 113.021 60.1207 112.829 60.4819 112.482L67.6084 105.599L74.7348 112.482C75.0983 112.823 75.5789 113.009 76.0759 113.001C76.3806 113.006 76.6817 112.935 76.9534 112.797C77.2251 112.658 77.4591 112.455 77.6355 112.206C77.8427 111.912 77.9529 111.56 77.9504 111.2V90.2753C77.9528 89.915 77.8427 89.563 77.6355 89.2689Z" fill="#F8BAB2"/>
<g clip-path="url(#clip1_1163_22899)">
<path fill-rule="evenodd" clip-rule="evenodd" d="M53.297 123.416H11.3296V221.413H53.297V123.416ZM9.65088 121.727V223.103H54.9757V121.727H9.65088Z" fill="#C5C5C5"/>
<path fill-rule="evenodd" clip-rule="evenodd" d="M53.7172 133.553H10.4907V131.863H53.7172V133.553Z" fill="#C5C5C5"/>
<path fill-rule="evenodd" clip-rule="evenodd" d="M53.7165 212.963H10.9097V211.273H53.7165V212.963Z" fill="#C5C5C5"/>
<path fill-rule="evenodd" clip-rule="evenodd" d="M40.7069 112.432H23.9199V121.725H40.7069V112.432ZM22.2412 110.742V123.414H42.3856V110.742H22.2412Z" fill="#C5C5C5"/>
<path fill-rule="evenodd" clip-rule="evenodd" d="M40.7069 223.1H23.9199V232.393H40.7069V223.1ZM22.2412 221.41V234.082H42.3856V221.41H22.2412Z" fill="#C5C5C5"/>
<path fill-rule="evenodd" clip-rule="evenodd" d="M9.65033 144.533H3.77489V152.981H9.65033V144.533ZM2.09619 142.844V154.671H11.329V142.844H2.09619Z" fill="#C5C5C5"/>
<path fill-rule="evenodd" clip-rule="evenodd" d="M9.65033 200.287H3.77489V208.735H9.65033V200.287ZM2.09619 198.598V210.425H11.329V198.598H2.09619Z" fill="#C5C5C5"/>
<path fill-rule="evenodd" clip-rule="evenodd" d="M45.7417 176.64L45.7417 139.469L47.4204 139.469L47.4204 176.64L45.7417 176.64Z" fill="#C5C5C5"/>
<path fill-rule="evenodd" clip-rule="evenodd" d="M39.0278 186.777L39.0278 149.605L40.7065 149.605L40.7065 186.777L39.0278 186.777Z" fill="#C5C5C5"/>
</g>
<path d="M208.66 206.66C208.45 206.357 208.155 206.125 207.812 205.994C207.587 205.897 207.345 205.847 207.1 205.848L190.165 205.848C189.921 205.847 189.679 205.897 189.454 205.994C189.111 206.125 188.815 206.357 188.606 206.659C188.398 206.953 188.288 207.305 188.291 207.666V228.59C188.288 228.951 188.398 229.303 188.606 229.597C188.815 229.9 189.111 230.132 189.454 230.262C189.679 230.359 189.921 230.409 190.165 230.408C190.664 230.411 191.145 230.219 191.506 229.873L198.633 222.99L205.759 229.873C206.123 230.214 206.603 230.4 207.1 230.392C207.405 230.396 207.706 230.326 207.978 230.187C208.249 230.049 208.484 229.846 208.66 229.596C208.867 229.302 208.977 228.951 208.975 228.59V207.666C208.977 207.306 208.867 206.954 208.66 206.66Z" fill="#F8BAB2"/>
<g clip-path="url(#clip2_1163_22899)">
<path fill-rule="evenodd" clip-rule="evenodd" d="M146.702 246.883L157.562 248.335L163.825 255.722V260.455L164.699 260.534L177.654 266.286L180.34 276.475L183.392 275.491L200.227 283.751L204.314 291.573L200.191 302.096H103.671L101.041 289.283L112.486 278.178L115.533 279.844L116.471 270.975L125.216 264.399L130.573 263.56L136.129 249.807L146.702 246.883ZM132.178 263.309L136.811 262.583L141.728 265.962L152.864 259.455L162.431 260.327V256.236L156.847 249.649L146.799 248.306L137.162 250.971L132.178 263.309ZM143 266.836L147.004 269.588L164.981 271.751L169.064 280.109L179.011 276.903L176.478 267.292L164.345 261.905L153.182 260.888L143 266.836ZM169.684 281.377L173.658 289.513L168.408 300.698H199.241L202.784 291.656L199.204 284.805L183.284 276.994L169.684 281.377ZM166.867 300.698L172.112 289.525L164.063 273.048L138.625 269.987L123.37 284.131L132.429 289.084L133.451 300.698H166.867ZM132.052 300.698L131.106 289.953L112.719 279.897L102.56 289.754L104.808 300.698H132.052ZM122.079 283.424L138.151 268.523L144.016 269.229L136.48 264.049L125.774 265.726L117.793 271.728L116.858 280.569L122.079 283.424Z" fill="#C5C5C5"/>
<path d="M94.4827 302.093H208.078H209.472V300.695H93.0889V302.093H94.4827Z" fill="#C5C5C5"/>
<path fill-rule="evenodd" clip-rule="evenodd" d="M168.152 290.376L167.081 291.271L157.435 279.664L143.963 279.664L143.963 278.267H158.088L168.152 290.376Z" fill="#C5C5C5"/>
<path fill-rule="evenodd" clip-rule="evenodd" d="M140.463 259.148L141.533 260.042L146.523 254.039L153.475 254.039V252.641H145.87L140.463 259.148Z" fill="#C5C5C5"/>
<path fill-rule="evenodd" clip-rule="evenodd" d="M107.956 295.558L109.33 295.796L110.657 288.095L116.678 284.61L115.981 283.4L109.395 287.212L107.956 295.558Z" fill="#C5C5C5"/>
</g>
</g>
<defs>
<clipPath id="clip0_1163_22899">
<rect width="261" height="305" fill="white"/>
</clipPath>
<clipPath id="clip1_1163_22899">
<rect width="57.6506" height="160.361" fill="white" transform="translate(-3.14453 92.2305)"/>
</clipPath>
<clipPath id="clip2_1163_22899">
<rect width="132.072" height="146.735" fill="white" transform="translate(77.5664 200.191)"/>
</clipPath>
</defs>
</svg>
