<svg width="20" height="19" viewBox="0 0 20 19" fill="none" xmlns="http://www.w3.org/2000/svg">
<path d="M15.1722 4.41871C15.0642 4.26261 14.9117 4.14296 14.7348 4.07543C14.6189 4.02541 14.4941 3.99978 14.368 4.00011L5.63462 4C5.50858 3.99966 5.38381 4.02529 5.26802 4.07531C5.09108 4.14284 4.93857 4.26249 4.83049 4.41859C4.72361 4.57026 4.66677 4.7518 4.66799 4.93763V15.729C4.66679 15.9149 4.72362 16.0964 4.83049 16.2481C4.93856 16.4042 5.09107 16.5239 5.26802 16.5914C5.38381 16.6414 5.50858 16.667 5.63462 16.6667C5.89209 16.6681 6.14006 16.5691 6.32631 16.3905L10.0014 12.8406L13.6764 16.3905C13.8638 16.5662 14.1117 16.6621 14.368 16.6582C14.5251 16.6604 14.6804 16.6242 14.8205 16.5527C14.9606 16.4813 15.0813 16.3767 15.1722 16.2479C15.2791 16.0963 15.3359 15.9148 15.3346 15.729V4.93774C15.3359 4.75192 15.2791 4.57039 15.1722 4.41871V4.41871Z" fill="#EE523F"/>
</svg>
