<svg width="19" height="19" viewBox="0 0 19 19" fill="none" xmlns="http://www.w3.org/2000/svg">
<g clip-path="url(#clip0_531_1545)">
<path d="M16.2471 2.48897C14.642 0.883825 12.5077 -8.97763e-05 10.2378 6.83908e-09C9.86586 6.83908e-09 9.56445 0.301492 9.56445 0.673374C9.56445 1.04526 9.86594 1.34675 10.2378 1.34675C12.1481 1.34666 13.944 2.09051 15.2948 3.4413C16.6457 4.79209 17.3895 6.58811 17.3894 8.49842C17.3894 8.87031 17.6908 9.1718 18.0628 9.1718C18.4347 9.1718 18.7362 8.87031 18.7362 8.49851C18.7363 6.22835 17.8523 4.09411 16.2471 2.48897Z" fill="#C7C7C7"/>
<path d="M13.4771 8.50001C13.4771 8.87189 13.7786 9.17338 14.1506 9.17329C14.5225 9.17329 14.8239 8.8718 14.8239 8.49992C14.8237 5.97162 12.7664 3.91442 10.2379 3.91406C10.2378 3.91406 10.2379 3.91406 10.2378 3.91406C9.86594 3.91406 9.56454 4.21546 9.56445 4.58735C9.56445 4.95923 9.86586 5.26072 10.2377 5.26081C12.0238 5.26108 13.4769 6.71413 13.4771 8.50001Z" fill="#C7C7C7"/>
<path d="M11.9869 11.9329C10.9605 11.8797 10.4376 12.6431 10.1868 13.0097C9.97684 13.3167 10.0555 13.7357 10.3625 13.9457C10.6694 14.1557 11.0884 14.0771 11.2984 13.7701C11.5947 13.3369 11.729 13.2688 11.911 13.2774C12.4938 13.3459 14.7891 15.0279 15.019 15.5538C15.0766 15.7087 15.0745 15.8605 15.0126 16.0452C14.7716 16.7604 14.3727 17.263 13.8588 17.4986C13.3706 17.7224 12.772 17.7022 12.1281 17.4402C9.72401 16.4603 7.62362 15.0928 5.88542 13.3756C5.8847 13.3749 5.88399 13.3743 5.88336 13.3735C4.16976 11.637 2.80478 9.53934 1.8265 7.1389C1.56443 6.49453 1.54414 5.89585 1.76797 5.4077C2.00356 4.89378 2.50616 4.49488 3.22075 4.25417C3.40606 4.19204 3.55761 4.19006 3.71105 4.24717C4.23889 4.47782 5.9208 6.77303 5.98867 7.34926C5.99837 7.53817 5.92969 7.6723 5.49684 7.96805C5.18978 8.17778 5.11086 8.5968 5.32069 8.90386C5.53042 9.21092 5.94935 9.28975 6.2565 9.08001C6.62335 8.82952 7.38651 8.30806 7.33353 7.27815C7.27518 6.20237 5.18251 3.35346 4.18259 2.9858C3.7379 2.82006 3.27013 2.81719 2.79176 2.97772C1.71544 3.34018 0.938101 3.98644 0.543773 4.84656C0.161297 5.681 0.173418 6.64913 0.579237 7.6468C1.6262 10.2157 3.09101 12.4634 4.93291 14.3277C4.9374 14.3323 4.94198 14.3368 4.94665 14.3412C6.80965 16.1797 9.05477 17.6418 11.6202 18.6875C12.134 18.8965 12.6399 19.0011 13.1237 19.0011C13.5793 19.0011 14.0155 18.9084 14.42 18.7229C15.2802 18.3287 15.9264 17.5514 16.2891 16.4744C16.4493 15.9969 16.4467 15.5293 16.2822 15.0867C15.9133 14.0841 13.0644 11.9914 11.9869 11.9329Z" fill="#C7C7C7"/>
</g>
<defs>
<clipPath id="clip0_531_1545">
<rect width="19" height="19" fill="white"/>
</clipPath>
</defs>
</svg>
