<svg width="75" height="20" viewBox="0 0 75 20" fill="none" xmlns="http://www.w3.org/2000/svg">
<g opacity="0.8">
<path d="M71.7116 7.33242L65.9997 12.3657L60.2866 7.33235C60.0591 7.13193 59.7123 7.15396 59.512 7.3813C59.3117 7.60871 59.3335 7.95547 59.561 8.15588L65.637 13.5089C65.7407 13.6003 65.8703 13.6459 65.9998 13.6459C66.1293 13.6459 66.259 13.6003 66.3626 13.5089L72.4374 8.15581C72.6647 7.95547 72.6866 7.60864 72.4863 7.38123C72.2858 7.15403 71.9391 7.13208 71.7116 7.33242Z" fill="#999999"/>
<path d="M73.1719 5H58.826C57.9183 5 57.1797 5.73851 57.1797 6.64633V15.3537C57.1797 16.2616 57.9183 17.0001 58.826 17.0001H73.1719C74.0796 17.0001 74.8182 16.2616 74.8182 15.3537V6.64633C74.8182 5.73858 74.0796 5 73.1719 5ZM73.7206 15.3537C73.7206 15.6563 73.4745 15.9025 73.1719 15.9025H58.826C58.5234 15.9025 58.2772 15.6563 58.2772 15.3537V6.64633C58.2772 6.34377 58.5234 6.09755 58.826 6.09755H73.1719C73.4745 6.09755 73.7206 6.34377 73.7206 6.64633V15.3537Z" fill="#999999"/>
</g>
<g opacity="0.8">
<path d="M34.3895 4.35797C32.8689 2.83731 30.847 1.99991 28.6965 2C28.3441 2 28.0586 2.28562 28.0586 2.63793C28.0586 2.99024 28.3442 3.27587 28.6965 3.27587C30.5062 3.27578 32.2076 3.98048 33.4873 5.26018C34.7671 6.53987 35.4718 8.24137 35.4717 10.0511C35.4717 10.4034 35.7573 10.6891 36.1096 10.6891C36.462 10.6891 36.7476 10.4034 36.7476 10.0512C36.7477 7.90054 35.9103 5.87863 34.3895 4.35797Z" fill="#999999"/>
<path d="M31.7653 10.0477C31.7653 10.4 32.0509 10.6856 32.4033 10.6856C32.7557 10.6856 33.0412 10.3999 33.0412 10.0476C33.041 7.65239 31.092 5.70347 28.6966 5.70312C28.6965 5.70312 28.6966 5.70312 28.6965 5.70312C28.3442 5.70312 28.0587 5.98866 28.0586 6.34097C28.0586 6.69328 28.3441 6.97891 28.6964 6.97899C30.3885 6.97925 31.7652 8.35582 31.7653 10.0477Z" fill="#999999"/>
<path d="M30.3544 13.2991C29.382 13.2487 28.8866 13.9719 28.649 14.3193C28.4501 14.6101 28.5246 15.007 28.8154 15.206C29.1062 15.4049 29.5032 15.3304 29.7021 15.0396C29.9828 14.6292 30.11 14.5646 30.2825 14.5728C30.8346 14.6377 33.0091 16.2312 33.2269 16.7294C33.2815 16.8762 33.2794 17.02 33.2208 17.195C32.9925 17.8725 32.6146 18.3487 32.1277 18.5719C31.6652 18.7839 31.0981 18.7647 30.4882 18.5165C28.2106 17.5882 26.2207 16.2927 24.574 14.6659C24.5733 14.6652 24.5727 14.6646 24.5721 14.6639C22.9486 13.0188 21.6555 11.0315 20.7287 8.75741C20.4804 8.14695 20.4612 7.57979 20.6733 7.11733C20.8965 6.63046 21.3726 6.25255 22.0496 6.02451C22.2251 5.96565 22.3687 5.96378 22.5141 6.01787C23.0141 6.23639 24.6075 8.4108 24.6718 8.9567C24.681 9.13566 24.616 9.26274 24.2059 9.54292C23.915 9.74162 23.8402 10.1386 24.039 10.4295C24.2377 10.7204 24.6346 10.7951 24.9256 10.5964C25.2731 10.359 25.9961 9.86503 25.9459 8.88934C25.8906 7.87018 23.9081 5.17121 22.9608 4.8229C22.5395 4.66588 22.0964 4.66316 21.6432 4.81524C20.6235 5.15862 19.8871 5.77087 19.5135 6.58572C19.1512 7.37625 19.1626 8.29342 19.5471 9.23858C20.539 11.6723 21.9267 13.8017 23.6716 15.5679C23.6759 15.5722 23.6802 15.5765 23.6847 15.5807C25.4496 17.3224 27.5766 18.7076 30.007 19.6982C30.4937 19.8961 30.973 19.9952 31.4314 19.9952C31.863 19.9952 32.2762 19.9075 32.6594 19.7317C33.4744 19.3582 34.0865 18.6219 34.4302 17.6015C34.5819 17.1492 34.5794 16.7062 34.4236 16.2869C34.0741 15.3371 31.3751 13.3545 30.3544 13.2991Z" fill="#999999"/>
</g>
<g opacity="0.8">
<path d="M47.0002 2C42.5889 2 39 5.58883 39 10.0001C39 14.4117 42.5889 18.0007 47.0002 18.0007C51.4115 18.0007 55.0003 14.4116 55.0003 10.0001C55.0003 5.58883 51.4115 2 47.0002 2ZM47.0002 16.8538C43.2213 16.8538 40.1468 13.7792 40.1468 10.0001C40.1468 6.2212 43.2213 3.14684 47.0002 3.14684C50.7791 3.14684 53.8535 6.2212 53.8535 10.0001C53.8535 13.7792 50.7791 16.8538 47.0002 16.8538Z" fill="#999999"/>
<path d="M51.1135 9.87057H47.3539V5.76092C47.3539 5.44424 47.0972 5.1875 46.7804 5.1875C46.4638 5.1875 46.207 5.44424 46.207 5.76092V10.444C46.207 10.7607 46.4638 11.0174 46.7804 11.0174H51.1135C51.4303 11.0174 51.6869 10.7607 51.6869 10.444C51.6869 10.1273 51.4302 9.87057 51.1135 9.87057Z" fill="#999999"/>
</g>
<g opacity="0.8">
<path d="M8.99872 2C5.17403 2 2.0625 5.11194 2.0625 8.93705C2.0625 11.6703 3.20679 14.435 5.37168 16.9324C6.98863 18.7978 8.59106 19.8546 8.65855 19.8987C8.76185 19.9663 8.88033 20 8.9988 20C9.1172 20 9.23567 19.9663 9.33906 19.8987C9.40646 19.8546 11.0091 18.7978 12.6261 16.9325C14.7911 14.435 15.9355 11.6703 15.9355 8.93705C15.9354 5.11194 12.8236 2 8.99872 2ZM8.99872 18.6147C7.72302 17.6641 3.30612 14.0055 3.30612 8.93705C3.30612 5.79767 5.85975 3.24362 8.99872 3.24362C12.1379 3.24362 14.6918 5.79767 14.6918 8.93705C14.6918 14.0055 10.2745 17.6641 8.99872 18.6147Z" fill="#999999"/>
<path d="M8.99913 6.1875C7.48109 6.1875 6.24609 7.42258 6.24609 8.94078C6.24609 10.4586 7.48109 11.6934 8.99913 11.6934C10.5172 11.6934 11.7521 10.4586 11.7521 8.94078C11.7521 7.42266 10.5171 6.1875 8.99913 6.1875ZM8.99913 10.4498C8.16682 10.4498 7.48971 9.77284 7.48971 8.94078C7.48971 8.1083 8.16682 7.43111 8.99913 7.43111C9.83135 7.43111 10.5085 8.1083 10.5085 8.94078C10.5085 9.77284 9.83135 10.4498 8.99913 10.4498Z" fill="#999999"/>
</g>
</svg>
