<svg width="155" height="38" viewBox="0 0 155 38" fill="none" xmlns="http://www.w3.org/2000/svg">
<g opacity="0.8" clip-path="url(#clip0_738_665)">
<path d="M115.917 29.8027L113.594 26.0453C113.54 25.96 113.465 25.8896 113.374 25.841C113.284 25.7923 113.182 25.7671 113.079 25.7678C112.975 25.7685 112.874 25.7951 112.784 25.8449C112.695 25.8948 112.62 25.9662 112.567 26.0522L111.646 27.5945L108.166 26.1867V13.2201C108.165 13.1071 108.13 12.9969 108.065 12.9029C108 12.8089 107.908 12.7351 107.801 12.6904L97.5952 8.56575V6.73297H99.2103C99.3138 6.73268 99.4155 6.70637 99.5052 6.65664C99.595 6.6069 99.6698 6.53546 99.7222 6.44934C99.7747 6.36322 99.803 6.26541 99.8043 6.16553C99.8057 6.06565 99.78 5.96716 99.7299 5.87975L97.5197 2.05962C97.468 1.97046 97.3926 1.89622 97.3012 1.84454C97.2099 1.79287 97.106 1.76562 97.0001 1.76562C96.8942 1.76562 96.7903 1.79287 96.6989 1.84454C96.6076 1.89622 96.5322 1.97046 96.4805 2.05962L94.2702 5.87975C94.2201 5.96716 94.1945 6.06565 94.1959 6.16553C94.1972 6.26541 94.2255 6.36322 94.2779 6.44934C94.3304 6.53546 94.4052 6.6069 94.4949 6.65664C94.5847 6.70637 94.6863 6.73268 94.7898 6.73297H96.405V8.56575L86.199 12.6904C86.0921 12.7359 86.0009 12.8099 85.9362 12.9037C85.8715 12.9976 85.836 13.1074 85.8338 13.2201V26.1867L82.3542 27.5929L81.4327 26.0505C81.3807 25.9639 81.3062 25.8918 81.2166 25.8415C81.1269 25.7912 81.0252 25.7644 80.9214 25.7637C80.8177 25.763 80.7156 25.7884 80.6252 25.8375C80.5348 25.8866 80.4593 25.9577 80.4061 26.0436L78.0829 29.8011C78.0291 29.8882 78.0002 29.9875 77.9991 30.0889C77.9979 30.1903 78.0246 30.2901 78.0764 30.3783C78.1282 30.4665 78.2033 30.5399 78.2941 30.5911C78.3848 30.6422 78.4879 30.6692 78.593 30.6694H78.6039L83.1373 30.6064C83.241 30.6049 83.3425 30.5773 83.4318 30.5263C83.521 30.4753 83.5949 30.4027 83.6461 30.3156C83.6974 30.2286 83.7241 30.1302 83.7238 30.0301C83.7235 29.93 83.6961 29.8317 83.6443 29.745L82.9557 28.5941L86.4299 27.1899L96.7672 31.3677H96.7699C96.7729 31.3677 96.7763 31.3677 96.7797 31.3707C96.9207 31.4263 97.0787 31.4263 97.2198 31.3707C97.2228 31.3707 97.2262 31.3707 97.2296 31.3677H97.2323L107.57 27.1899L111.044 28.5941L110.356 29.745C110.304 29.8317 110.277 29.9299 110.276 30.03C110.276 30.13 110.303 30.2284 110.354 30.3154C110.405 30.4023 110.479 30.4749 110.568 30.526C110.657 30.577 110.759 30.6047 110.862 30.6064L115.396 30.6694H115.404C115.509 30.6695 115.613 30.6428 115.704 30.5919C115.794 30.5411 115.87 30.4679 115.922 30.3799C115.974 30.2919 116.001 30.1921 116 30.0907C115.999 29.9893 115.971 29.89 115.917 29.8027V29.8027ZM97.0001 3.51633L98.1967 5.58375H95.8035L97.0001 3.51633ZM79.6512 29.5067L80.9094 27.4721L82.106 29.4719L79.6512 29.5067ZM97.5952 21.9147V17.8741L106.976 14.0831V25.7056L97.5952 21.9147ZM106.031 13.2184L97.5952 16.629V9.81113L106.031 13.2184ZM96.405 9.81113V16.629L87.9696 13.2201L96.405 9.81113ZM87.024 14.0831L96.405 17.8741V21.9147L87.024 25.7056V14.0831ZM96.405 23.1601V29.9786L87.9696 26.569L96.405 23.1601ZM97.5952 29.978V23.1601L106.031 26.569L97.5952 29.978ZM111.895 29.4736L113.091 27.4738L114.349 29.5084L111.895 29.4736Z" fill="#EE523F"/>
</g>
<g opacity="0.8">
<path d="M148.629 27.6802V11.8749C149.14 11.7465 149.584 11.4427 149.879 11.0204C150.175 10.5982 150.3 10.0866 150.232 9.5815C150.164 9.07639 149.908 8.61248 149.511 8.27676C149.114 7.94104 148.604 7.75655 148.076 7.75788H146.956V7.15327C146.955 6.41299 146.651 5.70317 146.108 5.17969C145.566 4.65621 144.83 4.36187 144.063 4.36133H127.937C127.17 4.36187 126.434 4.65621 125.892 5.17969C125.35 5.70317 125.045 6.41299 125.044 7.15327V7.75788H123.924C123.396 7.75655 122.886 7.94104 122.489 8.27676C122.092 8.61248 121.836 9.07639 121.768 9.5815C121.7 10.0866 121.826 10.5982 122.121 11.0204C122.416 11.4427 122.861 11.7465 123.371 11.8749V27.6802C122.933 27.7087 122.523 27.8965 122.223 28.2057C121.923 28.5149 121.755 28.9225 121.754 29.3461V31.3426C121.754 31.4791 121.811 31.61 121.911 31.7065C122.011 31.803 122.146 31.8572 122.288 31.8572H149.712C149.854 31.8572 149.99 31.803 150.09 31.7065C150.19 31.61 150.246 31.4791 150.246 31.3426V29.3461C150.245 28.9225 150.078 28.5149 149.777 28.2057C149.477 27.8965 149.067 27.7087 148.629 27.6802V27.6802ZM135.636 27.6605C135.459 27.6705 135.28 27.6673 135.103 27.6508C134.463 27.5538 134.162 27.1415 134.162 26.3722C134.162 25.6608 134.891 24.7104 135.423 24.1334C135.955 24.7104 136.684 25.6608 136.684 26.3722C136.684 27.1821 136.347 27.5935 135.636 27.6605V27.6605ZM137.707 26.9147C137.737 26.7354 137.752 26.5539 137.752 26.3722C137.752 24.8703 135.993 23.2018 135.792 23.0162C135.693 22.9246 135.561 22.8735 135.424 22.8735C135.286 22.8735 135.154 22.9246 135.055 23.0162C134.854 23.2018 133.096 24.8689 133.096 26.3722C133.096 26.503 133.105 26.6337 133.121 26.7636C132.952 26.6119 132.799 26.4451 132.664 26.2654C132.329 25.8049 132.1 25.2807 131.992 24.7279C131.885 24.1751 131.9 23.6064 132.039 23.06C132.463 21.005 134.565 19.2203 135.756 18.3534C135.892 19.7779 136.701 20.6245 137.432 21.3879C138.133 22.1205 138.795 22.8121 138.895 24.0052C138.96 24.4993 138.907 25.0013 138.74 25.4727C138.574 25.9441 138.298 26.3727 137.934 26.7256C137.862 26.7936 137.784 26.8545 137.707 26.9147V26.9147ZM138.675 27.467C139.157 27.0106 139.523 26.4533 139.746 25.8383C139.968 25.2233 140.041 24.5671 139.959 23.9205C139.827 22.3742 138.971 21.4797 138.216 20.6895C137.369 19.8049 136.639 19.0406 136.835 17.415C136.847 17.319 136.83 17.2219 136.787 17.1346C136.744 17.0474 136.677 16.9735 136.592 16.9216C136.508 16.8696 136.41 16.8416 136.31 16.8407C136.21 16.8399 136.112 16.8663 136.026 16.9168C135.848 17.0212 131.678 19.5276 130.991 22.8586C130.829 23.5448 130.817 24.2562 130.956 24.9472C131.095 25.6381 131.383 26.2934 131.8 26.8709C132.026 27.1687 132.289 27.4386 132.584 27.6743H129.202V21.0459C129.203 19.5014 129.84 18.0208 130.972 16.9288C132.104 15.8368 133.638 15.2227 135.238 15.2212H136.762C138.362 15.2227 139.897 15.8368 141.028 16.9288C142.16 18.0208 142.797 19.5014 142.799 21.0459V27.6743H138.427C138.512 27.6079 138.596 27.5402 138.674 27.467H138.675ZM136.762 14.1919H135.238C133.355 14.1936 131.55 14.9163 130.218 16.2012C128.886 17.4862 128.137 19.2285 128.135 21.0459V27.6743H124.438V11.9458H147.562V27.6743H143.865V21.0459C143.863 19.2286 143.114 17.4863 141.782 16.2013C140.451 14.9164 138.645 14.1937 136.762 14.1919V14.1919ZM126.111 7.15327C126.111 6.68597 126.304 6.23794 126.646 5.90748C126.988 5.57703 127.453 5.39113 127.937 5.39059H144.063C144.547 5.39113 145.012 5.57703 145.354 5.90748C145.696 6.23794 145.889 6.68597 145.889 7.15327V7.75788H126.111V7.15327ZM122.82 9.85198C122.82 9.56979 122.936 9.29925 123.143 9.09968C123.35 8.90012 123.63 8.78782 123.923 8.78743H148.075C148.368 8.78743 148.648 8.89959 148.855 9.09923C149.062 9.29888 149.178 9.56965 149.178 9.85198C149.178 10.1343 149.062 10.4051 148.855 10.6047C148.648 10.8044 148.368 10.9165 148.075 10.9165H123.924C123.631 10.9161 123.351 10.8038 123.144 10.6043C122.938 10.4047 122.821 10.1342 122.821 9.85198H122.82ZM149.178 30.828H122.821V29.3461C122.821 29.1758 122.891 29.0124 123.016 28.892C123.141 28.7715 123.31 28.7037 123.487 28.7036H148.513C148.69 28.7037 148.859 28.7715 148.984 28.8919C149.109 29.0124 149.179 29.1757 149.179 29.3461L149.178 30.828Z" fill="#EE523F"/>
</g>
<g opacity="0.8">
<path d="M6.51751 34.4325C6.50735 34.4428 6.52835 34.4229 6.51751 34.4325V34.4325Z" fill="#EE523F"/>
<path d="M34.9789 15.6912C34.933 15.5199 34.8144 15.3735 34.6534 15.2895C34.4161 15.1658 33.9973 14.9646 33.4599 14.7764C34.6467 13.2175 34.8949 11.2105 34.9444 10.578C34.9589 10.3946 34.8923 10.2142 34.762 10.0831C34.6318 9.95217 34.4478 9.87949 34.2579 9.88702C34.1631 9.88974 34.04 9.88039 33.8971 9.86911C33.5754 9.84366 33.1666 9.81145 32.6662 9.88395C33.4595 8.51638 33.6819 6.89162 33.7387 5.89446C33.7492 5.71097 33.6789 5.53207 33.5458 5.40366C33.4127 5.27524 33.2274 5.20733 33.0372 5.21752C32.004 5.27241 30.3205 5.48696 28.9034 6.25256C28.9786 5.7696 28.9451 5.37507 28.9188 5.06462C28.9071 4.92673 28.897 4.80755 28.9002 4.71635C28.9067 4.53292 28.8326 4.35565 28.697 4.23001C28.5613 4.10419 28.3748 4.03989 28.1842 4.05382C27.5287 4.10166 25.4491 4.3413 23.8338 5.48654C23.6388 4.96781 23.4303 4.56374 23.3021 4.33472C23.2151 4.1794 23.0635 4.06498 22.886 4.02059C22.7038 3.97499 22.5067 4.00593 22.3455 4.10546C21.6715 4.5211 19.6582 5.89675 18.9091 7.88498C18.3651 7.16962 17.7807 6.65898 17.4973 6.42995C17.3587 6.31801 17.1822 6.26625 17.0007 6.28387C16.8161 6.30184 16.6431 6.3934 16.5264 6.53491C16.2709 6.84445 15.7785 7.48767 15.3507 8.31806C14.983 9.03167 14.745 9.72212 14.6387 10.3808C14.1986 10.07 13.8071 9.85319 13.5667 9.7305C13.2349 9.56107 12.8192 9.68846 12.64 10.0143C12.4401 10.3778 12.0665 11.1247 11.8093 12.044C11.5743 12.8835 11.492 13.6637 11.5626 14.374C11.3238 14.3014 11.1285 14.252 10.9999 14.2221C10.6394 14.1382 10.2673 14.3544 10.1707 14.704C10.0164 15.2625 9.721 16.5764 9.8945 17.9473C9.74663 17.9182 9.61875 17.8968 9.51594 17.8813C9.14881 17.8266 8.79693 18.0726 8.73181 18.4306C8.57324 19.3041 8.19293 22.2916 9.95669 24.0563C10.1672 24.2669 10.3886 24.4433 10.6186 24.5859L3.46533 31.4893C2.84489 32.088 2.84489 33.0623 3.46533 33.661L4.26471 34.4325C4.56528 34.7226 4.96478 34.8822 5.38985 34.8822C5.3901 34.8822 5.39041 34.8822 5.39066 34.8822C5.81597 34.882 6.21566 34.7218 6.5161 34.4313L13.663 27.5207C13.8118 27.7461 13.9965 27.9628 14.2178 28.1688C15.3717 29.2428 17.0296 29.493 18.3236 29.493C19.0804 29.493 19.7131 29.4073 20.0471 29.3508C20.4181 29.2881 20.6736 28.9487 20.6163 28.594C20.6003 28.4949 20.5781 28.3714 20.548 28.2287C21.9683 28.3962 23.3299 28.111 23.9087 27.9622C24.2709 27.8689 24.4949 27.5099 24.4079 27.1619C24.3769 27.0379 24.3257 26.8493 24.2505 26.6189C24.9867 26.687 25.7951 26.6075 26.6649 26.3808C27.6173 26.1326 28.3914 25.7721 28.7683 25.5791C29.1058 25.4061 29.2378 25.0049 29.0623 24.6848C28.9351 24.4528 28.7104 24.0749 28.3883 23.6502C29.0709 23.5477 29.7863 23.3179 30.5258 22.9631C31.3862 22.5503 32.0527 22.0751 32.3735 21.8287C32.5202 21.7159 32.615 21.549 32.6337 21.3707C32.652 21.1953 32.5982 21.025 32.4824 20.8916C32.245 20.618 31.7159 20.0541 30.9747 19.5291C33.0349 18.8061 34.4602 16.8631 34.891 16.2128C34.9941 16.0571 35.0261 15.867 34.9789 15.6912ZM9.62606 18.8288C9.82713 18.8664 10.0782 18.9213 10.3606 19.0003C10.5237 19.046 10.6996 19.0038 10.8218 18.8901C10.944 18.7762 10.9938 18.608 10.9523 18.4491C10.6249 17.1947 10.8729 15.8146 11.0264 15.1746C11.2739 15.2415 11.6166 15.3468 11.997 15.5002C12.1652 15.568 12.359 15.5367 12.4952 15.4197C12.6314 15.3026 12.6858 15.1204 12.6353 14.9513C12.4099 14.1976 12.4399 13.2997 12.7245 12.2827C12.9135 11.6074 13.1719 11.0345 13.3595 10.6663C13.6938 10.8538 14.2209 11.1821 14.7297 11.6344C14.8702 11.7594 15.0748 11.7907 15.2485 11.7138C15.4222 11.637 15.5311 11.467 15.5247 11.2826C15.4677 9.63918 16.5651 8.00833 17.1026 7.31233C17.5258 7.68376 18.2215 8.37868 18.6894 9.27843C18.7422 9.37988 18.8307 9.45443 18.9341 9.49533C18.5088 10.061 18.0035 10.8529 17.6704 11.7713C17.5609 11.6243 17.4664 11.5073 17.3973 11.4248C17.2839 11.2895 17.1151 11.2039 16.9341 11.1899C16.7481 11.1757 16.5594 11.2372 16.4179 11.3594C15.7962 11.8966 13.9161 13.6843 13.6249 15.8585C13.4485 15.7624 13.2954 15.6859 13.1742 15.6284C13.0033 15.5471 12.8052 15.5393 12.6306 15.6072C12.4561 15.675 12.3188 15.8129 12.2538 15.9859C12.0332 16.5734 11.3667 18.6095 11.8628 20.5552C11.6658 21.2251 11.5748 21.9527 11.683 22.7042C11.6983 22.8104 11.7171 22.9153 11.7392 23.0177C11.5968 23.2881 11.505 23.5444 11.449 23.7844L11.3116 23.917C11.0803 23.8029 10.8548 23.6374 10.6389 23.4213C9.31244 22.0937 9.48088 19.8009 9.62606 18.8288ZM13.9748 17.1093C13.9354 17.136 13.8987 17.1669 13.8657 17.2019C13.6055 17.4776 13.098 18.0587 12.6328 18.8348C12.6622 17.9097 12.8835 17.078 13.0422 16.5929C13.2472 16.7007 13.5128 16.8507 13.8036 17.0405C13.8563 17.0749 13.9147 17.0974 13.9748 17.1093ZM5.84497 33.7849C5.72354 33.9024 5.56203 33.967 5.39016 33.9671C5.39003 33.9671 5.38991 33.9671 5.38985 33.9671C5.21809 33.9671 5.05659 33.9026 4.93515 33.7854L4.13577 33.0139C4.01434 32.8967 3.94746 32.7408 3.94746 32.5751C3.94746 32.4093 4.01434 32.2535 4.13577 32.1364L4.65559 31.6347L6.36385 33.2833L5.84497 33.7849ZM7.03367 32.6355L5.3261 30.9876L6.1016 30.2392L7.80843 31.8864L7.03367 32.6355ZM8.47824 31.2387L6.77204 29.5921L7.96655 28.4393L9.67157 30.0848L8.47824 31.2387ZM10.3414 29.4371L8.63706 27.7923L9.41256 27.0438L11.1162 28.688L10.3414 29.4371ZM11.7861 28.0403L10.0831 26.3968L11.4705 25.0579C11.4809 25.0948 11.4917 25.1307 11.5031 25.1649C11.6878 25.72 12.0128 26.042 12.0463 26.0741L12.0464 26.0742C12.0464 26.0742 12.0465 26.0742 12.0465 26.0742L12.0465 26.0743C12.0823 26.1091 12.4036 26.4112 12.9574 26.5914C13.033 26.616 13.1159 26.6387 13.2045 26.6584C13.2073 26.659 13.2101 26.6598 13.213 26.6605L11.7861 28.0403ZM13.0175 25.6251C13.0103 25.6215 13.0033 25.6179 12.9963 25.6143C12.9895 25.6107 12.9827 25.6072 12.9761 25.6037C12.967 25.5988 12.958 25.5939 12.9494 25.589C12.946 25.5871 12.9427 25.5852 12.9393 25.5833C12.8228 25.5169 12.7496 25.4561 12.725 25.4345C12.7247 25.4343 12.7244 25.434 12.7242 25.4338C12.7225 25.4324 12.7213 25.4313 12.7201 25.4302C12.7195 25.4296 12.7189 25.429 12.7185 25.4286C12.6901 25.3996 12.4618 25.1557 12.3672 24.7463C12.367 24.7455 12.3668 24.7446 12.3666 24.7438C12.3582 24.7072 12.3509 24.6692 12.3448 24.63C12.3445 24.6278 12.3443 24.6256 12.344 24.6236C12.3395 24.5931 12.3363 24.5614 12.3334 24.5295C12.332 24.5126 12.3307 24.4956 12.3298 24.4784C12.3288 24.4608 12.3285 24.4427 12.328 24.4247C12.3272 24.3875 12.3276 24.3494 12.3295 24.3103C12.33 24.2982 12.3305 24.2861 12.3313 24.2739C12.333 24.2482 12.3353 24.2221 12.3384 24.1957C12.3398 24.1836 12.3416 24.1713 12.3433 24.1591C12.3771 23.907 12.4689 23.6224 12.6535 23.3088C12.7139 23.2063 12.7309 23.0852 12.701 22.9709C12.6684 22.846 12.6419 22.7138 12.6224 22.5782C12.5305 21.9398 12.6148 21.315 12.7924 20.7361C12.8042 20.7083 12.8132 20.6794 12.8192 20.6497C13.1897 19.5102 13.914 18.5589 14.3542 18.053C14.5079 18.2363 14.7043 18.4861 14.9081 18.7866C15.0107 18.9378 15.1957 19.0167 15.3806 18.9876C15.5654 18.9587 15.7153 18.8275 15.7631 18.6528C15.8954 18.1695 16.4951 16.5335 18.7611 15.1647C18.8679 15.4265 19.0008 15.7913 19.1146 16.2215C19.1628 16.4039 19.322 16.5391 19.5156 16.5624C19.7091 16.5854 19.8978 16.4919 19.9908 16.3263C20.0706 16.1841 20.1657 16.0411 20.2733 15.9014C21.4821 14.3317 23.7549 13.9432 24.7965 13.8475C24.6972 14.8528 24.2947 17.0462 22.6682 18.2127C22.512 18.3248 22.354 18.4217 22.1989 18.5008C22.025 18.5895 21.9259 18.7726 21.9498 18.961C21.9738 19.1494 22.1157 19.304 22.3067 19.3496C22.779 19.4622 23.1805 19.5978 23.4664 19.7063C23.3224 19.9241 23.1178 20.2119 22.858 20.5222C22.6727 20.7437 22.4785 20.9537 22.2807 21.1463C21.9771 21.4423 21.6608 21.7014 21.3408 21.9166C20.8566 22.2422 20.3562 22.4722 19.8536 22.6004C19.6726 22.6465 19.5366 22.7912 19.5067 22.9695C19.4768 23.1479 19.5583 23.3266 19.715 23.4255C20.0265 23.6224 20.2853 23.8119 20.4751 23.9601C19.9566 24.3804 18.9861 25.0688 17.8223 25.4298C17.7938 25.4358 17.7662 25.4442 17.7396 25.455C17.1273 25.6351 16.4641 25.7225 15.7862 25.6315C15.5755 25.6033 15.377 25.5609 15.1961 25.5055C15.075 25.4685 14.9435 25.4799 14.8311 25.5372C13.9972 25.9628 13.365 25.7987 13.0175 25.6251ZM21.3567 24.4315C21.385 24.4066 21.4102 24.3792 21.4333 24.3505C21.4467 24.3873 21.4643 24.4229 21.4877 24.4562C21.6843 24.7367 21.8397 24.993 21.9515 25.191C21.4682 25.3381 20.6503 25.5423 19.7334 25.5825C20.5031 25.1443 21.0793 24.6753 21.3567 24.4315ZM30.142 18.8107C30.2008 18.7153 30.2342 18.6065 30.2366 18.4947C30.2405 18.3153 30.1647 18.1414 30.0288 18.0175C29.8257 17.8323 29.371 17.4419 28.7482 17.0465C30.464 16.0953 31.5309 14.3978 31.8482 13.8389C31.9399 13.6775 31.9565 13.4866 31.8939 13.3152C31.8313 13.1441 31.6946 13.0058 31.5189 12.9359C31.1847 12.8028 30.5851 12.5898 29.8367 12.4352C30.8172 10.904 30.9983 9.08421 31.0313 8.50721C31.0417 8.32373 30.9714 8.14489 30.8384 8.01653C30.7053 7.88812 30.5202 7.82032 30.3298 7.83033C29.732 7.862 27.8463 8.03686 26.2598 8.98317C26.0996 8.26082 25.8788 7.6822 25.7409 7.3598C25.6684 7.19013 25.5252 7.05822 25.3479 6.9979C25.1702 6.93752 24.9724 6.95345 24.8052 7.04193C24.5361 7.18422 24.1147 7.42651 23.6354 7.77285C23.4259 7.92431 23.3831 8.21106 23.54 8.41336C23.697 8.6156 23.994 8.6568 24.2037 8.5054C24.4998 8.29146 24.7721 8.12167 24.9811 8.00001C25.1346 8.40691 25.3487 9.07244 25.4501 9.83606C25.472 10.0014 25.5854 10.1422 25.7459 10.2034C25.9064 10.2645 26.0889 10.2369 26.2221 10.1308C27.4805 9.12806 29.2196 8.84656 30.0596 8.76796C29.9782 9.57868 29.6864 11.257 28.6475 12.4714C28.5375 12.5999 28.5086 12.776 28.5722 12.931C28.6357 13.0859 28.7815 13.1953 28.9528 13.2165C29.7442 13.3143 30.4338 13.5209 30.8555 13.6691C30.3798 14.4316 29.2408 15.9863 27.5709 16.5712C27.3938 16.6332 27.2716 16.7906 27.2595 16.972C27.2474 17.1535 27.3479 17.3246 27.5153 17.408C28.227 17.7621 28.7992 18.192 29.1395 18.4756C28.526 18.9506 27.1942 19.8558 25.6928 20.0968C25.4934 20.1288 25.3369 20.2794 25.3032 20.4718C25.2694 20.6641 25.3658 20.856 25.5432 20.9496C25.9314 21.1544 26.2505 21.3636 26.4749 21.5237C26.2466 21.7538 25.9061 22.0728 25.4825 22.3982C25.2776 22.5555 25.2437 22.8434 25.4068 23.0411C25.5004 23.1546 25.6386 23.2137 25.7781 23.2137C25.8815 23.2137 25.9857 23.1811 26.073 23.1141C26.6954 22.6361 27.1557 22.1688 27.3747 21.9328C27.5013 21.7963 27.5653 21.6146 27.5503 21.4346C27.5356 21.26 27.4469 21.0971 27.3068 20.9877C27.2214 20.9211 27.1001 20.8298 26.9478 20.7241C27.8994 20.4026 28.72 19.915 29.3061 19.5046C29.3485 19.6044 29.4258 19.6898 29.5309 19.7407C30.4633 20.1924 31.1832 20.8637 31.5682 21.2721C30.847 21.7908 29.1585 22.8522 27.4541 22.7948C27.2631 22.7877 27.0869 22.8939 27.0073 23.0614C26.9276 23.229 26.96 23.4265 27.0895 23.5622C27.5581 24.0531 27.8984 24.5618 28.0928 24.8845C27.7111 25.0656 27.1174 25.315 26.4178 25.4973C25.3639 25.7719 24.4336 25.8009 23.6527 25.5834C23.4774 25.5346 23.2887 25.5871 23.1673 25.7186C23.0459 25.85 23.0134 26.0369 23.0837 26.1993C23.2426 26.5664 23.3518 26.8973 23.4211 27.1361C22.758 27.2842 21.3277 27.5235 20.0281 27.2076C19.8633 27.1674 19.6891 27.2155 19.5711 27.3335C19.4532 27.4515 19.4096 27.6213 19.4569 27.7787C19.5388 28.0512 19.5957 28.2934 19.6346 28.4875C18.6273 28.6276 16.2516 28.7902 14.876 27.5099C14.6485 27.298 14.475 27.0768 14.3567 26.8497L14.6057 26.609C14.7639 26.5647 14.9281 26.5066 15.0982 26.4301C15.2754 26.4754 15.4621 26.5113 15.6555 26.5373C16.4539 26.6443 17.2262 26.5492 17.9348 26.3491C18.4294 26.4585 18.9283 26.5026 19.4082 26.5026C20.8587 26.5026 22.134 26.1075 22.5806 25.9513C22.7597 25.8888 22.9027 25.7563 22.973 25.5878C23.0433 25.4194 23.0354 25.2282 22.9512 25.0633C22.8915 24.9461 22.8122 24.7984 22.7127 24.6281C23.1472 24.5741 23.59 24.4605 24.0364 24.2883C24.2795 24.1944 24.3977 23.9282 24.3005 23.6935C24.2033 23.459 23.9275 23.3448 23.6842 23.4386C23.0964 23.6655 22.5238 23.7695 21.9839 23.7468C21.9589 23.7458 21.9345 23.7443 21.9102 23.7428C21.7823 23.7349 21.6598 23.778 21.567 23.8572C21.543 23.7105 21.4668 23.5742 21.3487 23.4738C21.3487 23.4738 21.3487 23.4738 21.3487 23.4738C21.264 23.4018 21.1376 23.2978 20.9758 23.1746C21.2834 23.0358 21.5865 22.8662 21.8828 22.6669C22.2498 22.4201 22.6103 22.1251 22.9543 21.7899C23.1746 21.5753 23.3904 21.3421 23.5957 21.0966C24.0234 20.5857 24.3172 20.1275 24.4542 19.8998C24.55 19.7407 24.5716 19.5502 24.5134 19.3774C24.4554 19.2049 24.3223 19.0633 24.1484 18.9891C24.0041 18.9275 23.7815 18.8378 23.4999 18.7413C25.4171 17.1527 25.7203 14.4162 25.7676 13.5867C25.7781 13.4032 25.7077 13.2243 25.5747 13.0959C25.4417 12.9676 25.2564 12.8994 25.0661 12.9098C24.2094 12.9552 21.3897 13.246 19.7413 15.0799C19.6484 14.8318 19.5634 14.6357 19.5045 14.5074C19.4276 14.3396 19.2809 14.2112 19.1021 14.1552C18.9231 14.0991 18.7258 14.1199 18.5608 14.2124C17.9412 14.5598 16.0605 15.7309 15.1677 17.5694C15.04 17.4132 14.9322 17.2911 14.8575 17.2093C14.7389 17.0793 14.5719 17.0017 14.3954 16.9919C14.4954 16.9 14.5512 16.7694 14.5424 16.6328C14.5408 16.6092 14.5393 16.5857 14.5382 16.5617C14.4537 14.6604 16.0784 12.9306 16.8419 12.2269C17.0078 12.4436 17.2247 12.7517 17.4369 13.1262C17.5339 13.2974 17.7327 13.3905 17.932 13.3578C18.1314 13.3253 18.2874 13.1742 18.3205 12.9818C18.5703 11.533 19.5083 10.2477 20.0005 9.65553C20.2943 9.98389 20.7397 10.5361 21.1068 11.223C21.1931 11.3846 21.3703 11.482 21.5585 11.4698C21.7465 11.4582 21.9095 11.3402 21.9738 11.1693C22.1357 10.7386 22.3834 10.312 22.7099 9.90108C22.8693 9.70052 22.83 9.41336 22.6223 9.25961C22.4145 9.10586 22.1168 9.14362 21.9576 9.34423C21.7789 9.56915 21.6198 9.79908 21.4811 10.0328C21.0715 9.43193 20.667 8.99331 20.4752 8.79728C20.3469 8.66615 20.1666 8.59461 19.9808 8.59678C19.8649 8.59914 19.7523 8.63134 19.6533 8.68798C20.0468 6.92238 21.7788 5.58539 22.6085 5.03458C22.7703 5.35631 22.9797 5.83082 23.1391 6.39581C23.1832 6.55192 23.3094 6.67394 23.471 6.71676C23.6326 6.75947 23.8057 6.71682 23.9262 6.60427C25.1836 5.42984 27.0821 5.08959 27.9617 4.9929C27.9653 5.04073 27.9694 5.08935 27.9736 5.13881C28.0191 5.67515 28.0757 6.34268 27.5274 7.32192C27.4138 7.52465 27.4743 7.77732 27.6685 7.91146C27.8627 8.04555 28.13 8.01943 28.2923 7.8503C29.5026 6.58901 31.6367 6.2455 32.7694 6.1525C32.673 7.24562 32.3171 9.30491 31.0101 10.4731C30.8348 10.6297 30.8077 10.8876 30.9467 11.0751C31.0857 11.2626 31.3475 11.3209 31.5577 11.2113C32.5722 10.6822 33.2638 10.7368 33.8196 10.7807C33.8709 10.7848 33.9213 10.7888 33.9709 10.7922C33.8707 11.6411 33.5182 13.4732 32.3012 14.6868C32.1846 14.803 32.1403 14.97 32.1847 15.126C32.229 15.2821 32.3555 15.4039 32.5172 15.4464C33.1025 15.6002 33.5942 15.8022 33.9277 15.9585C33.3569 16.7595 31.9715 18.4311 30.142 18.8107Z" fill="#EE523F"/>
</g>
<g opacity="0.8">
<path d="M61.2013 10.9118C60.6887 10.1721 59.9178 9.63484 59.0291 9.39779C58.1404 9.16074 57.1931 9.23974 56.3597 9.62038C55.5263 10.001 54.8623 10.658 54.4888 11.4715C54.1153 12.2851 54.0571 13.201 54.3249 14.0525C54.5926 14.904 55.1685 15.6343 55.9474 16.1103C56.7264 16.5863 57.6567 16.7764 58.5688 16.6459C59.4808 16.5153 60.3139 16.0729 60.9162 15.3992C61.5186 14.7255 61.85 13.8654 61.8502 12.9756C61.8509 12.2407 61.625 11.5223 61.2013 10.9118V10.9118ZM59.4765 15.1069C58.947 15.4483 58.3081 15.5947 57.6761 15.5194C57.0441 15.4441 56.4612 15.1522 56.0337 14.6968C55.6061 14.2415 55.3623 13.653 55.3467 13.0387C55.3311 12.4243 55.5448 11.8251 55.9488 11.3501C56.3528 10.8751 56.9202 10.556 57.5476 10.451C58.175 10.3459 58.8206 10.462 59.3667 10.7779C59.9129 11.0939 60.3232 11.5887 60.5229 12.1722C60.7226 12.7558 60.6984 13.3891 60.4547 13.9568C60.2541 14.4254 59.9136 14.8257 59.4765 15.1069V15.1069Z" fill="#EE523F"/>
<path d="M72.962 33.171L69.4005 24.1601C69.3574 24.0512 69.2811 23.9574 69.1815 23.8912C69.082 23.825 68.9641 23.7896 68.8432 23.7896H62.3879C64.9798 19.6379 66.2842 16.0003 66.2655 12.9766C66.2656 10.8614 65.3951 8.8327 63.8454 7.33683C62.2957 5.84096 60.1938 5.00039 58.002 5H58.0006C55.8088 5.00001 53.7068 5.84018 52.1569 7.33571C50.607 8.83125 49.7361 10.8597 49.7357 12.9748C49.7168 16.0001 51.0214 19.6388 53.6132 23.7896H47.1581C47.0372 23.7896 46.9193 23.8251 46.8197 23.8912C46.7202 23.9573 46.6438 24.051 46.6006 24.16L43.0394 33.1715C43.0048 33.2586 42.9928 33.3526 43.0042 33.4452C43.0156 33.5379 43.0502 33.6264 43.105 33.7033C43.1598 33.7802 43.2331 33.8431 43.3187 33.8865C43.4043 33.9299 43.4995 33.9526 43.5962 33.9526H72.4047C72.5015 33.9528 72.5968 33.9301 72.6825 33.8867C72.7682 33.8433 72.8417 33.7804 72.8966 33.7034C72.9514 33.6265 72.9861 33.5378 72.9975 33.445C73.0089 33.3523 72.9967 33.2582 72.962 33.171H72.962ZM71.5391 32.8009H67.9214L64.7059 28.7688L69.3199 27.1854L71.5391 32.8009ZM49.3982 24.9401L54.3197 31.1117L49.399 32.8006H44.463L47.5695 24.9401L49.3982 24.9401ZM63.0019 8.15203C63.6585 8.78584 64.1793 9.53824 64.5345 10.3663C64.8897 11.1943 65.0725 12.0818 65.0723 12.978C65.108 18.6985 59.8284 25.6471 58.0008 27.8781C56.173 25.6477 50.8933 18.7007 50.9293 12.9765C50.9294 11.6267 51.3442 10.3072 52.1214 9.18495C52.8985 8.06267 54.0031 7.18801 55.2954 6.67159C56.5876 6.15517 58.0096 6.02018 59.3813 6.28369C60.7531 6.54721 62.0131 7.1974 63.0019 8.15202V8.15203ZM58.0008 29.3683C58.0872 29.3682 58.1726 29.35 58.2511 29.3151C58.3296 29.2801 58.3992 29.2291 58.4553 29.1656C59.6011 27.818 60.665 26.4074 61.6417 24.9409H68.4316L68.8935 26.1097L55.5024 30.706L50.9042 24.9401H54.3595C55.3357 26.4061 56.3992 27.8163 57.5446 29.1635C57.6006 29.2276 57.6704 29.2791 57.7492 29.3145C57.828 29.3498 57.9139 29.3682 58.0008 29.3683ZM55.4593 31.9423L55.4873 31.9335L63.5238 29.176L66.4145 32.801H52.9594L55.4593 31.9423Z" fill="#EE523F"/>
</g>
<defs>
<clipPath id="clip0_738_665">
<rect width="38" height="38" fill="white" transform="translate(78)"/>
</clipPath>
</defs>
</svg>
