<svg width="277" height="73" viewBox="0 0 277 73" fill="none" xmlns="http://www.w3.org/2000/svg">
<path d="M8.48017 4.35664C7.94889 3.56206 7.14982 2.98482 6.22855 2.7301C5.30729 2.47538 4.32518 2.56015 3.46118 2.96895C2.59719 3.37776 1.90884 4.08338 1.52156 4.95724C1.13429 5.83109 1.07389 6.81501 1.35135 7.72968C1.62881 8.64434 2.22568 9.42887 3.03318 9.9403C3.84067 10.4517 4.80504 10.656 5.75054 10.5159C6.69605 10.3758 7.55974 9.90062 8.18422 9.177C8.8087 8.45338 9.15241 7.52947 9.15269 6.57365C9.15351 5.78428 8.9194 5.01252 8.48017 4.35664ZM7.67525 7.61317C7.42593 8.21559 6.96844 8.70836 6.38616 9.00166C5.80389 9.29496 5.13561 9.36927 4.50313 9.21103C3.87065 9.05279 3.31609 8.67254 2.94053 8.1396C2.56497 7.60666 2.39343 6.95651 2.45716 6.30766C2.5209 5.6588 2.81567 5.05446 3.28775 4.60478C3.75982 4.1551 4.37777 3.89002 5.02895 3.85787C5.68013 3.82572 6.32119 4.02864 6.83526 4.42963C7.34934 4.83063 7.7022 5.403 7.82954 6.04242C7.93506 6.56971 7.88136 7.11648 7.67525 7.61317V7.61317Z" fill="white"/>
<path d="M14.163 20.6597C13.9113 20.4064 13.6119 20.2056 13.2822 20.0686C12.9525 19.9316 12.599 19.8613 12.2419 19.8616H7.88441V13.422C7.88793 13.0626 7.82016 12.706 7.68502 12.3729C7.54988 12.0398 7.35005 11.7369 7.09709 11.4815C6.84413 11.2261 6.54306 11.0234 6.21127 10.8851C5.87949 10.7468 5.52359 10.6757 5.16414 10.6758C4.80469 10.6759 4.44882 10.7472 4.11712 10.8857C3.78542 11.0242 3.48446 11.2271 3.23165 11.4826C2.97884 11.7381 2.77919 12.0412 2.64424 12.3744C2.5093 12.7075 2.44173 13.0642 2.44546 13.4236V22.5813C2.44622 23.3026 2.73313 23.994 3.24321 24.5039C3.75328 25.0138 4.44484 25.3004 5.16607 25.3009H9.52067V31.7409C9.52006 32.0984 9.58995 32.4526 9.72635 32.7831C9.86275 33.1136 10.063 33.4139 10.3156 33.667C10.5682 33.92 10.8682 34.1207 11.1985 34.2577C11.5287 34.3946 11.8827 34.4651 12.2403 34.4651C12.5978 34.4651 12.9518 34.3946 13.2821 34.2577C13.6123 34.1207 13.9124 33.92 14.165 33.667C14.4176 33.4139 14.6178 33.1136 14.7542 32.7831C14.8906 32.4526 14.9605 32.0984 14.9599 31.7409V22.5813C14.9604 22.2243 14.8903 21.8706 14.7535 21.5408C14.6168 21.211 14.4161 20.9115 14.163 20.6597ZM10.607 24.216C10.5481 24.1568 10.4781 24.1099 10.4009 24.0779C10.3238 24.0459 10.2411 24.0296 10.1576 24.0298H5.16631C4.78223 24.0294 4.41398 23.8767 4.14239 23.6051C3.87079 23.3335 3.71803 22.9653 3.71764 22.5812V13.422C3.71486 13.2301 3.75024 13.0396 3.82172 12.8615C3.8932 12.6834 3.99935 12.5213 4.13402 12.3845C4.26869 12.2478 4.42918 12.1392 4.60617 12.065C4.78317 11.9909 4.97314 11.9526 5.16504 11.9525C5.35695 11.9524 5.54697 11.9904 5.72407 12.0643C5.90116 12.1382 6.0618 12.2466 6.19666 12.3831C6.33151 12.5197 6.43789 12.6817 6.50961 12.8597C6.58134 13.0377 6.61697 13.2281 6.61446 13.42V20.4975C6.61453 20.666 6.68149 20.8276 6.80064 20.9468C6.91979 21.0659 7.08138 21.1329 7.2499 21.133H12.2417C12.6258 21.1335 12.9939 21.2863 13.2655 21.5579C13.537 21.8295 13.6898 22.1977 13.6902 22.5817V31.7409C13.6893 32.1245 13.5363 32.4921 13.2648 32.763C12.9932 33.0339 12.6253 33.1861 12.2417 33.1861C11.8581 33.1861 11.4902 33.0339 11.2186 32.763C10.9471 32.4921 10.794 32.1245 10.7932 31.7409V24.6654C10.7934 24.5819 10.777 24.4992 10.7451 24.4221C10.7131 24.3449 10.6662 24.2749 10.607 24.216L10.607 24.216Z" fill="white"/>
<path d="M33.2909 3.70888C32.9214 3.33737 32.482 3.04273 31.998 2.84195C31.514 2.64117 30.995 2.53823 30.4711 2.53907H30.4709C29.5467 2.5381 28.6507 2.85769 27.9357 3.44337C27.2208 4.02904 26.731 4.84454 26.55 5.75087C26.369 6.6572 26.5079 7.59826 26.9431 8.41364C27.3782 9.22902 28.0827 9.86826 28.9364 10.2224C29.7901 10.5765 30.7401 10.6236 31.6247 10.3557C32.5092 10.0877 33.2734 9.52131 33.7871 8.75297C34.3008 7.98463 34.5321 7.06193 34.4416 6.14214C34.3511 5.22235 33.9445 4.3624 33.2909 3.70888V3.70888ZM30.4707 9.24784C29.8408 9.24857 29.2301 9.03082 28.7428 8.63171C28.2555 8.2326 27.9216 7.67682 27.7982 7.05912C27.6748 6.44143 27.7694 5.80004 28.0659 5.24429C28.3624 4.68854 28.8425 4.25283 29.4243 4.01142C30.0062 3.77002 30.6537 3.73787 31.2566 3.92044C31.8594 4.10302 32.3803 4.48903 32.7304 5.01267C33.0806 5.53631 33.2382 6.16518 33.1766 6.79206C33.115 7.41895 32.8378 8.00506 32.3924 8.45049C32.1404 8.70343 31.8409 8.90408 31.5111 9.04091C31.1813 9.17774 30.8278 9.24805 30.4707 9.2478V9.24784Z" fill="white"/>
<path d="M32.3918 11.4967C32.14 11.2434 31.8404 11.0426 31.5105 10.9057C31.1806 10.7688 30.8269 10.6987 30.4697 10.6992H30.4694C29.7484 10.7001 29.0572 10.9869 28.5474 11.4967C28.0377 12.0065 27.7509 12.6977 27.7501 13.4187V19.8588H23.3954C22.6744 19.8596 21.9831 20.1464 21.4733 20.6562C20.9634 21.166 20.6766 21.8572 20.6758 22.5782V31.7381C20.6758 32.4594 20.9623 33.1511 21.4723 33.6611C21.9824 34.1712 22.6741 34.4577 23.3954 34.4577C24.1167 34.4577 24.8085 34.1712 25.3185 33.6611C25.8285 33.1511 26.1151 32.4594 26.1151 31.7381V25.298H30.4695C31.1905 25.2973 31.8818 25.0105 32.3917 24.5007C32.9016 23.9909 33.1883 23.2996 33.1891 22.5785V13.4192C33.1897 13.0619 33.1196 12.7081 32.9828 12.3782C32.8459 12.0482 32.6451 11.7486 32.3918 11.4967V11.4967ZM24.844 24.6623V31.7377C24.844 32.1219 24.6914 32.4903 24.4197 32.762C24.148 33.0337 23.7796 33.1863 23.3954 33.1863C23.0112 33.1863 22.6428 33.0337 22.3711 32.762C22.0995 32.4903 21.9469 32.1219 21.9469 31.7377V22.5784C21.9474 22.1944 22.1001 21.8262 22.3717 21.5546C22.6433 21.2831 23.0115 21.1304 23.3955 21.1299H28.3868C28.5553 21.1293 28.7167 21.0624 28.8361 20.9436C28.8953 20.8848 28.9422 20.8148 28.9742 20.7376C29.0062 20.6605 29.0225 20.5779 29.0224 20.4944V13.4188C29.0196 13.2269 29.055 13.0363 29.1265 12.8582C29.198 12.6801 29.3041 12.518 29.4388 12.3813C29.5735 12.2446 29.734 12.136 29.911 12.0618C30.088 11.9876 30.2779 11.9494 30.4699 11.9492C30.6618 11.9491 30.8518 11.9871 31.0289 12.0611C31.206 12.135 31.3666 12.2434 31.5015 12.3799C31.6363 12.5165 31.7427 12.6785 31.8144 12.8565C31.8861 13.0345 31.9218 13.2249 31.9193 13.4168L31.9182 22.5781C31.9177 22.9622 31.7649 23.3304 31.4933 23.602C31.2217 23.8735 30.8534 24.0263 30.4694 24.0267H25.4794C25.396 24.0267 25.3133 24.0431 25.2362 24.0751C25.1591 24.107 25.0891 24.1538 25.0301 24.2128C24.9711 24.2719 24.9243 24.3419 24.8923 24.419C24.8604 24.4962 24.844 24.5788 24.844 24.6623V24.6623Z" fill="white"/>
<path d="M25.5201 14.2018C25.4613 14.1425 25.3912 14.0956 25.3141 14.0637C25.237 14.0317 25.1543 14.0154 25.0708 14.0156H10.5613C10.3927 14.0156 10.2311 14.0826 10.1119 14.2018C9.99274 14.3209 9.92579 14.4826 9.92578 14.6511V17.185C9.92577 17.2685 9.9422 17.3511 9.97414 17.4282C10.0061 17.5053 10.0529 17.5754 10.1119 17.6344C10.1709 17.6934 10.241 17.7403 10.3181 17.7722C10.3952 17.8041 10.4778 17.8206 10.5613 17.8206H25.0708C25.1542 17.8206 25.2369 17.8041 25.314 17.7722C25.3911 17.7403 25.4611 17.6934 25.5201 17.6344C25.5791 17.5754 25.626 17.5053 25.6579 17.4282C25.6898 17.3511 25.7062 17.2685 25.7062 17.185V14.6511C25.7065 14.5676 25.6901 14.4849 25.6582 14.4078C25.6262 14.3307 25.5793 14.2606 25.5201 14.2018V14.2018ZM11.1956 16.5495V15.2867H24.4363V16.5495H11.1956Z" fill="white"/>
<path d="M25.6549 3.38682C25.6057 3.27304 25.5242 3.17615 25.4206 3.10808C25.3169 3.04002 25.1956 3.00375 25.0717 3.00376H22.1374V1.80741C22.1374 1.63886 22.0704 1.47722 21.9513 1.35803C21.8321 1.23885 21.6705 1.17188 21.5019 1.17188H12.175C12.0064 1.17188 11.8448 1.23884 11.7256 1.35802C11.6064 1.47721 11.5394 1.63885 11.5394 1.80741V7.53684L10.099 9.06962C10.0138 9.15985 9.95699 9.27303 9.93544 9.39519C9.91389 9.51734 9.92858 9.64314 9.97769 9.75705C10.0268 9.87096 10.1082 9.968 10.2118 10.0362C10.3154 10.1044 10.4368 10.1407 10.5608 10.1408H13.4961V11.3375C13.4962 11.506 13.5632 11.6676 13.6824 11.7867C13.8015 11.9059 13.9631 11.9729 14.1316 11.973H23.4586C23.627 11.9724 23.7884 11.9055 23.9079 11.7867C23.967 11.7278 24.014 11.6579 24.046 11.5808C24.0779 11.5037 24.0943 11.421 24.0941 11.3375V5.60742L25.5348 4.07438C25.6197 3.98398 25.6763 3.87073 25.6977 3.74856C25.719 3.62639 25.7041 3.50065 25.6549 3.38682V3.38682ZM23.6025 4.27478L22.9955 4.92148C22.8843 5.03928 22.8226 5.19527 22.8231 5.35725V10.7011H14.7672V10.1408H21.5019C21.5853 10.1408 21.668 10.1244 21.7451 10.0924C21.8222 10.0605 21.8923 10.0136 21.9513 9.9546C22.0103 9.89557 22.0571 9.82549 22.089 9.74836C22.121 9.67123 22.1374 9.58857 22.1373 9.5051V4.27478H23.6025ZM20.8663 2.44293V8.86971H12.0313L12.638 8.22396C12.7491 8.10609 12.8108 7.95015 12.8105 7.78819V2.44294L20.8663 2.44293Z" fill="white"/>
<path d="M19.6355 6.34244C19.5767 6.28322 19.5066 6.23628 19.4295 6.20432C19.3523 6.17236 19.2696 6.15602 19.1861 6.15625H14.491C14.3225 6.15625 14.1608 6.22321 14.0416 6.3424C13.9224 6.46158 13.8555 6.62323 13.8555 6.79179C13.8555 6.96034 13.9224 7.12199 14.0416 7.24118C14.1608 7.36037 14.3225 7.42732 14.491 7.42732H19.1861C19.3118 7.42734 19.4347 7.39008 19.5392 7.32025C19.6437 7.25043 19.7252 7.15117 19.7733 7.03504C19.8214 6.91892 19.834 6.79113 19.8095 6.66785C19.7849 6.54456 19.7244 6.43132 19.6355 6.34244V6.34244Z" fill="white"/>
<path d="M19.6355 4.07291C19.5767 4.01369 19.5066 3.96675 19.4295 3.93479C19.3523 3.90283 19.2696 3.88649 19.1861 3.88672H14.491C14.3225 3.88672 14.1608 3.95368 14.0416 4.07287C13.9224 4.19205 13.8555 4.3537 13.8555 4.52226C13.8555 4.69081 13.9224 4.85246 14.0416 4.97165C14.1608 5.09083 14.3225 5.15779 14.491 5.15779H19.1861C19.3118 5.15781 19.4347 5.12055 19.5392 5.05072C19.6437 4.98089 19.7252 4.88164 19.7733 4.76551C19.8214 4.64939 19.834 4.5216 19.8095 4.39832C19.7849 4.27503 19.7244 4.16179 19.6355 4.07291V4.07291Z" fill="white"/>
<g clip-path="url(#clip0_618_765)">
<path d="M72.5373 26.2356C72.5056 26.1575 72.4582 26.0867 72.398 26.0277L62.3522 15.9812L70.6724 7.66062C71.0236 7.31059 71.3024 6.89474 71.4928 6.43685C71.6831 5.97896 71.7813 5.48804 71.7818 4.99215C71.7822 4.49627 71.6849 4.00517 71.4953 3.54695C71.3057 3.08873 71.0277 2.67239 70.6771 2.32174C70.3264 1.97109 69.9101 1.69303 69.4519 1.50345C68.9937 1.31388 68.5026 1.21652 68.0067 1.21694C67.5108 1.21736 67.0199 1.31556 66.562 1.50591C66.1041 1.69626 65.6882 1.97503 65.3382 2.32627L57.0174 10.6464L46.9705 0.599114C46.8517 0.480647 46.6909 0.414098 46.5232 0.414063C46.3555 0.414027 46.1946 0.480508 46.0758 0.598925L37.5994 9.07566C37.5406 9.13425 37.494 9.20388 37.4622 9.28055C37.4304 9.35722 37.414 9.43942 37.4141 9.52242C37.4137 9.60602 37.4303 9.68882 37.4629 9.76581C37.4945 9.84229 37.5409 9.91174 37.5995 9.97013L47.6467 20.0174L40.424 27.2393C40.3607 27.3033 40.313 27.381 40.2845 27.4664L38.25 33.9562C38.2154 34.0664 38.2118 34.184 38.2393 34.2962C38.2669 34.4084 38.3247 34.5109 38.4064 34.5925C38.4881 34.6742 38.5906 34.7319 38.7028 34.7594C38.815 34.7869 38.9326 34.7832 39.0428 34.7485L45.499 32.7305L45.5092 32.7273L45.5442 32.711C45.6244 32.6815 45.6973 32.6351 45.758 32.5749L52.9811 25.3522L63.0289 35.3991C63.0873 35.4586 63.1574 35.5055 63.2347 35.537C63.3892 35.5997 63.5621 35.5998 63.7167 35.5371C63.7945 35.5054 63.8651 35.4581 63.9239 35.3981L72.3998 26.9229C72.4586 26.8641 72.5052 26.7942 72.5368 26.7173C72.5685 26.6403 72.5845 26.5579 72.5841 26.4747C72.5838 26.3927 72.568 26.3116 72.5373 26.2356V26.2356ZM66.6177 9.92646L46.7249 29.8188L45.3994 28.4936L65.2924 8.60131L66.6177 9.92646ZM63.9666 5.48647L64.4848 4.96843L68.0302 8.51373L67.5124 9.03201L63.9666 5.48647ZM69.7849 3.21344C70.0185 3.44668 70.2033 3.72403 70.3287 4.02936C70.4562 4.33383 70.5211 4.66085 70.5195 4.99093C70.519 5.32099 70.4534 5.6477 70.3263 5.95229C70.1991 6.25688 70.013 6.53334 69.7787 6.76577L68.9249 7.61927L65.3797 4.07364L66.2138 3.23926L66.2141 3.23912L66.2335 3.2198C66.4658 2.98553 66.742 2.79951 67.0464 2.67245C67.3508 2.54539 67.6774 2.4798 68.0072 2.47945H68.0073C68.3374 2.47864 68.6643 2.54306 68.9694 2.66902C69.2744 2.79499 69.5516 2.98 69.7849 3.21343L69.7849 3.21344ZM45.8302 30.7136L45.3121 31.232L41.7669 27.6868L42.285 27.1685L45.8302 30.7136ZM43.1794 26.2736L63.0724 6.38127L64.3977 7.70647L44.5049 27.5988L43.1794 26.2736ZM48.3836 16.629C48.4996 16.51 48.564 16.35 48.563 16.1838C48.562 16.0176 48.4956 15.8585 48.3781 15.7409C48.2607 15.6233 48.1017 15.5567 47.9355 15.5554C47.7693 15.5541 47.6093 15.6184 47.49 15.7342L46.3211 16.903L45.1975 15.7793L46.3655 14.6109C46.4815 14.4919 46.546 14.3319 46.545 14.1657C46.5439 13.9995 46.4775 13.8404 46.3601 13.7227C46.2426 13.6051 46.0836 13.5385 45.9174 13.5372C45.7511 13.536 45.5911 13.6002 45.4719 13.7161L44.3031 14.8845L43.1794 13.7612L44.3474 12.5928C44.4339 12.5041 44.4924 12.3919 44.5157 12.2701C44.539 12.1484 44.526 12.0225 44.4783 11.9081C44.4306 11.7937 44.3504 11.6958 44.2476 11.6266C44.1448 11.5575 44.0239 11.52 43.8999 11.519C43.7355 11.5205 43.5775 11.5832 43.4567 11.6948L42.2849 12.8664L41.1613 11.7427L42.3293 10.5747C42.4456 10.4557 42.5104 10.2956 42.5095 10.1292C42.5086 9.96271 42.4421 9.80334 42.3245 9.68557C42.2069 9.5678 42.0476 9.50114 41.8812 9.50003C41.7148 9.49892 41.5546 9.56346 41.4354 9.67965L40.2668 10.8482L38.9413 9.52274L44.9087 3.55564L54.5085 13.1555L48.5412 19.1225L47.216 17.7973L48.3836 16.629ZM45.8031 2.66119L46.523 1.94132L56.1233 11.5411L55.4031 12.2611L45.8031 2.66119ZM44.1259 31.8347L39.8178 33.1808L41.1642 28.873L44.1259 31.8347ZM71.0576 26.4755L70.3373 27.1957L60.7378 17.5955L61.4574 16.8756L71.0576 26.4755ZM63.3159 31.5654C63.3768 31.5079 63.4248 31.438 63.4568 31.3606C63.4982 31.2646 63.515 31.1598 63.5059 31.0557C63.4967 30.9516 63.4618 30.8514 63.4043 30.7641C63.3468 30.6768 63.2685 30.6051 63.1765 30.5556C63.0845 30.506 62.9816 30.4801 62.877 30.4802C62.7908 30.48 62.7053 30.4972 62.6258 30.5308C62.5488 30.5641 62.4791 30.6124 62.4209 30.6729L61.2555 31.8376L60.1322 30.7136L61.2985 29.5474C61.3888 29.4598 61.4508 29.3473 61.4767 29.2242C61.5027 29.1012 61.4913 28.9732 61.4441 28.8566C61.3968 28.7401 61.3159 28.6403 61.2116 28.57C61.1073 28.4997 60.9845 28.4621 60.8587 28.462H60.8561C60.7686 28.4605 60.6819 28.4786 60.6024 28.5151C60.5274 28.5481 60.4596 28.5955 60.4029 28.6547L59.2374 29.8188L58.1141 28.6955L59.2811 27.5285C59.3403 27.4708 59.3875 27.402 59.4199 27.3259C59.4539 27.2484 59.4713 27.1647 59.4708 27.0801C59.4722 26.9964 59.4564 26.9134 59.4244 26.836C59.3925 26.7584 59.3455 26.6878 59.2861 26.6284C59.2265 26.5694 59.156 26.5227 59.0785 26.4907C59.0031 26.46 58.9224 26.4441 58.8409 26.4439C58.7561 26.4434 58.672 26.46 58.5938 26.4928C58.5155 26.5257 58.4447 26.574 58.3857 26.635L57.2193 27.8008L56.0959 26.6774L57.2643 25.509C57.3799 25.3898 57.4441 25.23 57.443 25.0639C57.4419 24.8979 57.3755 24.7389 57.2583 24.6214C57.2004 24.5627 57.1314 24.5161 57.0554 24.4842C56.9794 24.4523 56.8979 24.4357 56.8154 24.4355C56.6493 24.434 56.4893 24.4982 56.3703 24.6141L55.2011 25.7825L53.8759 24.4573L59.843 18.4903L69.4433 28.0899L63.4755 34.0576L62.1503 32.7317L63.3159 31.5654Z" fill="white"/>
</g>
<path d="M96.0498 27.6423H98.9385C99.0899 27.6416 99.2348 27.5809 99.3417 27.4736C99.4485 27.3663 99.5085 27.221 99.5086 27.0696C99.5087 26.9182 99.4489 26.7729 99.3422 26.6654C99.2355 26.558 99.0907 26.4971 98.9393 26.4961H96.0507C95.8993 26.4969 95.7543 26.5575 95.6475 26.6648C95.5406 26.7721 95.4806 26.9174 95.4805 27.0688C95.4804 27.2202 95.5402 27.3655 95.6468 27.473C95.7535 27.5805 95.8984 27.6413 96.0498 27.6423H96.0498Z" fill="white"/>
<path d="M96.0498 29.7946H98.9384C99.0904 29.7947 99.2362 29.7344 99.3438 29.627C99.4513 29.5196 99.5118 29.3739 99.5119 29.2219C99.512 29.0699 99.4517 28.9241 99.3443 28.8166C99.2369 28.709 99.0912 28.6485 98.9392 28.6484H96.0506C95.8992 28.6492 95.7543 28.7099 95.6474 28.8172C95.5406 28.9245 95.4806 29.0697 95.4805 29.2211C95.4804 29.3725 95.5402 29.5178 95.6468 29.6253C95.7535 29.7327 95.8984 29.7936 96.0498 29.7946H96.0498Z" fill="white"/>
<path d="M96.0469 18.4666H98.9358C99.0874 18.4661 99.2326 18.4055 99.3397 18.2982C99.4467 18.1909 99.5069 18.0455 99.507 17.8939C99.5071 17.7423 99.4471 17.5968 99.3402 17.4893C99.2333 17.3818 99.0882 17.321 98.9366 17.3203H96.0479C95.8963 17.3208 95.751 17.3813 95.644 17.4887C95.5369 17.596 95.4767 17.7414 95.4766 17.893C95.4764 18.0446 95.5364 18.1901 95.6433 18.2976C95.7501 18.4051 95.8953 18.4659 96.0469 18.4666H96.0469Z" fill="white"/>
<path d="M85.0577 18.4683H85.9294V19.3391C85.9302 19.4905 85.9908 19.6354 86.0981 19.7423C86.2054 19.8491 86.3507 19.9092 86.5021 19.9093C86.6535 19.9094 86.7988 19.8496 86.9063 19.7429C87.0137 19.6362 87.0746 19.4913 87.0756 19.3399V18.4683H87.9464C88.0978 18.4675 88.2428 18.4068 88.3496 18.2995C88.4565 18.1922 88.5165 18.047 88.5166 17.8955C88.5167 17.7441 88.4569 17.5988 88.3502 17.4913C88.2435 17.3838 88.0986 17.323 87.9472 17.322H87.0756V16.4512C87.076 16.3756 87.0615 16.3008 87.0328 16.2308C87.0042 16.1609 86.962 16.0974 86.9087 16.0438C86.8554 15.9903 86.792 15.9478 86.7223 15.9188C86.6525 15.8898 86.5777 15.875 86.5021 15.875C86.4266 15.875 86.3518 15.89 86.282 15.9191C86.2123 15.9481 86.149 15.9907 86.0958 16.0443C86.0425 16.0979 86.0004 16.1615 85.9719 16.2315C85.9433 16.3014 85.9288 16.3763 85.9293 16.4519V17.322H85.0585C84.907 17.3228 84.7621 17.3834 84.6552 17.4908C84.5484 17.5981 84.4884 17.7433 84.4883 17.8947C84.4882 18.0462 84.548 18.1915 84.6547 18.2989C84.7614 18.4064 84.9063 18.4673 85.0577 18.4683V18.4683Z" fill="white"/>
<path d="M85.0781 28.8428C84.9706 28.9503 84.9102 29.0961 84.9102 29.2481C84.9101 29.4001 84.9705 29.5459 85.078 29.6534C85.1854 29.7609 85.3312 29.8213 85.4832 29.8214C85.6352 29.8214 85.781 29.761 85.8885 29.6536L86.4125 29.1296L86.5045 29.0376L86.5964 29.1295L87.1202 29.6534C87.2278 29.7605 87.3734 29.8205 87.5252 29.8203C87.6769 29.8202 87.8224 29.7599 87.9298 29.6526C88.0371 29.5454 88.0975 29.3999 88.0978 29.2482C88.0981 29.0964 88.0381 28.9507 87.9312 28.8431L87.4069 28.319L87.3149 28.227L87.4069 28.135L87.9307 27.6112C88.0382 27.5037 88.0985 27.3579 88.0985 27.2059C88.0985 27.0539 88.0381 26.9081 87.9306 26.8006C87.8231 26.6932 87.6773 26.6328 87.5253 26.6328C87.3733 26.6328 87.2275 26.6932 87.1201 26.8007L86.5963 27.3245L86.5044 27.4165L86.4125 27.3245L85.8887 26.8006C85.7811 26.6936 85.6355 26.6336 85.4838 26.6337C85.332 26.6339 85.1865 26.6942 85.0792 26.8015C84.9719 26.9087 84.9114 27.0542 84.9112 27.2059C84.9109 27.3577 84.9709 27.5033 85.0778 27.611L85.6019 28.1351L85.6939 28.2271L85.6019 28.3191L85.0781 28.8428Z" fill="white"/>
<path d="M101.658 23.8438H93.3309C93.1789 23.8439 93.0333 23.9043 92.9258 24.0118C92.8184 24.1192 92.758 24.2649 92.7578 24.4168V32.0406C92.7579 32.1925 92.8183 32.3382 92.9257 32.4456C93.0332 32.5531 93.1788 32.6135 93.3308 32.6136H101.658C101.81 32.6136 101.955 32.5532 102.063 32.4458C102.17 32.3383 102.231 32.1926 102.231 32.0407V24.417C102.231 24.265 102.17 24.1194 102.063 24.0119C101.955 23.9044 101.81 23.844 101.658 23.8438L101.658 23.8438ZM101.085 24.9901V31.4675H93.9041V24.9901H101.085Z" fill="white"/>
<path d="M90.6657 23.8438H82.3387C82.1868 23.8439 82.0411 23.9043 81.9336 24.0117C81.8262 24.1192 81.7658 24.2649 81.7656 24.4168V32.0407C81.7658 32.1926 81.8262 32.3382 81.9336 32.4456C82.041 32.5531 82.1867 32.6135 82.3386 32.6136H90.6656C90.7408 32.6137 90.8153 32.5988 90.8849 32.5701C90.9544 32.5413 91.0176 32.4991 91.0708 32.4458C91.124 32.3926 91.1662 32.3295 91.195 32.2599C91.2238 32.1904 91.2387 32.1159 91.2387 32.0407V24.417C91.2386 24.265 91.1782 24.1193 91.0708 24.0119C90.9634 23.9044 90.8177 23.844 90.6658 23.8438L90.6657 23.8438ZM90.0923 24.9901V31.4675H82.9119V24.9901H90.0923Z" fill="white"/>
<path d="M101.658 13.5078H93.3309C93.179 13.508 93.0333 13.5684 92.9259 13.6758C92.8184 13.7832 92.758 13.9288 92.7578 14.0807V21.7045C92.7579 21.8565 92.8183 22.0021 92.9258 22.1096C93.0332 22.217 93.1788 22.2775 93.3308 22.2777H101.658C101.733 22.2777 101.808 22.2629 101.877 22.2341C101.947 22.2053 102.01 22.1631 102.063 22.1099C102.116 22.0566 102.158 21.9934 102.187 21.9239C102.216 21.8543 102.231 21.7798 102.231 21.7045V14.0809C102.231 13.929 102.17 13.7833 102.063 13.6759C101.955 13.5684 101.81 13.508 101.658 13.5078H101.658ZM101.085 14.6541V21.1314H93.9041V14.6541H101.085Z" fill="white"/>
<path d="M90.6657 13.5078H82.3387C82.1868 13.5079 82.0411 13.5683 81.9337 13.6757C81.8262 13.7832 81.7658 13.9288 81.7656 14.0807V21.7045C81.7657 21.8565 81.8261 22.0022 81.9335 22.1096C82.0409 22.2171 82.1866 22.2776 82.3386 22.2777H90.6656C90.7408 22.2777 90.8154 22.2629 90.885 22.2342C90.9545 22.2054 91.0177 22.1631 91.0709 22.1099C91.1242 22.0567 91.1664 21.9935 91.1952 21.9239C91.2239 21.8544 91.2387 21.7798 91.2387 21.7045V14.0809C91.2386 13.929 91.1782 13.7833 91.0708 13.6759C90.9633 13.5684 90.8177 13.508 90.6658 13.5078H90.6657ZM90.0923 14.6541V21.1314H82.9119V14.6541H90.0923Z" fill="white"/>
<path d="M101.655 3.38281H82.3387C82.1868 3.38291 82.0411 3.4433 81.9337 3.55072C81.8262 3.65813 81.7658 3.8038 81.7656 3.95574V10.1315C81.7658 10.2834 81.8261 10.429 81.9335 10.5365C82.0409 10.6439 82.1865 10.7044 82.3384 10.7047H101.655C101.807 10.7045 101.953 10.6441 102.06 10.5367C102.168 10.4292 102.228 10.2836 102.228 10.1317V3.95593C102.228 3.80399 102.168 3.65831 102.06 3.55086C101.953 3.4434 101.807 3.38297 101.655 3.38281V3.38281ZM101.082 4.52905V9.55837H82.9119V4.52905H101.082Z" fill="white"/>
<path d="M105.089 0.690129C104.912 0.51189 104.701 0.370527 104.469 0.274202C104.236 0.177876 103.987 0.128495 103.736 0.128909H80.2619C79.7544 0.129406 79.2678 0.33122 78.9089 0.690062C78.5501 1.0489 78.3482 1.53546 78.3477 2.04297V33.9546C78.3482 34.4621 78.55 34.9487 78.9089 35.3075C79.2677 35.6664 79.7542 35.8683 80.2617 35.8689H103.736C104.243 35.8684 104.73 35.6666 105.089 35.3077C105.448 34.9489 105.65 34.4623 105.65 33.9548V2.04316C105.65 1.79174 105.601 1.54273 105.505 1.31051C105.408 1.07828 105.267 0.86743 105.089 0.690129V0.690129ZM79.7192 34.4974C79.6476 34.4262 79.5909 34.3416 79.5522 34.2484C79.5135 34.1552 79.4937 34.0553 79.4939 33.9544V2.04316C79.4942 1.83952 79.5752 1.64431 79.7192 1.50034C79.8632 1.35637 80.0585 1.27539 80.2621 1.27516H103.736C103.939 1.27547 104.135 1.3565 104.279 1.50051C104.423 1.64451 104.504 1.83972 104.504 2.04335V33.9546C104.504 34.1582 104.422 34.3535 104.278 34.4975C104.134 34.6414 103.939 34.7224 103.736 34.7227H80.2621C80.1612 34.7228 80.0613 34.703 79.9681 34.6643C79.8749 34.6257 79.7903 34.5689 79.7192 34.4974V34.4974Z" fill="white"/>
<path d="M141.377 15.9408L141.228 15.9407V14.1449C141.226 12.771 141.707 11.4402 142.586 10.386C143.676 9.16451 144.278 7.58297 144.277 5.94422C144.274 4.81884 143.991 3.71199 143.453 2.72404C142.915 1.7361 142.14 0.89831 141.198 0.286658C140.984 0.148675 140.735 0.0749594 140.48 0.0742188C140.122 0.0744896 139.778 0.217426 139.524 0.471669C139.27 0.725912 139.127 1.0707 139.127 1.43039V5.53143C139.127 5.93062 138.968 6.31346 138.687 6.59574C138.405 6.87801 138.023 7.03658 137.625 7.03658C137.227 7.03658 136.845 6.87801 136.563 6.59574C136.282 6.31346 136.124 5.93062 136.124 5.53143V1.43044C136.123 1.07077 135.98 0.726003 135.726 0.471795C135.472 0.217588 135.128 0.0746953 134.769 0.0744668C134.515 0.0751499 134.266 0.148796 134.052 0.286706C133.11 0.898359 132.335 1.73615 131.797 2.72409C131.26 3.71204 130.976 4.81889 130.973 5.94428C130.972 7.58292 131.574 9.16436 132.664 10.3857C133.393 11.2606 133.851 12.3299 133.981 13.4621C133.308 13.5267 132.655 13.7247 132.06 14.0448C131.464 14.3648 130.938 14.8005 130.512 15.3263L129.626 16.4544C129.424 16.7133 129.165 16.9225 128.87 17.066C128.575 17.2096 128.251 17.2838 127.923 17.2829H127.284C127.235 16.7829 127.016 16.315 126.664 15.9576C126.312 15.6003 125.848 15.3753 125.35 15.3204C124.852 15.2654 124.35 15.384 123.929 15.6561C123.507 15.9282 123.192 16.3373 123.036 16.8147H115.555C115.07 16.8152 114.605 17.0085 114.263 17.352C113.92 17.6956 113.727 18.1613 113.727 18.6471V27.402C113.727 27.8878 113.92 28.3536 114.263 28.6971C114.605 29.0407 115.07 29.2339 115.555 29.2345H123.229C123.45 29.6116 123.778 29.9138 124.172 30.1021C124.566 30.2904 125.006 30.3562 125.438 30.2909C125.869 30.2256 126.271 30.0323 126.592 29.7359C126.912 29.4395 127.137 29.0536 127.237 28.628H129.089C129.364 28.6278 129.636 28.6801 129.891 28.7823C130.359 28.9532 130.751 29.1173 131.129 29.2759C132.053 29.6971 133.024 30.0048 134.022 30.1924V32.3122C134.022 33.2701 134.401 34.1889 135.077 34.8663C135.753 35.5437 136.669 35.9242 137.625 35.9242C138.581 35.9242 139.497 35.5437 140.173 34.8663C140.849 34.1889 141.228 33.2701 141.228 32.3122V29.3471C141.482 28.9455 141.605 28.4751 141.581 28.0004C141.562 27.6195 141.448 27.2496 141.249 26.9249C141.629 26.7436 141.951 26.4586 142.178 26.1024C142.405 25.7463 142.528 25.3335 142.532 24.9109C142.538 24.3408 142.347 23.7861 141.99 23.342C142.44 22.9896 142.742 22.4807 142.836 21.916C142.929 21.3513 142.808 20.7719 142.496 20.2925C142.946 20.0442 143.301 19.6528 143.505 19.18C143.708 18.7072 143.749 18.18 143.621 17.6813C143.493 17.1826 143.203 16.7409 142.796 16.4257C142.39 16.1106 141.89 15.94 141.377 15.9408H141.377ZM135.375 30.3708C135.574 30.3861 135.773 30.3967 135.97 30.4025V32.1594C135.971 32.5987 136.146 33.0198 136.456 33.3301C136.766 33.6404 137.187 33.8147 137.625 33.8147C138.063 33.8147 138.484 33.6404 138.794 33.3301C139.104 33.0198 139.279 32.5987 139.28 32.1594V30.4313C139.481 30.4295 139.681 30.4026 139.875 30.3514V32.3119C139.875 32.91 139.638 33.4837 139.216 33.9066C138.794 34.3295 138.222 34.5671 137.625 34.5671C137.028 34.5671 136.456 34.3295 136.034 33.9066C135.612 33.4837 135.375 32.91 135.375 32.3119L135.375 30.3708ZM137.926 32.1594C137.926 32.2395 137.895 32.3163 137.838 32.373C137.782 32.4296 137.705 32.4615 137.625 32.4615C137.545 32.4615 137.468 32.4296 137.412 32.373C137.355 32.3163 137.324 32.2395 137.324 32.1594V30.4162L137.926 30.4209V32.1594ZM140.06 19.9028C140.058 20.0713 140.118 20.2346 140.229 20.3611C140.34 20.4876 140.494 20.5683 140.661 20.5877C140.901 20.6163 141.121 20.7338 141.279 20.9172C141.436 21.1005 141.519 21.3363 141.512 21.5782C141.496 21.8326 141.382 22.071 141.196 22.244C141.009 22.4171 140.763 22.5115 140.508 22.5078L140.286 22.508C140.109 22.5084 139.939 22.5784 139.812 22.703C139.686 22.8275 139.613 22.9967 139.61 23.1743C139.607 23.352 139.673 23.5238 139.794 23.6531C139.916 23.7824 140.083 23.8589 140.26 23.8661C140.389 23.8735 140.515 23.9064 140.631 23.9629C140.747 24.0195 140.851 24.0985 140.936 24.1955C141.022 24.2925 141.087 24.4055 141.129 24.528C141.17 24.6505 141.187 24.78 141.178 24.909C141.173 25.1477 141.073 25.3745 140.901 25.5399C140.729 25.7052 140.499 25.7956 140.261 25.7913H139.912C139.739 25.7912 139.572 25.851 139.439 25.9605C139.305 26.07 139.214 26.2225 139.18 26.3919C139.146 26.5614 139.172 26.7374 139.253 26.8901C139.333 27.0427 139.465 27.1626 139.624 27.2293C139.77 27.2859 139.899 27.3778 140.001 27.4969C140.103 27.616 140.174 27.7586 140.208 27.9119C140.242 28.0652 140.237 28.2244 140.194 28.3755C140.152 28.5265 140.072 28.6646 139.964 28.7774C139.875 28.8716 139.768 28.9466 139.649 28.9977C139.53 29.0489 139.402 29.0751 139.273 29.0748C138.396 29.0614 137.738 29.0593 137.214 29.0576C136.402 29.0814 135.589 29.0429 134.783 28.9425C133.66 28.7807 132.568 28.4562 131.538 27.979C131.17 27.8239 130.796 27.6663 130.387 27.5197C129.974 27.3549 129.534 27.2706 129.089 27.2712H127.295V18.6396H127.923C128.456 18.6411 128.982 18.5207 129.462 18.2874C129.941 18.0542 130.361 17.7143 130.689 17.2937L131.576 16.1658C132.188 15.419 133.064 14.9384 134.021 14.8247V15.5254C134.017 15.9898 134.193 16.4377 134.512 16.7742C134.672 16.9401 134.864 17.0717 135.076 17.161C135.288 17.2503 135.516 17.2953 135.746 17.2933L140.551 17.2973L141.376 17.298C141.503 17.2974 141.628 17.322 141.745 17.3701C141.862 17.4183 141.969 17.4892 142.058 17.5786C142.148 17.6681 142.219 17.7745 142.268 17.8916C142.316 18.0087 142.341 18.1343 142.341 18.2611C142.341 18.3879 142.316 18.5135 142.268 18.6306C142.219 18.7477 142.148 18.8541 142.058 18.9436C141.969 19.0331 141.862 19.104 141.745 19.1522C141.628 19.2003 141.503 19.2249 141.376 19.2244H140.737C140.558 19.2246 140.386 19.2961 140.259 19.4233C140.132 19.5505 140.06 19.7229 140.06 19.9028V19.9028ZM137.625 8.39344C138.382 8.39258 139.108 8.09078 139.643 7.55424C140.178 7.01771 140.479 6.29025 140.48 5.53148V1.43044C141.229 1.92095 141.844 2.59024 142.27 3.37814C142.697 4.16604 142.921 5.04784 142.923 5.94422C142.924 7.24939 142.444 8.509 141.576 9.48178C140.472 10.7829 139.869 12.4368 139.875 14.1449V15.9396L139.28 15.9392V12.2173C139.28 11.7773 139.106 11.3553 138.795 11.0442C138.485 10.7331 138.064 10.5583 137.625 10.5583C137.186 10.5583 136.765 10.7331 136.455 11.0442C136.144 11.3553 135.97 11.7773 135.97 12.2173V15.9365L135.747 15.9363C135.696 15.938 135.646 15.9287 135.6 15.9091C135.553 15.8895 135.512 15.86 135.477 15.8227C135.408 15.7396 135.372 15.6339 135.375 15.5256C135.375 15.415 135.377 15.2934 135.379 15.1621C135.583 13.117 134.97 11.0743 133.674 9.48176C132.806 8.50897 132.326 7.24937 132.327 5.94422C132.329 5.04666 132.554 4.16375 132.983 3.37557C133.411 2.58738 134.029 1.91886 134.78 1.43063L134.77 5.53147C134.771 6.29025 135.072 7.01771 135.607 7.55425C136.142 8.09079 136.868 8.39259 137.625 8.39344V8.39344ZM137.324 12.2173C137.324 12.1372 137.355 12.0603 137.412 12.0037C137.468 11.947 137.545 11.9152 137.625 11.9152C137.705 11.9152 137.782 11.947 137.838 12.0037C137.895 12.0603 137.926 12.1372 137.926 12.2173V15.9381L137.324 15.9376V12.2173ZM125.942 28.1262C125.942 28.3469 125.854 28.5586 125.699 28.7147C125.543 28.8707 125.332 28.9584 125.112 28.9584C124.891 28.9584 124.68 28.8707 124.524 28.7147C124.369 28.5586 124.281 28.3469 124.281 28.1262V17.4981C124.281 17.3886 124.302 17.2801 124.343 17.1788C124.385 17.0775 124.446 16.9854 124.523 16.9078C124.6 16.8302 124.692 16.7686 124.792 16.7265C124.893 16.6844 125.001 16.6627 125.111 16.6626C125.22 16.6625 125.328 16.6839 125.429 16.7258C125.53 16.7677 125.622 16.8291 125.699 16.9065C125.776 16.984 125.837 17.076 125.879 17.1772C125.92 17.2784 125.942 17.3868 125.942 17.4963L125.942 28.1262ZM115.08 18.647C115.08 18.5209 115.13 18.4001 115.219 18.3109C115.308 18.2217 115.429 18.1716 115.555 18.1714H122.928V27.8776H115.555C115.429 27.8774 115.308 27.8272 115.219 27.7381C115.13 27.6489 115.08 27.528 115.08 27.4019V18.647Z" fill="white"/>
<path d="M181.733 11.6842C181.672 11.6231 181.6 11.5746 181.52 11.5415C181.44 11.5084 181.355 11.4915 181.269 11.4916H173.887V1.17659C173.887 1.0024 173.818 0.835404 173.695 0.712228C173.572 0.589053 173.405 0.519754 173.231 0.519531H168.847C168.673 0.519705 168.506 0.588964 168.383 0.712116C168.26 0.835268 168.191 1.00226 168.19 1.17645V11.4916H164.416C164.395 11.4918 164.375 11.4964 164.356 11.5051C164.337 11.5137 164.32 11.5263 164.306 11.542C164.131 11.7295 164.149 12.574 164.234 13.8761C164.245 14.0428 164.254 14.1795 164.257 14.2547L163.214 15.2987H161.429L160.224 15.4306L160.152 15.4386V34.8246C160.153 34.9985 160.222 35.165 160.345 35.2878C160.468 35.4105 160.635 35.4795 160.809 35.4795C160.982 35.4796 161.149 35.4107 161.272 35.288C161.395 35.1653 161.464 34.9988 161.465 34.8249V33.287H180.612V34.8246C180.613 34.9985 180.682 35.165 180.805 35.2877C180.928 35.4104 181.095 35.4793 181.269 35.4794C181.442 35.4794 181.609 35.4105 181.732 35.2878C181.855 35.1651 181.925 34.9985 181.925 34.8247V12.1487C181.925 12.0624 181.908 11.9769 181.875 11.8972C181.842 11.8175 181.794 11.7451 181.733 11.6842V11.6842ZM169.463 11.5726H169.47L169.463 11.5727V11.5726ZM169.503 11.4917V1.83361H172.574V11.4916L169.503 11.4917ZM172.655 11.4724L172.655 11.5323H172.655V11.4724ZM164.794 15.4546L164.782 15.3685L164.431 12.8056H180.612V31.9729H161.465V15.6701L164.707 15.4603L164.794 15.4546ZM164.701 15.3771L164.702 15.3795L164.515 15.3916L164.701 15.3771ZM173.846 11.5727V11.5726H173.865L173.846 11.5727ZM161.384 33.2466H161.384V33.2524L161.384 33.2466Z" fill="white"/>
<path d="M178.809 14.6107C178.749 14.5495 178.676 14.501 178.597 14.4679C178.517 14.4349 178.432 14.4179 178.346 14.418H163.731C163.712 14.4177 163.693 14.4212 163.675 14.4285C163.658 14.4357 163.642 14.4464 163.628 14.4601C163.575 14.5455 163.555 14.6479 163.573 14.7471C163.575 14.8168 163.578 14.9334 163.553 14.9586C163.551 14.9602 163.541 14.9684 163.503 14.9684C163.459 14.9665 163.414 14.9608 163.37 14.9515C163.325 14.9421 163.279 14.9363 163.233 14.9344C163.213 14.9315 163.193 14.933 163.173 14.9388C163.154 14.9446 163.136 14.9546 163.121 14.9679C163.106 14.9813 163.094 14.9978 163.086 15.0163C163.078 15.0348 163.074 15.0548 163.074 15.075V29.7041C163.074 29.8782 163.144 30.0453 163.267 30.1684C163.39 30.2916 163.557 30.3609 163.731 30.3611H178.345C178.519 30.361 178.686 30.2917 178.809 30.1686C178.932 30.0454 179.002 29.8784 179.002 29.7042V15.0751C179.002 14.9888 178.985 14.9033 178.952 14.8236C178.919 14.7439 178.871 14.6715 178.809 14.6107V14.6107ZM177.689 29.0478H174.514L174.638 28.921L174.654 28.9048C174.718 28.8403 174.759 28.7987 174.804 28.748C175.223 28.3101 175.551 27.7936 175.77 27.2283C175.989 26.6629 176.094 26.0599 176.079 25.4538C175.987 23.9822 175.43 22.5778 174.489 21.4433C174.428 21.3706 174.351 21.3122 174.265 21.2721C174.179 21.232 174.085 21.2112 173.99 21.2112C173.899 21.2111 173.809 21.2299 173.726 21.2665C173.597 21.3233 173.49 21.4202 173.42 21.5429C173.351 21.6656 173.322 21.8075 173.34 21.9476C173.381 22.2701 173.333 22.5979 173.199 22.8942C173.139 22.9591 173.059 23.0024 172.973 23.0175C172.886 23.0325 172.796 23.0184 172.718 22.9773C172.628 22.9316 172.55 22.8636 172.493 22.7797C172.436 22.6958 172.401 22.5987 172.391 22.4976C172.392 22.0524 172.437 21.6084 172.525 21.1719C172.55 21.0678 172.563 20.9611 172.564 20.8539C172.561 20.4465 172.447 20.0477 172.233 19.7013C172.018 19.3549 171.713 19.0744 171.35 18.8906C171.253 18.8373 171.144 18.8093 171.034 18.8094C171.019 18.8094 171.004 18.8099 170.989 18.8109C170.895 18.8174 170.803 18.8442 170.72 18.8897C170.637 18.9351 170.564 18.9981 170.508 19.0742C170.451 19.1503 170.412 19.2377 170.393 19.3305C170.373 19.4233 170.374 19.5192 170.395 19.6116C170.44 19.8135 170.452 20.0214 170.431 20.2272L170.426 20.2559L170.396 20.274C169.769 20.6215 169.242 21.1257 168.867 21.7376C168.702 22.0109 168.591 22.3134 168.539 22.6286L168.499 22.8647L168.398 22.647C168.354 22.5581 168.292 22.479 168.217 22.4143C168.11 22.3254 167.976 22.2742 167.837 22.2689L167.835 22.2689L167.814 22.2685C167.683 22.2683 167.555 22.3092 167.448 22.3856C166.938 22.7936 166.539 23.3234 166.287 23.9262C166.034 24.529 165.938 25.1856 166.005 25.8356C166.079 27.0061 166.584 28.1076 167.422 28.9272L167.551 29.0546H164.387V15.7317H177.689V29.0478ZM167.708 29.0958L167.625 29.0137L167.748 29.0953L167.708 29.0958ZM171.204 21.2213L171.128 21.2697L171.207 21.19L171.204 21.2213ZM174.289 23.5091L174.249 23.5603L174.28 23.4881L174.289 23.5091ZM167.31 25.3474L167.319 25.1991L167.432 25.2954C167.698 25.5168 168.033 25.6381 168.379 25.6384C168.407 25.6384 168.436 25.6376 168.465 25.6359C168.817 25.6288 169.156 25.499 169.422 25.269C169.689 25.0389 169.868 24.723 169.927 24.3755C169.972 24.0737 169.949 23.7654 169.857 23.4742C169.763 23.1396 169.799 22.7817 169.958 22.4725C169.999 22.4188 170.031 22.3593 170.055 22.296C170.31 21.9436 170.638 21.6504 171.016 21.4365L171.15 21.3517L171.134 21.5046C171.094 21.8792 171.081 22.2415 171.075 22.3963C171.072 22.4612 171.07 22.5074 171.068 22.5283C171.068 22.5546 171.07 22.5808 171.073 22.6068C171.104 22.9348 171.217 23.2498 171.402 23.5225C171.587 23.7951 171.837 24.0166 172.131 24.1664C172.475 24.344 172.869 24.3981 173.249 24.3197C173.628 24.2413 173.969 24.0352 174.215 23.7356L174.295 23.6324L174.344 23.752C174.576 24.3074 174.716 24.8968 174.759 25.4973C174.775 25.9246 174.705 26.3508 174.554 26.7509C174.403 27.1509 174.174 27.5167 173.879 27.8268L173.83 27.8788C173.489 28.2427 173.077 28.5333 172.62 28.7326C172.163 28.9319 171.67 29.0358 171.172 29.038L171.098 29.0383L171.097 29.0521C171.036 29.0552 170.976 29.0567 170.915 29.0567C170.437 29.0567 169.964 28.9622 169.522 28.7788C169.081 28.5953 168.679 28.3264 168.342 27.9875L168.318 27.9637H168.317C167.737 27.3747 167.381 26.6013 167.309 25.7771C167.302 25.634 167.302 25.4905 167.31 25.3474V25.3474ZM170.511 20.2357H170.511L170.511 20.2358L170.511 20.2357ZM168.59 23.7854L168.604 23.8359C168.642 23.9357 168.655 24.0433 168.642 24.1492C168.636 24.1949 168.613 24.2369 168.579 24.2673C168.544 24.2977 168.5 24.3145 168.453 24.3145H168.448L168.431 24.3149L168.41 24.3163C168.376 24.3163 168.342 24.3058 168.314 24.2862C168.285 24.2666 168.263 24.2388 168.251 24.2066C168.228 24.1451 168.218 24.0792 168.223 24.0136C168.233 23.7677 168.284 23.5251 168.373 23.2957L168.487 22.9785L168.518 23.3119C168.532 23.4711 168.556 23.6292 168.59 23.7854V23.7854ZM164.346 29.1355H164.359L164.346 29.1356V29.1355ZM174.377 29.1287H175.757L174.349 29.157L174.377 29.1287ZM177.77 29.0224L177.77 29.0882H177.77V29.0224ZM177.697 15.6508L177.73 15.6507V15.6508H177.697Z" fill="white"/>
<path d="M161.213 6.66995C160.841 6.29596 160.399 5.99933 159.912 5.79719C159.426 5.59505 158.904 5.49139 158.377 5.49219H158.377C157.447 5.49119 156.546 5.81291 155.827 6.40251C155.108 6.99211 154.615 7.81311 154.433 8.72556C154.251 9.638 154.391 10.5854 154.829 11.4063C155.266 12.2272 155.975 12.8708 156.833 13.2273C157.692 13.5839 158.647 13.6313 159.537 13.3616C160.426 13.0919 161.195 12.5216 161.712 11.7481C162.228 10.9746 162.461 10.0457 162.37 9.11966C162.279 8.19366 161.87 7.3279 161.213 6.66995V6.66995ZM158.377 12.3799C157.712 12.3806 157.068 12.1507 156.554 11.7293C156.04 11.3078 155.688 10.7209 155.557 10.0686C155.427 9.41637 155.527 8.73908 155.84 8.15222C156.153 7.56536 156.659 7.10525 157.273 6.85034C157.887 6.59542 158.57 6.56147 159.206 6.75427C159.842 6.94707 160.391 7.35468 160.76 7.90764C161.13 8.46059 161.296 9.12466 161.231 9.78664C161.166 10.4486 160.874 11.0675 160.404 11.5379C160.138 11.805 159.822 12.0169 159.474 12.1614C159.126 12.3059 158.753 12.3801 158.377 12.3799V12.3799Z" fill="white"/>
<path d="M166.557 7.75512C166.475 7.65345 166.361 7.5828 166.233 7.55481L165.014 7.28948C164.91 6.9784 164.784 6.675 164.638 6.38155L165.313 5.33074C165.383 5.22073 165.414 5.08985 165.4 4.95984C165.386 4.82982 165.328 4.70848 165.236 4.61595L163.267 2.64448C163.174 2.55203 163.053 2.494 162.923 2.48003C162.793 2.46607 162.662 2.49701 162.553 2.56771L161.503 3.24328C161.21 3.09664 160.906 2.97082 160.596 2.86676L160.331 1.64644C160.303 1.51865 160.232 1.40423 160.131 1.32217C160.029 1.2401 159.902 1.19534 159.772 1.19531H156.986C156.856 1.19532 156.729 1.24008 156.627 1.32214C156.526 1.40421 156.455 1.51865 156.427 1.64644L156.162 2.86676C155.851 2.97084 155.548 3.09665 155.255 3.24328L154.205 2.56771C154.096 2.49699 153.965 2.46605 153.835 2.48001C153.705 2.49398 153.584 2.55202 153.491 2.64448L151.522 4.61592C151.43 4.70841 151.372 4.82975 151.358 4.95979C151.344 5.08982 151.375 5.22072 151.445 5.33074L152.12 6.38155C151.974 6.67498 151.848 6.97838 151.744 7.28947L150.525 7.55476C150.397 7.58258 150.283 7.65327 150.201 7.7551C150.119 7.85693 150.074 7.98377 150.074 8.11455V10.9025C150.074 11.0333 150.119 11.1601 150.201 11.2619C150.283 11.3638 150.397 11.4345 150.525 11.4623L151.744 11.7275C151.848 12.0386 151.974 12.3421 152.12 12.6355L151.445 13.6864C151.375 13.7964 151.344 13.9273 151.358 14.0574C151.372 14.1874 151.43 14.3087 151.522 14.4012L153.491 16.3726C153.584 16.4651 153.705 16.5231 153.835 16.5371C153.965 16.551 154.096 16.5201 154.205 16.4494L155.255 15.7739C155.548 15.9205 155.851 16.0463 156.162 16.1503L156.427 17.3707C156.455 17.4985 156.526 17.6129 156.627 17.695C156.729 17.7771 156.856 17.8218 156.986 17.8218H159.772C159.902 17.8218 160.029 17.7771 160.131 17.695C160.232 17.613 160.303 17.4985 160.331 17.3707L160.596 16.1503C160.907 16.0463 161.21 15.9205 161.503 15.7739L162.552 16.4494C162.662 16.5201 162.793 16.551 162.923 16.5371C163.053 16.5231 163.174 16.4651 163.267 16.3726L165.236 14.4012C165.328 14.3087 165.386 14.1874 165.4 14.0573C165.414 13.9273 165.383 13.7964 165.313 13.6864L164.638 12.6355C164.784 12.342 164.91 12.0386 165.014 11.7275L166.233 11.4623C166.361 11.4345 166.475 11.3638 166.557 11.2619C166.639 11.1601 166.684 11.0333 166.684 10.9025V8.11463C166.684 7.98386 166.639 7.85705 166.557 7.75512ZM163.477 12.3815C163.426 12.4723 163.4 12.5754 163.403 12.6796C163.406 12.7838 163.437 12.8852 163.494 12.9729L164.101 13.9175L162.783 15.236L161.84 14.6287C161.752 14.5723 161.651 14.541 161.547 14.538H161.545C161.442 14.536 161.34 14.5615 161.249 14.6117C160.841 14.8425 160.406 15.023 159.954 15.1493C159.853 15.1773 159.763 15.2322 159.691 15.308C159.62 15.3838 159.57 15.4777 159.548 15.5795L159.31 16.6761H157.448L157.21 15.5795C157.187 15.4777 157.138 15.3839 157.067 15.3081C156.995 15.2322 156.904 15.1774 156.804 15.1493C156.352 15.023 155.917 14.8425 155.509 14.6118C155.423 14.5633 155.326 14.5379 155.228 14.5378C155.118 14.5386 155.011 14.5701 154.918 14.6287L153.975 15.236L152.658 13.9175L153.264 12.973C153.32 12.8853 153.352 12.7839 153.355 12.6797C153.358 12.5754 153.332 12.4724 153.281 12.3815C153.051 11.9726 152.87 11.5373 152.744 11.085C152.716 10.9847 152.661 10.8939 152.586 10.8223C152.51 10.7508 152.416 10.7013 152.314 10.6791L151.219 10.4407V8.57637L152.314 8.33805C152.416 8.31589 152.51 8.2664 152.585 8.19489C152.661 8.12338 152.716 8.03256 152.744 7.9322C152.87 7.47991 153.05 7.04454 153.281 6.63555C153.332 6.54478 153.358 6.44173 153.355 6.33752C153.352 6.23331 153.32 6.1319 153.264 6.04422L152.657 5.09963L153.974 3.78116L154.918 4.38845C155.006 4.44482 155.107 4.4762 155.211 4.4792H155.212L155.227 4.4794C155.326 4.47936 155.423 4.45386 155.509 4.40539C155.917 4.17465 156.352 3.99415 156.804 3.86781C156.904 3.83978 156.995 3.78492 157.067 3.70912C157.138 3.63332 157.187 3.53945 157.21 3.43762L157.448 2.34103H159.31L159.548 3.43762C159.57 3.53944 159.62 3.6333 159.691 3.7091C159.763 3.7849 159.853 3.83977 159.954 3.86781C160.406 3.99412 160.84 4.17462 161.249 4.40539C161.335 4.45382 161.432 4.47929 161.53 4.47936C161.64 4.4786 161.747 4.44711 161.84 4.38845L162.783 3.78116L164.1 5.09963L163.494 6.04422C163.437 6.1319 163.406 6.23331 163.403 6.33752C163.4 6.44172 163.426 6.54477 163.477 6.63555C163.707 7.04453 163.888 7.47991 164.014 7.9322C164.042 8.03253 164.097 8.12333 164.172 8.19483C164.248 8.26634 164.342 8.31585 164.443 8.33805L165.539 8.57643V10.4407L164.444 10.6791C164.342 10.7013 164.248 10.7508 164.173 10.8223C164.097 10.8939 164.042 10.9847 164.014 11.085C163.888 11.5373 163.707 11.9726 163.477 12.3815V12.3815Z" fill="white"/>
<path d="M212.394 15.2046C212.394 13.3447 211.842 11.5265 210.809 9.98008C209.775 8.43361 208.307 7.2283 206.588 6.51656C204.87 5.80482 202.979 5.61862 201.155 5.98152C199.331 6.34441 197.655 7.24009 196.34 8.55529C195.025 9.87049 194.129 11.5461 193.767 13.3703C193.404 15.1945 193.59 17.0854 194.302 18.8037C195.014 20.522 196.219 21.9906 197.766 23.0239C199.312 24.0571 201.13 24.6086 202.99 24.6085C205.483 24.6055 207.874 23.6138 209.636 21.8508C211.399 20.0879 212.391 17.6977 212.394 15.2046V15.2046ZM210.989 15.2046C210.989 16.7867 210.52 18.3332 209.641 19.6487C208.762 20.9641 207.513 21.9894 206.051 22.5948C204.59 23.2003 202.981 23.3587 201.43 23.05C199.878 22.7414 198.453 21.9795 197.334 20.8608C196.215 19.7422 195.454 18.3169 195.145 16.7652C194.836 15.2135 194.995 13.6052 195.6 12.1435C196.206 10.6819 197.231 9.43261 198.546 8.55366C199.862 7.67472 201.408 7.20558 202.99 7.20559C205.111 7.20708 207.145 8.05032 208.645 9.5501C210.145 11.0499 210.988 13.0836 210.989 15.2046H210.989Z" fill="white"/>
<path d="M214.53 24.8639C214.845 24.6969 215.12 24.462 215.334 24.1763C215.834 23.2464 215.959 22.1599 215.682 21.1409C215.554 20.5423 215.545 19.9245 215.655 19.3224C215.912 18.7978 216.268 18.3281 216.704 17.9393C217.546 17.2601 218.095 16.2838 218.239 15.2116C218.096 14.137 217.551 13.1567 216.712 12.4698L216.642 12.3947C216.234 12.0247 215.901 11.5802 215.661 11.0851C215.552 10.4832 215.562 9.86595 215.689 9.26766C215.964 8.2483 215.839 7.16256 215.341 6.23177C214.616 5.46929 213.627 5.01329 212.577 4.95749L212.512 4.94507C211.922 4.88244 211.351 4.70587 210.829 4.42519C210.399 4.0115 210.054 3.51683 209.816 2.96964C209.428 1.972 208.68 1.15599 207.72 0.682505C206.692 0.496319 205.631 0.712678 204.758 1.28679C204.217 1.59485 203.621 1.79563 203.004 1.87812C202.384 1.79483 201.785 1.59246 201.241 1.28214C200.37 0.711163 199.314 0.496504 198.289 0.682526C197.334 1.13431 196.591 1.93871 196.217 2.92669L196.187 2.98157C195.945 3.5219 195.603 4.01183 195.18 4.42573C194.648 4.71269 194.065 4.89149 193.463 4.95182C192.402 5.00588 191.402 5.46363 190.668 6.23128C190.166 7.16132 190.042 8.24877 190.32 9.26819C190.446 9.8668 190.455 10.4842 190.347 11.0862C190.09 11.6107 189.733 12.0803 189.298 12.4693C188.456 13.1484 187.906 14.1244 187.762 15.1965C187.904 16.2551 188.443 17.22 189.27 17.8959L189.367 17.9989C189.775 18.3685 190.107 18.8133 190.347 19.3089C190.455 19.9108 190.446 20.528 190.32 21.1264C190.045 22.1459 190.169 23.2321 190.668 24.1628C190.882 24.4488 191.156 24.684 191.471 24.8515L188.275 30.3848C188.206 30.5055 188.174 30.6442 188.183 30.7832C188.193 30.9222 188.243 31.0553 188.328 31.1656C188.413 31.2752 188.528 31.3576 188.659 31.4029C188.79 31.4481 188.932 31.4542 189.066 31.4204L193.765 30.1569L195.028 34.8565C195.066 34.9929 195.143 35.115 195.25 35.2073C195.357 35.2997 195.489 35.3582 195.63 35.3754C195.639 35.3757 195.648 35.3768 195.657 35.3785C195.672 35.3813 195.688 35.3827 195.704 35.3826C195.827 35.3832 195.948 35.3509 196.055 35.2892C196.162 35.2275 196.25 35.1386 196.311 35.0315L199.334 29.7903C200.005 29.6592 200.653 29.4292 201.256 29.1079C201.798 28.7992 202.394 28.598 203.012 28.5155C203.631 28.5981 204.228 28.7999 204.771 29.1099L204.801 29.1234C205.392 29.4422 206.029 29.6675 206.69 29.7914L209.712 35.0305C209.773 35.1378 209.861 35.2271 209.968 35.2889C210.075 35.3508 210.196 35.3831 210.319 35.3826C210.349 35.3841 210.378 35.3816 210.407 35.3753C210.545 35.3564 210.675 35.2971 210.779 35.205C210.884 35.113 210.959 34.9921 210.996 34.8575L212.258 30.1569L216.96 31.4203C217.094 31.4546 217.236 31.4484 217.367 31.4026C217.498 31.3569 217.613 31.2735 217.697 31.1629C217.781 31.0524 217.831 30.9195 217.84 30.781C217.849 30.6424 217.817 30.5042 217.748 30.3837L214.53 24.8639ZM192.805 25.3155C193.013 25.3621 193.227 25.4014 193.44 25.4418L193.487 25.4501C194.072 25.5136 194.64 25.6894 195.158 25.9679C195.588 26.3821 195.932 26.8769 196.17 27.424C196.529 28.2589 197.106 28.9819 197.841 29.5169L195.919 32.8681L194.92 29.1296C194.872 28.9491 194.754 28.7949 194.593 28.7008C194.432 28.6067 194.24 28.5803 194.059 28.6273L190.317 29.6277L192.805 25.3155ZM193.704 24.0696L193.669 24.0634C192.981 24.0258 192.321 23.7774 191.779 23.352C191.54 22.7017 191.507 21.9936 191.686 21.3242C191.849 20.5203 191.838 19.6906 191.652 18.8915C191.338 18.1612 190.872 17.5064 190.284 16.971C189.717 16.3745 189.13 15.7579 189.13 15.2115C189.13 14.6658 189.717 14.0491 190.291 13.4453C190.88 12.9147 191.344 12.2611 191.652 11.531C191.838 10.7321 191.849 9.90262 191.686 9.09887C191.509 8.42959 191.541 7.72196 191.779 7.07167C192.085 6.64707 192.944 6.4912 193.704 6.35295C194.513 6.26462 195.293 6.00155 195.99 5.58194C196.587 5.06727 197.065 4.428 197.389 3.70907L197.417 3.65729C197.807 2.94376 198.209 2.20589 198.712 2.04019C199.188 1.88749 199.955 2.25507 200.638 2.58181C201.36 2.99049 202.162 3.23748 202.989 3.3057C203.818 3.23716 204.623 2.98928 205.346 2.57923C206.029 2.25559 206.8 1.88899 207.266 2.04019C207.759 2.20226 208.156 2.92144 208.539 3.6169L208.582 3.69406C208.91 4.41709 209.39 5.06099 209.989 5.58197C210.686 6.00179 211.466 6.26488 212.276 6.35297L212.315 6.36075C213.001 6.39886 213.659 6.64725 214.2 7.0722C214.439 7.72194 214.472 8.43008 214.292 9.09889C214.127 9.90268 214.139 10.7329 214.327 11.5315C214.641 12.2619 215.107 12.9169 215.694 13.4526C216.263 14.0491 216.85 14.6658 216.85 15.2116C216.85 15.7578 216.263 16.3746 215.692 16.9742C215.101 17.5053 214.635 18.1602 214.327 18.8921C214.139 19.6906 214.127 20.5206 214.292 21.3243C214.471 21.9935 214.439 22.7017 214.2 23.352C213.893 23.7755 213.035 23.9319 212.276 24.0696C211.466 24.1579 210.686 24.4212 209.989 24.8412C209.393 25.3539 208.917 25.9909 208.594 26.7073L208.561 26.7664C208.171 27.4799 207.77 28.2183 207.267 28.384C206.583 28.4024 205.91 28.2124 205.336 27.8393C204.615 27.4321 203.814 27.1862 202.989 27.1184C202.16 27.187 201.356 27.4344 200.632 27.8434C199.95 28.1675 199.176 28.5331 198.713 28.384C198.22 28.2214 197.824 27.5037 197.441 26.8098L197.4 26.7332C197.071 26.0086 196.59 25.3633 195.99 24.8411C195.293 24.4212 194.513 24.158 193.704 24.0696V24.0696ZM209.806 27.4292C210.048 26.888 210.39 26.3973 210.813 25.9824C211.345 25.6961 211.929 25.5177 212.53 25.4574L212.596 25.4449C212.788 25.4077 212.979 25.3714 213.167 25.331L215.654 29.6412L211.92 28.6274H211.918C211.829 28.6036 211.736 28.5976 211.644 28.6099C211.552 28.6223 211.464 28.6526 211.384 28.6992C211.304 28.7458 211.234 28.8077 211.179 28.8814C211.123 28.9551 211.082 29.0391 211.059 29.1286L210.059 32.8702L208.131 29.5325C208.871 28.9971 209.45 28.2698 209.806 27.4291V27.4292Z" fill="white"/>
<path d="M207.665 11.4754L201.699 17.44L198.322 14.0629C198.188 13.9356 198.011 13.8646 197.826 13.8646C197.641 13.8646 197.463 13.9356 197.33 14.0629C197.199 14.1948 197.125 14.3732 197.125 14.5592C197.125 14.7451 197.199 14.9235 197.33 15.0555L201.207 18.9328C201.341 19.0623 201.52 19.1347 201.707 19.1347C201.893 19.1347 202.073 19.0623 202.207 18.9328L208.656 12.468C208.721 12.4029 208.773 12.3255 208.808 12.2404C208.844 12.1552 208.862 12.0639 208.862 11.9717C208.862 11.8795 208.844 11.7882 208.808 11.7031C208.773 11.6179 208.721 11.5406 208.656 11.4754C208.522 11.3483 208.345 11.2773 208.16 11.2773C207.976 11.2773 207.799 11.3483 207.665 11.4754V11.4754Z" fill="white"/>
<defs>
<clipPath id="clip0_618_765">
<rect width="36" height="36" fill="white" transform="translate(37)"/>
</clipPath>
</defs>
</svg>
