<svg width="22" height="22" viewBox="0 0 22 22" fill="none" xmlns="http://www.w3.org/2000/svg">
<path fill-rule="evenodd" clip-rule="evenodd" d="M11.8037 16.2334L11.8043 16.2202C11.8241 15.7465 11.4521 15.375 11.0005 15.375C10.5512 15.375 10.1699 15.7562 10.1699 16.2056C10.1699 16.655 10.5512 17.0362 11.0005 17.0362C11.4395 17.0362 11.8228 16.6465 11.8043 16.2466L11.8037 16.2334Z" fill="#E8645C"/>
<path fill-rule="evenodd" clip-rule="evenodd" d="M21.2057 18.9313C21.8623 17.7979 21.8659 16.4517 21.2145 15.3244L14.1313 3.05757C13.4839 1.91743 12.3176 1.24219 11.0049 1.24219C9.69247 1.24219 8.52553 1.92167 7.87796 3.05387L7.87734 3.05496L0.786835 15.3322C0.134617 16.4741 0.138874 17.8298 0.799098 18.9623C1.45088 20.082 2.61401 20.7535 3.91819 20.7535H18.0644C19.3717 20.7535 20.5442 20.0742 21.2057 18.9313ZM20.1871 18.3458C19.7404 19.116 18.9455 19.5762 18.0599 19.5762H3.91367C3.03939 19.5762 2.24765 19.127 1.80881 18.3681C1.36684 17.6023 1.36129 16.6832 1.80373 15.9115L8.8946 3.63815C9.33273 2.87073 10.1201 2.41498 11.0049 2.41498C11.886 2.41498 12.677 2.87525 13.1147 3.6419L20.201 15.9152C20.6355 16.6704 20.6283 17.5815 20.1871 18.3458Z" fill="#E8645C"/>
<path fill-rule="evenodd" clip-rule="evenodd" d="M10.2228 9.43223C10.2613 10.1128 10.2997 10.7865 10.3382 11.4604C10.3766 12.134 10.415 12.8079 10.4535 13.4885C10.4714 13.7901 10.6964 14.0017 10.9997 14.0017C11.2918 14.0017 11.5272 13.7804 11.5454 13.4707C11.5454 13.1964 11.5454 12.9289 11.5733 12.6329C11.5981 12.1979 11.624 11.763 11.6499 11.3285C11.6759 10.8925 11.7018 10.4569 11.7267 10.0213C11.7404 9.73614 11.7597 9.45145 11.7789 9.17022L11.779 9.16875C11.798 8.88811 11.8169 8.61089 11.8303 8.33418C11.8297 8.16406 11.8069 8.02816 11.7516 7.89671C11.5814 7.52695 11.1923 7.33831 10.7949 7.42861C10.4087 7.54217 10.1504 7.89374 10.1465 8.36204C10.1598 8.53775 10.172 8.71433 10.1841 8.88978C10.1966 9.06972 10.209 9.24897 10.2225 9.42643L10.2228 9.43223Z" fill="#E8645C"/>
</svg>
