<svg width="52" height="54" viewBox="0 0 52 54" fill="none" xmlns="http://www.w3.org/2000/svg">
<path d="M0 38.0723H8.99248V42.3457H0V38.0723Z" fill="#EE523F"/>
<path fill-rule="evenodd" clip-rule="evenodd" d="M8.6015 38.4608H0.390977V41.9572H8.6015V38.4608ZM0 38.0723V42.3457H8.99248V38.0723H0Z" fill="#2E2C2C"/>
<path d="M8.60205 38.0723H17.5945V42.3457H8.60205V38.0723Z" fill="#EE523F"/>
<path fill-rule="evenodd" clip-rule="evenodd" d="M17.2036 38.4608H8.99303V41.9572H17.2036V38.4608ZM8.60205 38.0723V42.3457H17.5945V38.0723H8.60205Z" fill="#2E2C2C"/>
<path d="M17.2026 38.0723H26.1951V42.3457H17.2026V38.0723Z" fill="#EE523F"/>
<path fill-rule="evenodd" clip-rule="evenodd" d="M25.8041 38.4608H17.5936V41.9572H25.8041V38.4608ZM17.2026 38.0723V42.3457H26.1951V38.0723H17.2026Z" fill="#2E2C2C"/>
<path d="M25.8047 38.0723H34.7972V42.3457H25.8047V38.0723Z" fill="#EE523F"/>
<path fill-rule="evenodd" clip-rule="evenodd" d="M34.4062 38.4608H26.1957V41.9572H34.4062V38.4608ZM25.8047 38.0723V42.3457H34.7972V38.0723H25.8047Z" fill="#2E2C2C"/>
<path d="M34.4053 38.0723H43.3978V42.3457H34.4053V38.0723Z" fill="#EE523F"/>
<path fill-rule="evenodd" clip-rule="evenodd" d="M43.0068 38.4608H34.7963V41.9572H43.0068V38.4608ZM34.4053 38.0723V42.3457H43.3978V38.0723H34.4053Z" fill="#2E2C2C"/>
<path d="M43.0073 38.0723H51.9998V42.3457H43.0073V38.0723Z" fill="#EE523F"/>
<path fill-rule="evenodd" clip-rule="evenodd" d="M51.6088 38.4608H43.3983V41.9572H51.6088V38.4608ZM43.0073 38.0723V42.3457H51.9998V38.0723H43.0073Z" fill="#2E2C2C"/>
<path d="M38.3159 41.957H47.3084V46.2304H38.3159V41.957Z" fill="#EE523F"/>
<path fill-rule="evenodd" clip-rule="evenodd" d="M46.9174 42.3455H38.7069V45.8419H46.9174V42.3455ZM38.3159 41.957V46.2304H47.3084V41.957H38.3159Z" fill="#2E2C2C"/>
<path d="M29.7148 41.957H38.7073V46.2304H29.7148V41.957Z" fill="#EE523F"/>
<path fill-rule="evenodd" clip-rule="evenodd" d="M38.3163 42.3455H30.1058V45.8419H38.3163V42.3455ZM29.7148 41.957V46.2304H38.7073V41.957H29.7148Z" fill="#2E2C2C"/>
<path d="M21.1118 41.957H30.1043V46.2304H21.1118V41.957Z" fill="#EE523F"/>
<path fill-rule="evenodd" clip-rule="evenodd" d="M29.7133 42.3455H21.5028V45.8419H29.7133V42.3455ZM21.1118 41.957V46.2304H30.1043V41.957H21.1118Z" fill="#2E2C2C"/>
<path d="M12.5112 41.957H21.5037V46.2304H12.5112V41.957Z" fill="#EE523F"/>
<path fill-rule="evenodd" clip-rule="evenodd" d="M21.1127 42.3455H12.9022V45.8419H21.1127V42.3455ZM12.5112 41.957V46.2304H21.5037V41.957H12.5112Z" fill="#2E2C2C"/>
<path d="M3.90918 41.957H12.9017V46.2304H3.90918V41.957Z" fill="#EE523F"/>
<path fill-rule="evenodd" clip-rule="evenodd" d="M12.5107 42.3455H4.30016V45.8419H12.5107V42.3455ZM3.90918 41.957V46.2304H12.9017V41.957H3.90918Z" fill="#2E2C2C"/>
<path d="M8.60205 45.8418H17.5945V50.1152H8.60205V45.8418Z" fill="#EE523F"/>
<path fill-rule="evenodd" clip-rule="evenodd" d="M17.2036 46.2303H8.99303V49.7267H17.2036V46.2303ZM8.60205 45.8418V50.1152H17.5945V45.8418H8.60205Z" fill="#2E2C2C"/>
<path d="M17.2026 45.8418H26.1951V50.1152H17.2026V45.8418Z" fill="#EE523F"/>
<path fill-rule="evenodd" clip-rule="evenodd" d="M25.8041 46.2303H17.5936V49.7267H25.8041V46.2303ZM17.2026 45.8418V50.1152H26.1951V45.8418H17.2026Z" fill="#2E2C2C"/>
<path d="M25.8047 45.8418H34.7972V50.1152H25.8047V45.8418Z" fill="#EE523F"/>
<path fill-rule="evenodd" clip-rule="evenodd" d="M34.4062 46.2303H26.1957V49.7267H34.4062V46.2303ZM25.8047 45.8418V50.1152H34.7972V45.8418H25.8047Z" fill="#2E2C2C"/>
<path d="M34.4053 45.8418H43.3978V50.1152H34.4053V45.8418Z" fill="#EE523F"/>
<path fill-rule="evenodd" clip-rule="evenodd" d="M43.0068 46.2303H34.7963V49.7267H43.0068V46.2303ZM34.4053 45.8418V50.1152H43.3978V45.8418H34.4053Z" fill="#2E2C2C"/>
<path d="M30.1055 49.7266H39.0979V54H30.1055V49.7266Z" fill="#EE523F"/>
<path fill-rule="evenodd" clip-rule="evenodd" d="M38.707 50.1151H30.4964V53.6115H38.707V50.1151ZM30.1055 49.7266V54H39.0979V49.7266H30.1055Z" fill="#2E2C2C"/>
<path d="M21.5034 49.7266H30.4959V54H21.5034V49.7266Z" fill="#EE523F"/>
<path fill-rule="evenodd" clip-rule="evenodd" d="M30.1049 50.1151H21.8944V53.6115H30.1049V50.1151ZM21.5034 49.7266V54H30.4959V49.7266H21.5034Z" fill="#2E2C2C"/>
<path d="M12.9028 49.7266H21.8953V54H12.9028V49.7266Z" fill="#EE523F"/>
<path fill-rule="evenodd" clip-rule="evenodd" d="M21.5043 50.1151H13.2938V53.6115H21.5043V50.1151ZM12.9028 49.7266V54H21.8953V49.7266H12.9028Z" fill="#2E2C2C"/>
<mask id="mask0_464_23401" style="mask-type:alpha" maskUnits="userSpaceOnUse" x="5" y="0" width="43" height="39">
<path d="M5.58398 21.1128C5.58398 9.72867 14.8126 0.5 26.1968 0.5C37.5809 0.5 46.8095 9.72866 46.8095 21.1128V37.9606H5.58398V21.1128Z" fill="white" stroke="#2E2C2C"/>
</mask>
<g mask="url(#mask0_464_23401)">
<path d="M5.08398 31.8574H47.3095V35.3538H5.08398V31.8574Z" fill="#EE523F"/>
<path fill-rule="evenodd" clip-rule="evenodd" d="M46.9186 32.2459H5.47496V34.9653H46.9186V32.2459ZM5.08398 31.8574V35.3538H47.3095V31.8574H5.08398Z" fill="#2E2C2C"/>
<path d="M5.08398 34.9648H47.3095V38.4613H5.08398V34.9648Z" fill="#EE523F"/>
<path fill-rule="evenodd" clip-rule="evenodd" d="M46.9186 35.3533H5.47496V38.0728H46.9186V35.3533ZM5.08398 34.9648V38.4613H47.3095V34.9648H5.08398Z" fill="#2E2C2C"/>
<path d="M5.08398 28.748H47.3095V32.2445H5.08398V28.748Z" fill="#EE523F"/>
<path fill-rule="evenodd" clip-rule="evenodd" d="M46.9186 29.1365H5.47496V31.856H46.9186V29.1365ZM5.08398 28.748V32.2445H47.3095V28.748H5.08398Z" fill="#2E2C2C"/>
<path d="M5.08398 25.6406H47.3095V29.137H5.08398V25.6406Z" fill="#EE523F"/>
<path fill-rule="evenodd" clip-rule="evenodd" d="M46.9186 26.0291H5.47496V28.7486H46.9186V26.0291ZM5.08398 25.6406V29.137H47.3095V25.6406H5.08398Z" fill="#2E2C2C"/>
<path d="M5.08398 22.5332H47.3095V26.0296H5.08398V22.5332Z" fill="#EE523F"/>
<path fill-rule="evenodd" clip-rule="evenodd" d="M46.9186 22.9217H5.47496V25.6411H46.9186V22.9217ZM5.08398 22.5332V26.0296H47.3095V22.5332H5.08398Z" fill="#2E2C2C"/>
<path d="M5.08398 14.375L26.1968 20.0081L47.3095 14.375V18.6484L26.1968 20.5909L5.08398 18.6484V14.375Z" fill="#EE523F"/>
<path fill-rule="evenodd" clip-rule="evenodd" d="M26.1968 20.0081L5.08398 14.375V18.6484L26.1968 20.5909L47.3095 18.6484V14.375L26.1968 20.0081ZM46.9186 14.8816L27.3962 20.0903L46.9186 18.2942V14.8816ZM24.9973 20.0903L5.47496 14.8816V18.2942L24.9973 20.0903Z" fill="#2E2C2C"/>
<path d="M5.08398 9.32422L26.1968 19.8135L47.3095 9.32422V14.7631L26.1968 20.3962L5.08398 14.7631V9.32422Z" fill="#EE523F"/>
<path fill-rule="evenodd" clip-rule="evenodd" d="M26.1968 19.8135L5.08398 9.32422V14.7631L26.1968 20.3962L47.3095 14.7631V9.32422L26.1968 19.8135ZM46.9186 9.95281L27.3005 19.6995L46.9186 14.4652V9.95281ZM25.0931 19.6995L5.47496 9.95281V14.4652L25.0931 19.6995Z" fill="#2E2C2C"/>
<path d="M5.08398 3.88477L26.1968 19.4244L47.3095 3.88477V9.71213L26.1968 20.2014L5.08398 9.71213V3.88477Z" fill="#EE523F"/>
<path fill-rule="evenodd" clip-rule="evenodd" d="M26.1968 19.4244L5.08398 3.88477V9.71213L26.1968 20.2014L47.3095 9.71213V3.88477L26.1968 19.4244ZM46.9186 4.656L26.7855 19.4745L46.9186 9.47203V4.656ZM25.608 19.4745L5.47496 4.656V9.47203L25.608 19.4745Z" fill="#2E2C2C"/>
<path d="M7.45947 6.02097L26.1971 19.8124L45.7459 5.42384L42.6181 1.42383L26.1971 18.6469L10.6403 2.33031L7.45947 6.02097Z" fill="#EE523F"/>
<path fill-rule="evenodd" clip-rule="evenodd" d="M26.1971 18.6469L42.6181 1.42383L45.7459 5.42384L26.1971 19.8124L7.45947 6.02097L10.6403 2.33031L26.1971 18.6469ZM10.6549 2.91056L26.1971 19.2118L42.5888 2.01949L45.1917 5.34829L26.1971 19.3289L8.02938 5.95697L10.6549 2.91056Z" fill="#2E2C2C"/>
<path d="M9.97217 2.31713L26.1977 19.0366L43.3519 1.36029L39.6864 -2.26562L26.1977 17.0942L14.0774 -0.301588L9.97217 2.31713Z" fill="#EE523F"/>
<path fill-rule="evenodd" clip-rule="evenodd" d="M14.0774 -0.301588L9.97217 2.31713L26.1977 19.0366L43.3519 1.36029L39.6864 -2.26562L26.1977 17.0942L14.0774 -0.301588ZM39.7418 -1.66263L26.1977 17.7767L13.9709 0.228022L10.5844 2.38827L26.1977 18.4769L42.8033 1.36585L39.7418 -1.66263Z" fill="#2E2C2C"/>
<path d="M12.3042 -2.13549L26.1978 17.6775L39.4103 -1.16426L34.6905 -3.68945L26.1978 17.0948L17.705 -3.68945L12.3042 -2.13549Z" fill="#EE523F"/>
<path fill-rule="evenodd" clip-rule="evenodd" d="M17.705 -3.68945L12.3042 -2.13549L26.1978 17.6775L39.4103 -1.16426L34.6905 -3.68945L26.1978 17.0948L17.705 -3.68945ZM25.0917 15.4207L17.4753 -3.21891L12.9367 -1.91303L25.0917 15.4207ZM27.3038 15.4207L38.8388 -1.02881L34.8888 -3.14212L27.3038 15.4207Z" fill="#2E2C2C"/>
<path d="M23.46 -1.55469H29.3246V8.93456H23.46V-1.55469Z" fill="#EE523F"/>
<path d="M15.6416 -7.57494L26.198 17.8712L36.7544 -7.57494L29.6686 -9.12891L26.198 16.5115L22.7274 -9.12891L15.6416 -7.57494Z" fill="#EE523F"/>
<path fill-rule="evenodd" clip-rule="evenodd" d="M22.7274 -9.12891L15.6416 -7.57494L26.198 17.8712L36.7544 -7.57494L29.6686 -9.12891L26.198 16.5115L22.7274 -9.12891ZM26.3177 16.5633H26.0783L26.198 16.8518L26.3177 16.5633ZM25.6808 15.6052L16.1805 -7.29529L22.3966 -8.65851L25.6808 15.6052ZM26.7152 15.6052L36.2155 -7.29529L29.9994 -8.65851L26.7152 15.6052Z" fill="#2E2C2C"/>
<path d="M5.08398 18.2598L26.1968 20.2022L47.3095 18.2598V22.9217H5.08398V18.2598Z" fill="#EE523F"/>
<path fill-rule="evenodd" clip-rule="evenodd" d="M26.1968 20.2022L5.08398 18.2598V22.9217H47.3095V18.2598L26.1968 20.2022ZM46.9186 18.6859L26.1968 20.5924L5.47496 18.6859V22.5332H46.9186V18.6859Z" fill="#2E2C2C"/>
</g>
<path fill-rule="evenodd" clip-rule="evenodd" d="M26.5858 0.388491H25.8038C14.5754 0.388491 5.47301 9.43302 5.47301 20.59V38.0721H46.9166V20.59C46.9166 9.43302 37.8142 0.388491 26.5858 0.388491ZM25.8038 0C14.3595 0 5.08203 9.21846 5.08203 20.59V38.4606H47.3076V20.59C47.3076 9.21846 38.0301 0 26.5858 0H25.8038Z" fill="#2E2C2C"/>
<mask id="mask1_464_23401" style="mask-type:alpha" maskUnits="userSpaceOnUse" x="12" y="7" width="28" height="32">
<path d="M13.4023 20.6741C13.4023 13.6086 19.1301 7.88086 26.1956 7.88086C33.2611 7.88086 38.9888 13.6086 38.9888 20.6741V37.9601H13.4023V20.6741Z" fill="url(#paint0_linear_464_23401)" stroke="#2E2C2C"/>
</mask>
<g mask="url(#mask1_464_23401)">
<path d="M12.9023 20.6741C12.9023 13.3324 18.8539 7.38086 26.1956 7.38086C33.5372 7.38086 39.4888 13.3324 39.4888 20.6741V38.4601H12.9023V20.6741Z" fill="url(#paint1_linear_464_23401)"/>
<path d="M39.8123 29.9138C41.0634 31.3124 40.3336 35.9354 39.8123 38.0721L23.1958 37.8777C19.7422 37.9425 12.7568 38.0332 12.444 37.8777C12.053 37.6832 12.053 33.6043 12.2485 33.2159C12.4049 32.9051 13.7473 31.7914 14.3989 31.2733C14.2034 31.6618 13.8124 32.6719 13.8124 33.6043C13.8124 34.5367 14.4641 35.1582 14.7899 35.3525C14.7248 34.6403 14.6335 32.8274 14.7899 31.2733C14.9854 29.3308 17.3313 27.5828 18.5042 26.4172C19.4426 25.4847 18.8952 24.0862 18.5042 23.5035C19.0907 23.7625 20.4982 24.7467 21.4366 26.6115C22.3749 28.4763 21.3062 30.4964 20.6546 31.2733C21.3714 30.6259 22.9223 29.1366 23.3914 28.3597C23.9779 27.3884 23.9779 25.6402 23.3914 23.892C22.9223 22.4934 20.3288 21.1078 19.0907 20.5898C20.2636 20.5898 23.5087 21.0172 27.1057 22.7265C30.7027 24.4359 31.8626 28.8776 31.9929 30.8848C32.1233 30.2374 32.6185 28.6705 33.5569 27.5828C34.4689 26.5255 35.7011 26.4836 36.2482 26.601C36.2697 26.5982 36.2846 26.6025 36.2937 26.6115C36.2791 26.6079 36.2639 26.6044 36.2482 26.601C36.1155 26.618 35.7326 26.9015 34.9251 27.9712C33.7523 29.5252 34.7296 31.4677 34.5341 30.4964C34.3777 29.7194 35.1206 29.0072 35.5115 28.7482C35.5115 29.331 35.6288 30.6907 36.098 31.4677C36.5672 32.2446 37.3361 32.9569 37.6619 33.2159C37.6619 32.6979 37.6228 31.4288 37.4664 30.4964C37.31 29.564 36.489 28.6835 36.098 28.3598C36.8148 28.2951 38.5612 28.5152 39.8123 29.9138Z" fill="url(#paint2_linear_464_23401)"/>
<g style="mix-blend-mode:soft-light">
<path d="M39.8123 29.9138C41.0634 31.3124 40.3336 35.9354 39.8123 38.0721L23.1958 37.8777C19.7422 37.9425 12.7568 38.0332 12.444 37.8777C12.053 37.6832 12.053 33.6043 12.2485 33.2159C12.4049 32.9051 13.7473 31.7914 14.3989 31.2733C14.2034 31.6618 13.8124 32.6719 13.8124 33.6043C13.8124 34.5367 14.4641 35.1582 14.7899 35.3525C14.7248 34.6403 14.6335 32.8274 14.7899 31.2733C14.9854 29.3308 17.3313 27.5828 18.5042 26.4172C19.4426 25.4847 18.8952 24.0862 18.5042 23.5035C19.0907 23.7625 20.4982 24.7467 21.4366 26.6115C22.3749 28.4763 21.3062 30.4964 20.6546 31.2733C21.3714 30.6259 22.9223 29.1366 23.3914 28.3597C23.9779 27.3884 23.9779 25.6402 23.3914 23.892C22.9223 22.4934 20.3288 21.1078 19.0907 20.5898C20.2636 20.5898 23.5087 21.0172 27.1057 22.7265C30.7027 24.4359 31.8626 28.8776 31.9929 30.8848C32.1233 30.2374 32.6185 28.6705 33.5569 27.5828C34.4689 26.5255 35.7011 26.4836 36.2482 26.601C36.2697 26.5982 36.2846 26.6025 36.2937 26.6115C36.2791 26.6079 36.2639 26.6044 36.2482 26.601C36.1155 26.618 35.7326 26.9015 34.9251 27.9712C33.7523 29.5252 34.7296 31.4677 34.5341 30.4964C34.3777 29.7194 35.1206 29.0072 35.5115 28.7482C35.5115 29.331 35.6288 30.6907 36.098 31.4677C36.5672 32.2446 37.3361 32.9569 37.6619 33.2159C37.6619 32.6979 37.6228 31.4288 37.4664 30.4964C37.31 29.564 36.489 28.6835 36.098 28.3598C36.8148 28.2951 38.5612 28.5152 39.8123 29.9138Z" fill="url(#paint3_linear_464_23401)"/>
</g>
<path d="M15.5972 35.2574C15.195 34.5089 13.7535 35.5693 13.083 36.1931V39H39.7338L40.2559 35.2574C40.0883 35.5693 38.6275 36.1931 38.2252 36.1931C37.8229 36.1931 36.7167 37.4406 36.2138 38.0644C36.0462 37.4406 35.5099 36.1931 34.7053 36.1931C33.9008 36.1931 33.0292 36.8168 32.6939 37.1287H31.1854C30.6826 36.8168 29.5763 36.1931 29.174 36.1931H26.157C25.1513 36.1931 24.1456 35.2574 23.6427 35.2574C23.1399 35.2574 21.6314 36.1931 20.6257 36.1931C19.8211 36.1931 18.6143 35.5693 18.1115 35.2574C17.441 35.5693 15.9995 36.006 15.5972 35.2574Z" fill="url(#paint4_linear_464_23401)"/>
</g>
<path fill-rule="evenodd" clip-rule="evenodd" d="M39.0983 38.0716V20.5895C39.0983 13.5091 33.3218 7.76935 26.1961 7.76935C19.0703 7.76935 13.2938 13.5091 13.2938 20.5895V38.0716H39.0983ZM26.1961 7.38086C18.8544 7.38086 12.9028 13.2946 12.9028 20.5895V38.4601H39.4893V20.5895C39.4893 13.2946 33.5377 7.38086 26.1961 7.38086Z" fill="#2E2C2C"/>
<circle cx="6.21689" cy="33.9762" r="0.15" fill="#2E2C2C"/>
<circle cx="7.73838" cy="29.9039" r="0.15" fill="#2E2C2C"/>
<circle cx="1.34434" cy="40.15" r="0.15" fill="#2E2C2C"/>
<circle cx="5.91709" cy="41.0836" r="0.15" fill="#2E2C2C"/>
<circle cx="8.81797" cy="44.1832" r="0.15" fill="#2E2C2C"/>
<circle cx="12.0616" cy="39.8492" r="0.15" fill="#2E2C2C"/>
<circle cx="20.3155" cy="48.4156" r="0.15" fill="#2E2C2C"/>
<circle cx="19.525" cy="39.5484" r="0.15" fill="#2E2C2C"/>
<circle cx="13.9903" cy="44.8902" r="0.15" fill="#2E2C2C"/>
<circle cx="23.5484" cy="43.4" r="0.15" fill="#2E2C2C"/>
<circle cx="31.1637" cy="40.9332" r="0.15" fill="#2E2C2C"/>
<circle cx="37.4855" cy="40.6324" r="0.15" fill="#2E2C2C"/>
<circle cx="48.2613" cy="39.8492" r="0.15" fill="#2E2C2C"/>
<circle cx="45.5514" cy="44.484" r="0.15" fill="#2E2C2C"/>
<circle cx="37.1856" cy="45.1891" r="0.15" fill="#2E2C2C"/>
<circle cx="33.2408" cy="44.3336" r="0.15" fill="#2E2C2C"/>
<circle cx="36.4078" cy="48.8668" r="0.15" fill="#2E2C2C"/>
<circle cx="27.5709" cy="48.566" r="0.15" fill="#2E2C2C"/>
<circle cx="23.0987" cy="51.0152" r="0.15" fill="#2E2C2C"/>
<circle cx="34.4269" cy="52.7379" r="0.15" fill="#2E2C2C"/>
<circle cx="18.4547" cy="51.9527" r="0.15" fill="#2E2C2C"/>
<circle cx="14.2901" cy="53.0387" r="0.15" fill="#2E2C2C"/>
<circle cx="11.8614" cy="24.5523" r="0.15" fill="#2E2C2C"/>
<circle cx="8.12119" cy="21.9508" r="0.15" fill="#2E2C2C"/>
<circle cx="12.3614" cy="18.2164" r="0.15" fill="#2E2C2C"/>
<circle cx="13.9903" cy="8.73984" r="0.15" fill="#2E2C2C"/>
<circle cx="23.2486" cy="4.07969" r="0.15" fill="#2E2C2C"/>
<circle cx="35.0133" cy="3.38047" r="0.15" fill="#2E2C2C"/>
<circle cx="33.5406" cy="8.23984" r="0.15" fill="#2E2C2C"/>
<circle cx="38.6236" cy="12.1852" r="0.15" fill="#2E2C2C"/>
<circle cx="45.4015" cy="21.652" r="0.15" fill="#2E2C2C"/>
<circle cx="41.1158" cy="23.9527" r="0.15" fill="#2E2C2C"/>
<circle cx="45.8702" cy="27.8414" r="0.15" fill="#2E2C2C"/>
<circle cx="42.3556" cy="37.4508" r="0.15" fill="#2E2C2C"/>
<circle cx="45.2516" cy="36.6168" r="0.15" fill="#2E2C2C"/>
<circle cx="42.6056" cy="30.0035" r="0.15" fill="#2E2C2C"/>
<circle cx="44.9518" cy="24.8531" r="0.15" fill="#2E2C2C"/>
<circle cx="40.816" cy="17.9176" r="0.15" fill="#2E2C2C"/>
<circle cx="42.9234" cy="13.5934" r="0.15" fill="#2E2C2C"/>
<circle cx="39.7052" cy="7.32188" r="0.15" fill="#2E2C2C"/>
<circle cx="27.2711" cy="2.52891" r="0.15" fill="#2E2C2C"/>
<circle cx="18.7545" cy="3.23008" r="0.15" fill="#2E2C2C"/>
<circle cx="18.4547" cy="8.73984" r="0.15" fill="#2E2C2C"/>
<circle cx="13.3146" cy="12.0348" r="0.15" fill="#2E2C2C"/>
<circle cx="7.21689" cy="13.8922" r="0.15" fill="#2E2C2C"/>
<circle cx="29.4308" cy="6.29063" r="0.15" fill="#2E2C2C"/>
<defs>
<linearGradient id="paint0_linear_464_23401" x1="26.1956" y1="7.38086" x2="26.1956" y2="38.4601" gradientUnits="userSpaceOnUse">
<stop offset="0.0572917" stop-color="#170200"/>
<stop offset="0.567708" stop-color="#A02013"/>
<stop offset="1" stop-color="#C73B0F"/>
</linearGradient>
<linearGradient id="paint1_linear_464_23401" x1="26.1956" y1="10.4888" x2="26.1956" y2="38.4601" gradientUnits="userSpaceOnUse">
<stop offset="0.0572917" stop-color="#170200"/>
<stop offset="0.623331" stop-color="#A02013"/>
<stop offset="1" stop-color="#C73B0F"/>
</linearGradient>
<linearGradient id="paint2_linear_464_23401" x1="26.1953" y1="20.5898" x2="26.322" y2="35.1583" gradientUnits="userSpaceOnUse">
<stop offset="0.125" stop-color="#FFC52F"/>
<stop offset="1" stop-color="#FA610B"/>
</linearGradient>
<linearGradient id="paint3_linear_464_23401" x1="16.1025" y1="31.4999" x2="36.7189" y2="36.5604" gradientUnits="userSpaceOnUse">
<stop stop-color="#FFC52F"/>
<stop offset="0.169767" stop-color="#FA610B"/>
<stop offset="0.335822" stop-color="#FFC52F"/>
<stop offset="0.518348" stop-color="#FA610B"/>
<stop offset="0.727054" stop-color="#FFC52F"/>
<stop offset="1" stop-color="#FA610B"/>
</linearGradient>
<linearGradient id="paint4_linear_464_23401" x1="26.6695" y1="35.4" x2="26.6695" y2="39" gradientUnits="userSpaceOnUse">
<stop stop-color="#C73B0F"/>
<stop offset="0.255208" stop-color="#A02013"/>
<stop offset="0.557292" stop-color="#170200"/>
</linearGradient>
</defs>
</svg>
