<svg width="40" height="40" viewBox="0 0 40 40" fill="none" xmlns="http://www.w3.org/2000/svg">
<g clip-path="url(#clip0_874_364)">
<path d="M12.8728 27.1303H14.3133C14.8518 27.1303 15.2899 26.6923 15.2899 26.1537V24.2951H15.6619C16.0641 24.2951 16.4202 24.0537 16.5691 23.6801C16.7179 23.3064 16.6255 22.8862 16.3335 22.6097L14.3624 20.7421C13.9927 20.3919 13.4261 20.3819 13.0443 20.7191L10.9299 22.5867C10.6227 22.858 10.518 23.281 10.663 23.6642C10.808 24.0475 11.1665 24.2951 11.5763 24.2951H11.8963V26.1537C11.8963 26.6922 12.3343 27.1303 12.8728 27.1303ZM13.6862 21.7157L15.1718 23.1233H14.704C14.3804 23.1233 14.1181 23.3856 14.1181 23.7092V25.9584H13.0682V23.7092C13.0682 23.3856 12.8059 23.1233 12.4823 23.1233H12.0926L13.6862 21.7157Z" fill="#F5978C"/>
<path d="M35.6438 3.78929C35.3725 3.4821 34.9495 3.37734 34.5663 3.52234C34.183 3.66734 33.9353 4.02593 33.9353 4.4357V4.75562H31.1135V4.38359C31.1135 3.9814 30.8721 3.62531 30.4985 3.4764C30.125 3.32757 29.7047 3.41992 29.4281 3.71195L27.5605 5.68296C27.2102 6.05273 27.2003 6.61945 27.5375 7.00109L29.405 9.11554C29.6764 9.42273 30.0994 9.5275 30.4825 9.38242C30.8658 9.23742 31.1135 8.8789 31.1135 8.46906V8.14914H33.9352V8.52117C33.9352 8.92335 34.1766 9.27945 34.5502 9.42835C34.6687 9.47554 34.7919 9.49851 34.9137 9.49851C35.1759 9.49851 35.4318 9.39218 35.6207 9.19281L37.4882 7.22179C37.8385 6.85203 37.8484 6.28539 37.5112 5.90367L35.6438 3.78929ZM35.1071 8.03124V7.56335C35.1071 7.23976 34.8448 6.97742 34.5212 6.97742H30.5276C30.204 6.97742 29.9417 7.23976 29.9417 7.56335V7.95304L28.5341 6.35945L29.9417 4.87382V5.34164C29.9417 5.66523 30.204 5.92757 30.5276 5.92757H34.5212C34.8448 5.92757 35.1071 5.66523 35.1071 5.34164V4.95195L36.5147 6.54562L35.1071 8.03124Z" fill="#F5978C"/>
<path fill-rule="evenodd" clip-rule="evenodd" d="M37.2266 0H27.8223C26.293 0 25.0489 1.24789 25.0489 2.78172V10.3734H8.23523C7.48141 10.3734 6.86805 10.9867 6.86805 11.7405V14.5088L6.86813 17.3469V26.1429L4.35938 28.6516C3.83461 29.1763 3.13688 29.4654 2.39469 29.4654H0.976563C0.438047 29.4654 0 29.9034 0 30.442V39.0234C0 39.562 0.438047 40 0.976563 40H14.2615C15.2836 40 16.1423 39.1847 16.1757 38.1825C16.1855 37.8884 16.1286 37.6034 16.0113 37.3442C16.8116 37.1279 17.4022 36.3955 17.4022 35.5277C17.4022 35.388 17.3866 35.252 17.3576 35.1209H22.6422C22.6132 35.252 22.5976 35.388 22.5976 35.5277C22.5976 36.3955 23.1881 37.1279 23.9884 37.3442C23.8712 37.6034 23.8143 37.8884 23.8241 38.1825C23.8575 39.1847 24.7163 40 25.7383 40H39.0234C39.562 40 40 39.562 40 39.0234V30.4419C40 29.9034 39.562 29.4653 39.0234 29.4653H37.6053C36.8631 29.4653 36.1654 29.1763 35.6406 28.6515L33.132 26.1428V15.1344V12.9021H31.9601V15.1344V25.0319C31.6425 24.8248 31.2718 24.7134 30.8838 24.7134C30.3559 24.7134 29.8595 24.919 29.4862 25.2923C28.7155 26.0629 28.7155 27.3168 29.4862 28.0874L29.8633 28.4645H24.5131C23.491 28.4645 22.6323 29.2798 22.5989 30.282C22.5892 30.57 22.6437 30.8494 22.7562 31.1044C21.9241 31.2984 21.3024 32.0464 21.3024 32.9368C21.3024 33.3095 21.4125 33.6564 21.6002 33.9491H18.4001C18.5877 33.6565 18.6978 33.3095 18.6978 32.9368C18.6978 32.0465 18.0761 31.2985 17.2441 31.1045C17.3565 30.8495 17.4109 30.5701 17.4013 30.282C17.3679 29.2799 16.5091 28.4646 15.4871 28.4646H10.1367L10.5139 28.0875C11.2845 27.3168 11.2845 26.0629 10.5139 25.2923C10.1406 24.9191 9.64422 24.7134 9.11633 24.7134C8.72828 24.7134 8.35758 24.8248 8.04 25.032V17.3469L8.03992 14.5088V11.7406C8.03992 11.633 8.12758 11.5453 8.23523 11.5453H16.7859V17.4755C16.7859 17.8533 16.9972 18.1902 17.3373 18.3546C17.6773 18.5191 18.0726 18.4756 18.3688 18.241L20 16.9493L21.6312 18.2411C21.8083 18.3813 22.0208 18.4533 22.2358 18.4533C22.3803 18.4533 22.5259 18.4207 22.6627 18.3546C23.0027 18.1902 23.214 17.8533 23.214 17.4755V11.5453H25.0488V14.1175C25.0488 14.5059 25.2686 14.8467 25.6223 15.007C25.754 15.0666 25.892 15.0959 26.0288 15.0959C26.2595 15.0959 26.4859 15.0126 26.6692 14.8517L28.4404 13.2988C28.7321 13.043 29.106 12.9021 29.4931 12.9021H31.9601H33.132H37.2266C38.7559 12.9021 40 11.6542 40 10.1204V2.78172C40 1.24789 38.7559 0 37.2266 0ZM20.6062 15.9345L22.0422 17.0717L22.0421 11.5453H17.9577V17.0717L19.3937 15.9346C19.7506 15.652 20.2492 15.652 20.6062 15.9345ZM37.2266 11.7303C38.1097 11.7303 38.8281 11.0081 38.8281 10.1205V2.78172C38.8281 1.89406 38.1097 1.17188 37.2266 1.17188H27.8224C26.9393 1.17188 26.2209 1.89406 26.2209 2.78172V13.6865L27.6679 12.4177C28.1734 11.9745 28.8216 11.7303 29.4932 11.7303H37.2266ZM10.7859 36.8231C10.7859 36.4995 11.0483 36.2372 11.3719 36.2372H15.5209C15.9121 36.2372 16.2304 35.9189 16.2304 35.5277C16.2304 35.1364 15.912 34.8181 15.5209 34.8181H11.3719C11.0483 34.8181 10.7859 34.5558 10.7859 34.2322C10.7859 33.9086 11.0483 33.6462 11.3719 33.6462H16.8163C17.2076 33.6462 17.5259 33.328 17.5259 32.9367C17.5259 32.5455 17.2075 32.2272 16.8163 32.2272H11.3719C11.0483 32.2272 10.7859 31.9648 10.7859 31.6413C10.7859 31.3177 11.0483 31.0553 11.3719 31.0553H15.5209C15.7149 31.0553 15.896 30.9785 16.0309 30.839C16.1657 30.6996 16.2364 30.5156 16.2299 30.321C16.2173 29.9435 15.884 29.6363 15.4869 29.6363H8.72211C8.48516 29.6363 8.27148 29.4936 8.18078 29.2746C8.09008 29.0557 8.14023 28.8037 8.30781 28.6361L9.68516 27.2587C9.99883 26.9451 9.99891 26.4346 9.68516 26.1209C9.53313 25.9688 9.33109 25.8852 9.11617 25.8852C8.90125 25.8852 8.69922 25.9689 8.54727 26.1209L5.18797 29.4802C4.44187 30.2263 3.44984 30.6372 2.39469 30.6372H1.17188V38.8281H14.2614C14.6585 38.8281 14.9918 38.5209 15.0045 38.1434C15.0109 37.9488 14.9403 37.7648 14.8055 37.6255C14.6705 37.4859 14.4894 37.4091 14.2954 37.4091H11.3719C11.0483 37.4091 10.7859 37.1467 10.7859 36.8231ZM25.7385 38.8281H38.8281V30.6372H37.6053C36.5502 30.6372 35.5581 30.2263 34.812 29.4802L31.4527 26.1209C31.3007 25.9688 31.0987 25.8852 30.8838 25.8852C30.6688 25.8852 30.4667 25.9689 30.3148 26.1209C30.001 26.4345 30.001 26.945 30.3148 27.2587L31.6921 28.6361C31.8597 28.8037 31.9098 29.0556 31.8191 29.2746C31.7284 29.4936 31.5148 29.6363 31.2778 29.6363H24.513C24.1159 29.6363 23.7827 29.9434 23.77 30.321C23.7635 30.5156 23.8341 30.6996 23.969 30.839C24.1039 30.9785 24.2851 31.0553 24.4791 31.0553H28.628C28.9516 31.0553 29.214 31.3177 29.214 31.6413C29.214 31.9648 28.9516 32.2272 28.628 32.2272H23.1836C22.7923 32.2272 22.4741 32.5455 22.4741 32.9367C22.4741 33.328 22.7924 33.6462 23.1836 33.6462H28.628C28.9516 33.6462 29.214 33.9086 29.214 34.2322C29.214 34.5558 28.9516 34.8181 28.628 34.8181H24.4791C24.0878 34.8181 23.7695 35.1364 23.7695 35.5277C23.7695 35.9189 24.0879 36.2372 24.4791 36.2372H28.628C28.9516 36.2372 29.214 36.4995 29.214 36.8231C29.214 37.1467 28.9516 37.4091 28.628 37.4091H25.7045C25.5105 37.4091 25.3294 37.4859 25.1945 37.6255C25.0597 37.7648 24.989 37.9488 24.9955 38.1434C25.008 38.5209 25.3414 38.8281 25.7385 38.8281Z" fill="#F5978C"/>
</g>
<defs>
<clipPath id="clip0_874_364">
<rect width="40" height="40" fill="white"/>
</clipPath>
</defs>
</svg>
