<svg width="112" height="112" viewBox="0 0 112 112" fill="none" xmlns="http://www.w3.org/2000/svg">
<g filter="url(#filter0_d_684_3004)">
<circle cx="56" cy="56" r="36" fill="#EE523F"/>
</g>
<path d="M68.1925 57.9093L50.1925 69.1593C49.8283 69.3867 49.4141 69.501 49 69.501C48.6248 69.501 48.2491 69.4077 47.909 69.2187C47.1938 68.8221 46.75 68.0695 46.75 67.251V44.751C46.75 43.9326 47.1938 43.18 47.909 42.7834C48.6242 42.3846 49.4988 42.4088 50.1925 42.8427L68.1925 54.0927C68.8501 54.5048 69.25 55.2255 69.25 56.001C69.25 56.7766 68.8501 57.4974 68.1925 57.9093Z" fill="white"/>
<path d="M68.1925 57.9093L50.1925 69.1593C49.8283 69.3867 49.4141 69.501 49 69.501C48.6248 69.501 48.2491 69.4077 47.909 69.2187C47.1938 68.8221 46.75 68.0695 46.75 67.251V44.751C46.75 43.9326 47.1938 43.18 47.909 42.7834C48.6242 42.3846 49.4988 42.4088 50.1925 42.8427L68.1925 54.0927C68.8501 54.5048 69.25 55.2255 69.25 56.001C69.25 56.7766 68.8501 57.4974 68.1925 57.9093Z" fill="white"/>
<defs>
<filter id="filter0_d_684_3004" x="0" y="0" width="112" height="112" filterUnits="userSpaceOnUse" color-interpolation-filters="sRGB">
<feFlood flood-opacity="0" result="BackgroundImageFix"/>
<feColorMatrix in="SourceAlpha" type="matrix" values="0 0 0 0 0 0 0 0 0 0 0 0 0 0 0 0 0 0 127 0" result="hardAlpha"/>
<feOffset/>
<feGaussianBlur stdDeviation="10"/>
<feComposite in2="hardAlpha" operator="out"/>
<feColorMatrix type="matrix" values="0 0 0 0 0 0 0 0 0 0 0 0 0 0 0 0 0 0 0.1 0"/>
<feBlend mode="normal" in2="BackgroundImageFix" result="effect1_dropShadow_684_3004"/>
<feBlend mode="normal" in="SourceGraphic" in2="effect1_dropShadow_684_3004" result="shape"/>
</filter>
</defs>
</svg>
