<svg width="72" height="72" viewBox="0 0 72 72" fill="none" xmlns="http://www.w3.org/2000/svg">
<circle cx="36" cy="36" r="36" fill="white"/>
<path d="M48.1925 37.9093L30.1925 49.1593C29.8283 49.3867 29.4141 49.501 29 49.501C28.6248 49.501 28.2491 49.4077 27.909 49.2187C27.1938 48.8221 26.75 48.0695 26.75 47.251V24.751C26.75 23.9326 27.1938 23.18 27.909 22.7834C28.6242 22.3846 29.4988 22.4088 30.1925 22.8427L48.1925 34.0927C48.8501 34.5048 49.25 35.2255 49.25 36.001C49.25 36.7766 48.8501 37.4974 48.1925 37.9093Z" fill="#EE523F"/>
<path d="M48.1925 37.9093L30.1925 49.1593C29.8283 49.3867 29.4141 49.501 29 49.501C28.6248 49.501 28.2491 49.4077 27.909 49.2187C27.1938 48.8221 26.75 48.0695 26.75 47.251V24.751C26.75 23.9326 27.1938 23.18 27.909 22.7834C28.6242 22.3846 29.4988 22.4088 30.1925 22.8427L48.1925 34.0927C48.8501 34.5048 49.25 35.2255 49.25 36.001C49.25 36.7766 48.8501 37.4974 48.1925 37.9093Z" fill="#EE523F"/>
</svg>
