<svg width="42" height="42" viewBox="0 0 42 42" fill="none" xmlns="http://www.w3.org/2000/svg">
<path fill-rule="evenodd" clip-rule="evenodd" d="M21 14C20.5704 14 20.2222 14.3482 20.2222 14.7778V20.2218H14.7778C14.3482 20.2218 14 20.57 14 20.9996C14 21.4291 14.3482 21.7773 14.7778 21.7773H20.2222V27.2222C20.2222 27.6518 20.5704 28 21 28C21.4296 28 21.7778 27.6518 21.7778 27.2222V21.7773H27.2222C27.6518 21.7773 28 21.4291 28 20.9996C28 20.57 27.6518 20.2218 27.2222 20.2218H21.7778V14.7778C21.7778 14.3482 21.4296 14 21 14Z" fill="#EE523F"/>
</svg>
