<svg width="46" height="46" viewBox="0 0 46 46" fill="none" xmlns="http://www.w3.org/2000/svg">
<circle cx="23" cy="23" r="23" fill="#EE523F" fill-opacity="0.9"/>
<path d="M35.8308 11.53C35.7858 11.485 35.7858 11.485 35.7858 11.485L34.4358 10.135C34.2558 9.955 33.9858 9.955 33.8058 10.135C33.6258 10.315 33.6258 10.585 33.8058 10.765L34.3908 11.35H29.7234L30.3084 10.765C30.3984 10.675 30.4434 10.585 30.4434 10.45C30.4434 10.315 30.3984 10.225 30.3084 10.135C30.1284 9.95506 29.8584 9.95506 29.6784 10.135L28.3284 11.485C28.2383 11.53 28.1934 11.665 28.1934 11.755C28.1934 11.8 28.1934 11.8 28.1934 11.8451C28.1934 11.9351 28.2383 12.025 28.2834 12.0701C28.3284 12.1151 28.3284 12.1151 28.3284 12.1151L29.6784 13.4651C29.8583 13.645 30.1283 13.645 30.3084 13.4651C30.4884 13.2851 30.4884 13.0151 30.3084 12.835L29.7234 12.2501H34.3908L33.8058 12.835C33.7158 12.925 33.6708 13.015 33.6708 13.15C33.6708 13.285 33.7158 13.375 33.8058 13.4649C33.8958 13.5549 33.9858 13.5999 34.1208 13.5999C34.2558 13.5999 34.3458 13.555 34.4357 13.4649L35.7857 12.1149C35.8758 12.07 35.9207 11.935 35.9207 11.8449C35.9207 11.8 35.9207 11.8 35.9207 11.7549C35.9207 11.665 35.8758 11.575 35.8308 11.53Z" fill="white"/>
<path d="M27.5444 19.45C27.1394 19.45 26.7344 19.585 26.4194 19.855V19.45C26.4194 18.37 25.5645 17.2 24.3944 17.2C23.9894 17.2 23.5844 17.335 23.2695 17.605V12.25C23.2695 11.17 22.4145 10 21.2445 10C20.7494 10 20.2995 10.225 19.9394 10.585C19.5794 10.9 19.3545 11.35 19.2644 11.8C18.9495 11.53 18.5445 11.35 18.0944 11.35C16.9244 11.35 16.0694 12.52 16.0694 13.6V21.79C15.6644 20.9351 15.1244 20.1251 14.5844 19.5851C13.8644 18.8651 12.4244 18.82 11.6144 19.495C11.3894 19.7201 10.6244 20.5301 11.6594 21.97C12.6044 23.32 13.3694 26.29 13.3694 28C13.3694 31.6001 15.7094 33.2201 16.5194 33.67V36.55C16.5194 36.82 16.6994 37 16.9694 37C17.2394 37 17.4194 36.82 17.4194 36.55V33.4C17.4194 33.2201 17.3293 33.0851 17.1494 32.995C17.0144 32.9501 14.2694 31.645 14.2694 28C14.2694 26.3351 13.5494 23.05 12.3794 21.43C12.0644 21.025 11.7944 20.485 12.1994 20.17C12.6494 19.81 13.5494 19.81 13.9544 20.215C15.0794 21.34 16.0694 23.725 16.0694 24.85C16.0694 25.12 16.2494 25.3 16.5194 25.3C16.7894 25.3 16.9694 25.12 16.9694 24.85V13.6C16.9694 12.97 17.4644 12.25 18.0944 12.25C18.7244 12.25 19.2193 12.97 19.2193 13.6V22.15C19.2193 22.42 19.3993 22.6 19.6693 22.6C19.9393 22.6 20.1193 22.42 20.1193 22.15V12.25C20.1193 11.89 20.2993 11.485 20.5693 11.215C20.7493 11.035 21.0193 10.9 21.2443 10.9C21.8743 10.9 22.3693 11.62 22.3693 12.25V22.6C22.3693 22.87 22.5493 23.05 22.8193 23.05C23.0893 23.05 23.2692 22.87 23.2692 22.6V19.45C23.2692 18.82 23.7643 18.1 24.3942 18.1C25.0242 18.1 25.5192 18.82 25.5192 19.45V21.61C25.5192 21.655 25.5192 21.655 25.5192 21.7V23.5C25.5192 23.77 25.6992 23.95 25.9692 23.95C26.2392 23.95 26.4192 23.77 26.4192 23.5V21.61C26.4642 21.025 26.9592 20.35 27.5442 20.35C28.1742 20.35 28.6691 21.07 28.6691 21.7V28C28.6691 31.42 28.6691 31.42 27.4092 33.13C27.3191 33.2201 27.3191 33.3551 27.3191 33.445V36.55C27.3191 36.82 27.4991 37 27.7691 37C28.0391 37 28.2191 36.82 28.2191 36.55V33.535C29.5691 31.7351 29.5691 31.51 29.5691 28V21.7C29.5694 20.62 28.7144 19.45 27.5444 19.45Z" fill="white"/>
</svg>
