<svg width="153" height="150" viewBox="0 0 153 150" fill="none" xmlns="http://www.w3.org/2000/svg">
<path fill-rule="evenodd" clip-rule="evenodd" d="M145.3 147.121C145.83 147.647 146.517 147.909 147.211 147.909C147.905 147.909 148.588 147.647 149.116 147.119C150.173 146.063 150.173 144.365 149.116 143.309L104.469 98.662L107.182 95.1775C114.652 85.5834 119.125 73.6023 119.125 60.5649C119.125 29.3821 93.7449 4.00195 62.562 4.00195C31.3791 4.00195 5.99902 29.3821 5.99902 60.5649C5.99902 91.7478 31.3791 117.128 62.562 117.128C75.5995 117.128 87.5814 112.655 97.1764 105.192L100.661 102.481L145.296 147.117L145.299 147.12L145.3 147.121ZM11.3898 60.5649C11.3898 32.3395 34.3366 9.3927 62.562 9.3927C90.7874 9.3927 113.734 32.3395 113.734 60.5649C113.734 88.7904 90.7874 111.737 62.562 111.737C34.3366 111.737 11.3898 88.7904 11.3898 60.5649Z" fill="#F7A99F"/>
<path fill-rule="evenodd" clip-rule="evenodd" d="M47.7678 42.2342C46.7915 41.2579 45.2085 41.2579 44.2322 42.2342C43.2559 43.2105 43.2559 44.7934 44.2322 45.7697L59.1744 60.7119L44.2336 75.6528C43.2573 76.6291 43.2573 78.212 44.2336 79.1883C45.2099 80.1646 46.7928 80.1646 47.7691 79.1883L62.71 64.2474L77.6508 79.1883C78.6271 80.1646 80.21 80.1646 81.1863 79.1883C82.1627 78.212 82.1627 76.6291 81.1863 75.6528L66.2455 60.7119L81.1877 45.7697C82.164 44.7934 82.164 43.2105 81.1877 42.2342C80.2114 41.2579 78.6285 41.2579 77.6522 42.2342L62.71 57.1764L47.7678 42.2342Z" fill="#F7A99F"/>
</svg>
