<svg width="464" height="303" viewBox="0 0 464 303" fill="none" xmlns="http://www.w3.org/2000/svg">
<path d="M147.448 206.131C146.777 206.131 146.235 205.589 146.235 204.918C146.235 203.332 146.46 201.962 146.908 200.81C147.236 199.941 147.769 199.066 148.503 198.182C149.043 197.538 150.01 196.598 151.41 195.365C152.809 194.13 153.718 193.146 154.139 192.413C154.56 191.679 154.767 190.878 154.767 190.01C154.767 188.437 154.153 187.058 152.926 185.868C151.7 184.677 150.195 184.083 148.413 184.083C146.692 184.083 145.254 184.623 144.102 185.701C143.26 186.489 142.628 187.6 142.21 189.036C141.922 190.021 140.961 190.651 139.942 190.53C138.65 190.377 137.8 189.099 138.169 187.85C138.736 185.931 139.685 184.385 141.015 183.21C142.862 181.575 145.306 180.758 148.345 180.758C151.563 180.758 154.13 181.633 156.047 183.386C157.964 185.139 158.92 187.256 158.92 189.74C158.92 191.178 158.583 192.503 157.91 193.713C157.237 194.926 155.919 196.4 153.959 198.137C152.643 199.305 151.781 200.166 151.376 200.72C150.971 201.273 150.672 201.91 150.478 202.628C150.334 203.161 150.235 203.944 150.181 204.972C150.148 205.62 149.61 206.129 148.962 206.129H147.448V206.131ZM146.01 211.936C146.01 210.665 147.04 209.634 148.312 209.634C149.583 209.634 150.613 210.665 150.613 211.936C150.613 213.207 149.583 214.238 148.312 214.238C147.04 214.238 146.01 213.207 146.01 211.936V211.936Z" fill="#FDE5E2"/>
<path d="M87.2048 210.592H134.348V274.02H107.439V274.877H135.205V209.734H86.3477V264.494L87.2048 264.784V210.592Z" fill="#C5C5C5"/>
<path d="M99.6345 245.31H121.92V268.882H106.032L106.447 269.739H122.777V244.453H98.7773V266.51H99.6345V245.31Z" fill="#C5C5C5"/>
<path d="M106.508 257.614L106.533 257.592L106.557 257.569C107.918 256.201 108.609 255.052 108.874 253.898C108.988 253.4 109.017 252.92 109.002 252.455C109.371 252.7 109.675 252.943 109.945 253.202C110.503 253.738 110.961 254.384 111.553 255.376C112.417 256.823 112.555 257.875 112.723 259.16C112.769 259.514 112.818 259.886 112.885 260.289L112.929 260.56L113.123 260.754C113.249 260.881 113.421 261.007 113.643 261.074C113.876 261.144 114.108 261.133 114.316 261.066C114.684 260.946 114.922 260.666 115.051 260.49C115.328 260.111 115.555 259.566 115.726 259.125C115.796 258.946 115.858 258.781 115.914 258.629C117.464 260.387 118.06 262.561 118.06 263.914C118.06 265.646 117.485 267.563 116.567 268.851H105.936L106.497 269.708H116.989C118.193 268.253 118.917 265.954 118.917 263.914C118.917 262.15 118.053 259.28 115.747 257.253C115.675 257.139 115.585 257.223 115.48 257.424C115.439 257.501 115.397 257.596 115.352 257.703C115.322 257.777 115.29 257.857 115.257 257.941L115.251 257.959C115.206 258.075 115.159 258.2 115.111 258.329C114.935 258.8 114.739 259.326 114.529 259.71C114.456 259.845 114.381 259.962 114.304 260.054C114.12 260.275 113.927 260.347 113.73 260.149C113.695 259.934 113.664 259.724 113.636 259.516C113.618 259.379 113.6 259.243 113.582 259.108C113.412 257.793 113.251 256.548 112.289 254.937C111.259 253.212 110.522 252.326 108.904 251.386C108.62 251.222 108.31 251.055 107.967 250.883L107.99 251.043C108.033 251.346 108.075 251.636 108.104 251.921C108.266 253.462 108.081 254.822 105.949 256.964C103.212 259.315 102.203 260.805 102.203 263.914C102.203 264.97 102.397 266.095 102.751 267.137L103.796 267.474C103.331 266.375 103.06 265.101 103.06 263.914C103.06 262.461 103.294 261.467 103.796 260.576C104.314 259.657 105.154 258.777 106.508 257.614Z" fill="#C5C5C5"/>
<path d="M96.6345 241.881H124.92V274.023H107.5L107.185 274.881H125.777V241.023H95.7773V265.997L96.6345 266.138V241.881Z" fill="#C5C5C5"/>
<path fill-rule="evenodd" clip-rule="evenodd" d="M127.92 220.451H93.6345V232.022H127.92V220.451ZM92.7773 219.594V232.879H128.777V219.594H92.7773Z" fill="#C5C5C5"/>
<path fill-rule="evenodd" clip-rule="evenodd" d="M134.348 210.592H87.2048V212.734H134.348V210.592ZM86.3477 209.734V213.592H135.205V209.734H86.3477Z" fill="#C5C5C5"/>
<path fill-rule="evenodd" clip-rule="evenodd" d="M89.3459 264.747L89.3459 213.592L87.2031 213.592L87.2031 264.386L89.3459 264.747ZM90.2031 212.734L86.3459 212.734L86.3459 264.931L90.2031 265.432L90.2031 212.734Z" fill="#C5C5C5"/>
<path fill-rule="evenodd" clip-rule="evenodd" d="M134.346 274.02L134.346 213.592L132.203 213.592L132.203 274.02L134.346 274.02ZM135.203 212.734L131.346 212.734L131.346 274.877L135.203 274.877L135.203 212.734Z" fill="#C5C5C5"/>
<path fill-rule="evenodd" clip-rule="evenodd" d="M118.97 202.453H125.525L128.939 205.867L130.432 210.596H90.1172L95.33 204.639L102.057 203.069L104.24 204.317L106.376 203.096H115.783L116.416 204.723L118.97 202.453ZM116.867 205.882L117.482 207.464L115.557 209.739H122.347V208.426L119.608 205.882H116.867ZM123.205 209.739H129.263L128.185 206.325L125.17 203.31H119.296L117.367 205.025H119.944L123.205 208.052V209.739ZM114.434 209.739L116.498 207.299L115.197 203.953H106.604L105.104 204.81L106.87 205.819L107.695 209.739H114.434ZM106.819 209.739L106.11 206.373L101.924 203.98L95.7934 205.411L92.0061 209.739H106.819Z" fill="#C5C5C5"/>
<path fill-rule="evenodd" clip-rule="evenodd" d="M107.174 232.025L107.174 220.453L108.031 220.453L108.031 232.025L107.174 232.025Z" fill="#C5C5C5"/>
<path fill-rule="evenodd" clip-rule="evenodd" d="M99.4983 232.025L99.4983 220.453L100.355 220.453L100.355 232.025L99.4983 232.025Z" fill="#C5C5C5"/>
<path fill-rule="evenodd" clip-rule="evenodd" d="M114.85 232.025L114.85 220.453L115.707 220.453L115.707 232.025L114.85 232.025Z" fill="#C5C5C5"/>
<path fill-rule="evenodd" clip-rule="evenodd" d="M122.526 232.025L122.526 220.453L123.383 220.453L123.383 232.025L122.526 232.025Z" fill="#C5C5C5"/>
<path fill-rule="evenodd" clip-rule="evenodd" d="M102.132 267.421L72.6469 263.009C69.4625 262.533 66.4947 264.728 66.0182 267.912C65.5417 271.097 67.7369 274.065 70.9213 274.541L100.406 278.953C103.591 279.43 106.558 277.234 107.035 274.05C107.511 270.866 105.316 267.898 102.132 267.421ZM72.7738 262.162C69.1212 261.615 65.7171 264.133 65.1705 267.786C64.6239 271.438 67.1419 274.842 70.7945 275.389L100.279 279.801C103.932 280.347 107.336 277.829 107.883 274.177C108.429 270.524 105.911 267.12 102.259 266.574L72.7738 262.162Z" fill="#C5C5C5"/>
<path fill-rule="evenodd" clip-rule="evenodd" d="M82.7631 265.768L89.9735 267.277L89.7978 268.116L82.739 266.638L72.0518 268.266L71.9228 267.418L82.7631 265.768Z" fill="#C5C5C5"/>
<path fill-rule="evenodd" clip-rule="evenodd" d="M75.189 269.163L79.3277 269.822L79.193 270.668L75.1817 270.03L69.063 270.899L68.9425 270.05L75.189 269.163Z" fill="#C5C5C5"/>
<path fill-rule="evenodd" clip-rule="evenodd" d="M87.7525 275.32L83.3084 273.57L83.6225 272.772L87.8837 274.451L94.5759 273.944L94.6406 274.799L87.7525 275.32Z" fill="#C5C5C5"/>
<path fill-rule="evenodd" clip-rule="evenodd" d="M96.7543 272.697C97.1396 269.099 100.216 266.742 102.966 266.742V267.599C100.65 267.599 97.9449 269.629 97.6065 272.788C97.4387 274.355 97.9771 275.958 98.8438 277.151C99.7233 278.362 100.857 279.046 101.818 278.977L101.88 279.831C100.49 279.931 99.1076 278.973 98.1503 277.655C97.1801 276.32 96.5602 274.508 96.7543 272.697Z" fill="#C5C5C5"/>
<path fill-rule="evenodd" clip-rule="evenodd" d="M103.971 275.822C104.827 275.099 105.341 274.261 105.341 273.573C105.341 272.76 104.959 271.794 104.369 271.02C103.755 270.214 103.09 269.834 102.656 269.834C102.13 269.834 101.391 270.165 100.757 270.798C100.133 271.419 99.7323 272.212 99.7323 272.977C99.7323 273.882 99.9754 274.943 100.386 275.758C100.825 276.627 101.298 276.939 101.636 276.939C101.883 276.939 102.247 276.852 102.684 276.651C103.111 276.454 103.562 276.168 103.971 275.822ZM101.636 277.687C103.213 277.687 106.089 275.609 106.089 273.573C106.089 271.538 104.233 269.086 102.656 269.086C101.079 269.086 98.9844 270.941 98.9844 272.977C98.9844 275.012 100.059 277.687 101.636 277.687Z" fill="#C5C5C5"/>
<path fill-rule="evenodd" clip-rule="evenodd" d="M101.647 271.289L102.5 271.367L102.304 273.524L103.662 274.882L103.056 275.488L101.414 273.846L101.647 271.289Z" fill="#C5C5C5"/>
<path d="M440.448 96.1311C439.777 96.1311 439.235 95.5888 439.235 94.9183C439.235 93.3321 439.46 91.9618 439.908 90.8098C440.236 89.9413 440.769 89.0661 441.503 88.1818C442.043 87.5383 443.01 86.5978 444.41 85.3648C445.809 84.1296 446.718 83.1463 447.139 82.4128C447.56 81.6793 447.767 80.8783 447.767 80.0098C447.767 78.4371 447.153 77.0578 445.926 75.8676C444.7 74.6773 443.195 74.0833 441.413 74.0833C439.692 74.0833 438.254 74.6233 437.102 75.7011C436.26 76.4886 435.628 77.6001 435.21 79.0356C434.922 80.0211 433.961 80.6511 432.942 80.5296C431.65 80.3766 430.8 79.0986 431.169 77.8498C431.736 75.9306 432.685 74.3848 434.015 73.2103C435.862 71.5746 438.306 70.7578 441.345 70.7578C444.563 70.7578 447.13 71.6331 449.047 73.3858C450.964 75.1386 451.92 77.2558 451.92 79.7398C451.92 81.1776 451.583 82.5028 450.91 83.7133C450.237 84.9261 448.919 86.3998 446.959 88.1368C445.643 89.3046 444.781 90.1663 444.376 90.7198C443.971 91.2733 443.672 91.9101 443.478 92.6278C443.334 93.1611 443.235 93.9441 443.181 94.9723C443.148 95.6203 442.61 96.1288 441.962 96.1288H440.448V96.1311ZM439.01 101.936C439.01 100.665 440.04 99.6343 441.312 99.6343C442.583 99.6343 443.613 100.665 443.613 101.936C443.613 103.207 442.583 104.238 441.312 104.238C440.04 104.238 439.01 103.207 439.01 101.936V101.936Z" fill="#FDE5E2"/>
<path fill-rule="evenodd" clip-rule="evenodd" d="M430.286 102.857H372.857V160.286H430.286V102.857ZM372 102V161.143H431.143V102H372Z" fill="#C5C5C5"/>
<path d="M379.717 109.717H423.431V132.056L424.288 133.167V108.859H378.859V119.709L379.717 119.642V109.717Z" fill="#C5C5C5"/>
<path d="M378.859 123.889H379.717V139.762H378.859V123.889Z" fill="#C5C5C5"/>
<path d="M423.431 153.431H379.717V144.031L378.859 144.002V154.288H424.288V150.243L423.431 150.319V153.431Z" fill="#C5C5C5"/>
<path fill-rule="evenodd" clip-rule="evenodd" d="M381.857 123.426V119.998H372.857V123.426H381.857ZM372 119.141V124.283H382.714V119.141H372Z" fill="#C5C5C5"/>
<path fill-rule="evenodd" clip-rule="evenodd" d="M381.857 143.567V140.138H372.857V143.567H381.857ZM372 139.281V144.424H382.714V139.281H372Z" fill="#C5C5C5"/>
<path fill-rule="evenodd" clip-rule="evenodd" d="M403.286 117.857H399.857C393.23 117.857 387.857 123.23 387.857 129.857V146.143H415.286V129.857C415.286 123.23 409.913 117.857 403.286 117.857ZM399.857 117C392.756 117 387 122.756 387 129.857V147H416.143V129.857C416.143 122.756 410.387 117 403.286 117H399.857Z" fill="#C5C5C5"/>
<path fill-rule="evenodd" clip-rule="evenodd" d="M402 141.074L391.714 141.074L391.714 133.359L392.571 133.359L392.571 140.217L402 140.217L402 141.074Z" fill="#C5C5C5"/>
<path d="M428.634 143.746C428.618 143.598 428.571 143.454 428.496 143.325C428.422 143.195 428.322 143.082 428.202 142.993C428.095 142.931 427.976 142.893 427.852 142.884C427.729 142.874 427.605 142.893 427.49 142.939C427.278 143.015 427.077 143.118 426.89 143.245C426.44 143.552 426.014 143.893 425.614 144.264C425.292 144.555 424.982 144.853 424.723 145.111L424.72 144.97C424.703 144.254 424.683 143.258 424.669 142.139C424.643 139.899 424.643 137.179 424.749 135.23L424.751 135.199L424.748 135.168C424.686 134.482 424.9 132.102 422.609 130.765C421.856 130.355 420.991 130.2 420.143 130.322C419.352 130.398 418.607 130.728 418.018 131.261C417.223 132.08 416.728 133.144 416.613 134.279C416.5 135.063 416.613 135.863 416.938 136.585C417.254 137.352 417.827 137.985 418.558 138.376C419.354 138.748 420.229 138.922 421.107 138.881V146.778C421.073 147.686 421.234 148.59 421.579 149.43C421.791 149.9 422.156 150.283 422.614 150.518C423.186 150.768 423.828 150.805 424.425 150.623C425.22 150.375 425.923 149.895 426.444 149.244C427.027 148.56 427.512 147.797 427.885 146.978C428.235 146.251 428.482 145.48 428.619 144.686C428.672 144.375 428.677 144.058 428.634 143.746V143.746ZM423.893 146.149C423.895 146.233 423.923 146.316 423.973 146.385C424.022 146.454 424.091 146.507 424.17 146.537C424.25 146.566 424.336 146.572 424.419 146.553C424.502 146.533 424.577 146.49 424.635 146.428V146.428L424.635 146.428H424.635L424.635 146.428L424.635 146.428L424.636 146.426L424.642 146.42L424.667 146.394C424.688 146.371 424.72 146.337 424.761 146.294C424.843 146.209 424.961 146.087 425.105 145.941C425.393 145.65 425.782 145.268 426.189 144.9C426.555 144.56 426.945 144.247 427.357 143.964C427.48 143.879 427.613 143.809 427.752 143.756C427.77 143.798 427.782 143.843 427.789 143.888C427.816 144.112 427.81 144.339 427.771 144.561C427.646 145.273 427.423 145.965 427.108 146.616C426.77 147.361 426.329 148.055 425.799 148.679C425.393 149.198 424.843 149.585 424.217 149.791C423.816 149.924 423.38 149.908 422.988 149.747C422.703 149.596 422.477 149.351 422.349 149.054C422.063 148.331 421.931 147.556 421.964 146.778V137.936L421.482 137.996C420.616 138.102 419.737 137.968 418.941 137.609C418.389 137.307 417.958 136.823 417.722 136.24C417.465 135.67 417.373 135.039 417.458 134.42C417.545 133.461 417.956 132.56 418.624 131.867C419.079 131.469 419.648 131.226 420.249 131.172C420.911 131.074 421.587 131.191 422.177 131.506C423.978 132.556 423.818 134.316 423.892 135.212C423.786 137.19 423.786 139.918 423.812 142.15C423.826 143.272 423.846 144.272 423.863 144.99C423.871 145.35 423.879 145.639 423.884 145.839C423.887 145.939 423.889 146.016 423.89 146.068L423.892 146.128L423.893 146.143L423.893 146.147V146.148L423.893 146.149" fill="#C5C5C5"/>
<path d="M261.448 178.131C260.777 178.131 260.235 177.589 260.235 176.918C260.235 175.332 260.46 173.962 260.908 172.81C261.236 171.941 261.769 171.066 262.503 170.182C263.043 169.538 264.01 168.598 265.41 167.365C266.809 166.13 267.718 165.146 268.139 164.413C268.56 163.679 268.767 162.878 268.767 162.01C268.767 160.437 268.153 159.058 266.926 157.868C265.7 156.677 264.195 156.083 262.413 156.083C260.692 156.083 259.254 156.623 258.102 157.701C257.26 158.489 256.628 159.6 256.21 161.036C255.922 162.021 254.961 162.651 253.942 162.53C252.65 162.377 251.8 161.099 252.169 159.85C252.736 157.931 253.685 156.385 255.015 155.21C256.862 153.575 259.306 152.758 262.345 152.758C265.563 152.758 268.13 153.633 270.047 155.386C271.964 157.139 272.92 159.256 272.92 161.74C272.92 163.178 272.583 164.503 271.91 165.713C271.237 166.926 269.919 168.4 267.959 170.137C266.643 171.305 265.781 172.166 265.376 172.72C264.971 173.273 264.672 173.91 264.478 174.628C264.334 175.161 264.235 175.944 264.181 176.972C264.148 177.62 263.61 178.129 262.962 178.129H261.448V178.131ZM260.01 183.936C260.01 182.665 261.04 181.634 262.312 181.634C263.583 181.634 264.613 182.665 264.613 183.936C264.613 185.207 263.583 186.238 262.312 186.238C261.04 186.238 260.01 185.207 260.01 183.936V183.936Z" fill="#FDE5E2"/>
<path fill-rule="evenodd" clip-rule="evenodd" d="M228.518 181.641L235.196 182.531L239.048 187.062V189.965L239.585 190.014L247.552 193.541L249.204 199.791L251.081 199.188L261.434 204.254L263.947 209.051L261.411 215.506H202.055L200.438 207.647L207.476 200.835L209.35 201.858L209.927 196.418L215.304 192.384L218.599 191.87L222.015 183.434L228.518 181.641ZM219.586 191.715L222.435 191.27L225.459 193.343L232.307 189.352L238.19 189.887V187.377L234.756 183.337L228.577 182.513L222.651 184.148L219.586 191.715ZM226.241 193.879L228.703 195.567L239.759 196.893L242.269 202.02L248.387 200.054L246.829 194.158L239.367 190.855L232.502 190.23L226.241 193.879ZM242.65 202.798L245.094 207.788L241.866 214.648H260.827L263.006 209.102L260.805 204.9L251.014 200.109L242.65 202.798ZM240.918 214.648L244.144 207.795L239.194 197.689L223.55 195.812L214.17 204.486L219.74 207.525L220.369 214.648H240.918ZM219.508 214.648L218.927 208.058L207.619 201.89L201.372 207.935L202.754 214.648H219.508ZM213.375 204.053L223.259 194.914L226.866 195.346L222.231 192.17L215.648 193.198L210.74 196.879L210.165 202.302L213.375 204.053Z" fill="#C5C5C5"/>
<path d="M196.404 215.506H266.261H267.118V214.648H195.547V215.506H196.404Z" fill="#C5C5C5"/>
<path fill-rule="evenodd" clip-rule="evenodd" d="M241.709 208.322L241.051 208.871L235.118 201.752L226.834 201.752L226.834 200.895L235.52 200.895L241.709 208.322Z" fill="#C5C5C5"/>
<path fill-rule="evenodd" clip-rule="evenodd" d="M224.68 189.161L225.339 189.709L228.407 186.027L232.682 186.027L232.682 185.17L228.006 185.17L224.68 189.161Z" fill="#C5C5C5"/>
<path fill-rule="evenodd" clip-rule="evenodd" d="M204.689 211.497L205.533 211.643L206.35 206.92L210.052 204.782L209.623 204.04L205.573 206.378L204.689 211.497Z" fill="#C5C5C5"/>
<path d="M380.448 226.131C379.777 226.131 379.235 225.589 379.235 224.918C379.235 223.332 379.46 221.962 379.908 220.81C380.236 219.941 380.769 219.066 381.503 218.182C382.043 217.538 383.01 216.598 384.41 215.365C385.809 214.13 386.718 213.146 387.139 212.413C387.56 211.679 387.767 210.878 387.767 210.01C387.767 208.437 387.153 207.058 385.926 205.868C384.7 204.677 383.195 204.083 381.413 204.083C379.692 204.083 378.254 204.623 377.102 205.701C376.26 206.489 375.628 207.6 375.21 209.036C374.922 210.021 373.961 210.651 372.942 210.53C371.65 210.377 370.8 209.099 371.169 207.85C371.736 205.931 372.685 204.385 374.015 203.21C375.862 201.575 378.306 200.758 381.345 200.758C384.563 200.758 387.13 201.633 389.047 203.386C390.964 205.139 391.92 207.256 391.92 209.74C391.92 211.178 391.583 212.503 390.91 213.713C390.237 214.926 388.919 216.4 386.959 218.137C385.643 219.305 384.781 220.166 384.376 220.72C383.971 221.273 383.672 221.91 383.478 222.628C383.334 223.161 383.235 223.944 383.181 224.972C383.148 225.62 382.61 226.129 381.962 226.129H380.448V226.131ZM379.01 231.936C379.01 230.665 380.04 229.634 381.312 229.634C382.583 229.634 383.613 230.665 383.613 231.936C383.613 233.207 382.583 234.238 381.312 234.238C380.04 234.238 379.01 233.207 379.01 231.936V231.936Z" fill="#FDE5E2"/>
<path fill-rule="evenodd" clip-rule="evenodd" d="M364.02 233.138H330.163C327.086 233.138 324.592 235.633 324.592 238.71V277.281C324.592 280.358 327.086 282.853 330.163 282.853H364.02C367.097 282.853 369.592 280.358 369.592 277.281V238.71C369.592 235.633 367.097 233.138 364.02 233.138ZM330.163 232.281C326.613 232.281 323.734 235.159 323.734 238.71V277.281C323.734 280.832 326.613 283.71 330.163 283.71H364.02C367.57 283.71 370.449 280.832 370.449 277.281V238.71C370.449 235.159 367.57 232.281 364.02 232.281H330.163Z" fill="#C5C5C5"/>
<path fill-rule="evenodd" clip-rule="evenodd" d="M354.164 224.998H340.021V232.283H354.164V224.998ZM339.164 224.141V233.141H355.021V224.141H339.164Z" fill="#C5C5C5"/>
<path fill-rule="evenodd" clip-rule="evenodd" d="M354.164 283.717H340.021V291.002H354.164V283.717ZM339.164 282.859V291.859H355.021V282.859H339.164Z" fill="#C5C5C5"/>
<path fill-rule="evenodd" clip-rule="evenodd" d="M370.196 239.763H323.91V238.906H370.196V239.763Z" fill="#C5C5C5"/>
<path fill-rule="evenodd" clip-rule="evenodd" d="M328.506 263.217L328.506 244.359L329.363 244.359L329.363 263.217L328.506 263.217Z" fill="#C5C5C5"/>
<path fill-rule="evenodd" clip-rule="evenodd" d="M332.6 268.67L332.6 249.812L333.457 249.812L333.457 268.67L332.6 268.67Z" fill="#C5C5C5"/>
<path fill-rule="evenodd" clip-rule="evenodd" d="M370.196 273.857H323.91V273H370.196V273.857Z" fill="#C5C5C5"/>
<path d="M78.4477 93.1311C77.7772 93.1311 77.2349 92.5888 77.2349 91.9183C77.2349 90.3321 77.4599 88.9618 77.9077 87.8098C78.2362 86.9413 78.7694 86.0661 79.5029 85.1818C80.0429 84.5383 81.0104 83.5978 82.4099 82.3648C83.8094 81.1296 84.7184 80.1463 85.1392 79.4128C85.5599 78.6793 85.7669 77.8783 85.7669 77.0098C85.7669 75.4371 85.1527 74.0578 83.9264 72.8676C82.7002 71.6773 81.1949 71.0833 79.4129 71.0833C77.6917 71.0833 76.2539 71.6233 75.1019 72.7011C74.2604 73.4886 73.6282 74.6001 73.2097 76.0356C72.9217 77.0211 71.9609 77.6511 70.9417 77.5296C69.6502 77.3766 68.7997 76.0986 69.1687 74.8498C69.7357 72.9306 70.6852 71.3848 72.0149 70.2103C73.8622 68.5746 76.3057 67.7578 79.3454 67.7578C82.5629 67.7578 85.1302 68.6331 87.0472 70.3858C88.9642 72.1386 89.9204 74.2558 89.9204 76.7398C89.9204 78.1776 89.5829 79.5028 88.9102 80.7133C88.2374 81.9261 86.9189 83.3998 84.9592 85.1368C83.6429 86.3046 82.7812 87.1663 82.3762 87.7198C81.9712 88.2733 81.6719 88.9101 81.4784 89.6278C81.3344 90.1611 81.2354 90.9441 81.1814 91.9723C81.1477 92.6203 80.6099 93.1288 79.9619 93.1288H78.4477V93.1311ZM77.0099 98.9361C77.0099 97.6648 78.0404 96.6343 79.3117 96.6343C80.5829 96.6343 81.6134 97.6648 81.6134 98.9361C81.6134 100.207 80.5829 101.238 79.3117 101.238C78.0404 101.238 77.0099 100.207 77.0099 98.9361V98.9361Z" fill="#FDE5E2"/>
<path fill-rule="evenodd" clip-rule="evenodd" d="M68.319 98.503H44.6123V153.502H68.319V98.503ZM43.6641 97.5547V154.451H69.2673V97.5547H43.6641Z" fill="#C5C5C5"/>
<path fill-rule="evenodd" clip-rule="evenodd" d="M68.5546 104.19H44.1367V103.242H68.5546V104.19Z" fill="#C5C5C5"/>
<path fill-rule="evenodd" clip-rule="evenodd" d="M68.5519 148.761H44.3711V147.812H68.5519V148.761Z" fill="#C5C5C5"/>
<path fill-rule="evenodd" clip-rule="evenodd" d="M61.2044 92.3389H51.7217V97.5544H61.2044V92.3389ZM50.7734 91.3906V98.5026H62.1526V91.3906H50.7734Z" fill="#C5C5C5"/>
<path fill-rule="evenodd" clip-rule="evenodd" d="M61.2044 154.448H51.7217V159.664H61.2044V154.448ZM50.7734 153.5V160.612H62.1526V153.5H50.7734Z" fill="#C5C5C5"/>
<path fill-rule="evenodd" clip-rule="evenodd" d="M43.6617 110.355H40.3428V115.096H43.6617V110.355ZM39.3945 109.406V116.044H44.61V109.406H39.3945Z" fill="#C5C5C5"/>
<path fill-rule="evenodd" clip-rule="evenodd" d="M43.6617 141.651H40.3428V146.393H43.6617V141.651ZM39.3945 140.703V147.341H44.61V140.703H39.3945Z" fill="#C5C5C5"/>
<path fill-rule="evenodd" clip-rule="evenodd" d="M64.0478 128.377L64.0478 107.516L64.9961 107.516L64.9961 128.377L64.0478 128.377Z" fill="#C5C5C5"/>
<path fill-rule="evenodd" clip-rule="evenodd" d="M60.2549 134.065L60.2549 113.203L61.2031 113.203L61.2031 134.065L60.2549 134.065Z" fill="#C5C5C5"/>
</svg>
