<svg width="300" height="197" viewBox="0 0 300 197" fill="none" xmlns="http://www.w3.org/2000/svg">
<path fill-rule="evenodd" clip-rule="evenodd" d="M204.051 94.4733C204.392 94.8105 204.834 94.9791 205.28 94.9791C205.727 94.9791 206.166 94.8108 206.506 94.4721C207.186 93.7943 207.186 92.705 206.506 92.0273L177.781 63.3801L179.527 61.1443C184.333 54.9883 187.21 47.3008 187.21 38.9356C187.21 18.9274 170.882 2.64258 150.819 2.64258C130.757 2.64258 114.428 18.9274 114.428 38.9356C114.428 58.9437 130.757 75.2285 150.819 75.2285C159.207 75.2285 166.916 72.3586 173.089 67.5697L175.331 65.8307L204.048 94.4708L204.05 94.4723L204.051 94.4733ZM117.896 38.9356C117.896 20.8251 132.66 6.10149 150.819 6.10149C168.979 6.10149 183.742 20.8251 183.742 38.9356C183.742 57.0461 168.979 71.7696 150.819 71.7696C132.66 71.7696 117.896 57.0461 117.896 38.9356Z" fill="#F7A99F"/>
<path fill-rule="evenodd" clip-rule="evenodd" d="M141.301 27.173C140.673 26.5465 139.655 26.5465 139.027 27.173C138.398 27.7994 138.398 28.815 139.027 29.4415L148.64 39.029L139.027 48.6156C138.399 49.242 138.399 50.2577 139.027 50.8841C139.656 51.5106 140.674 51.5106 141.302 50.8841L150.915 41.2975L160.527 50.8841C161.155 51.5106 162.174 51.5106 162.802 50.8841C163.43 50.2577 163.43 49.242 162.802 48.6156L153.189 39.029L162.803 29.4415C163.431 28.815 163.431 27.7994 162.803 27.173C162.175 26.5465 161.156 26.5465 160.528 27.173L150.915 36.7604L141.301 27.173Z" fill="#F7A99F"/>
<path d="M95.415 134.261C94.9836 134.261 94.6348 133.913 94.6348 133.483C94.6348 132.465 94.7795 131.586 95.0676 130.847C95.2789 130.289 95.622 129.728 96.0939 129.16C96.4414 128.747 97.0638 128.144 97.9642 127.353C98.8646 126.56 99.4495 125.929 99.7202 125.459C99.9909 124.988 100.124 124.474 100.124 123.917C100.124 122.908 99.7288 122.023 98.9399 121.259C98.151 120.495 97.1825 120.114 96.036 120.114C94.9286 120.114 94.0036 120.461 93.2625 121.152C92.7211 121.658 92.3143 122.371 92.045 123.292C91.8597 123.924 91.2416 124.328 90.5859 124.25C89.7549 124.152 89.2077 123.332 89.4452 122.531C89.8099 121.3 90.4208 120.308 91.2764 119.554C92.4648 118.505 94.0369 117.98 95.9926 117.98C98.0627 117.98 99.7144 118.542 100.948 119.667C102.181 120.791 102.796 122.15 102.796 123.744C102.796 124.666 102.579 125.517 102.146 126.293C101.713 127.071 100.865 128.017 99.6043 129.131C98.7575 129.881 98.2031 130.434 97.9425 130.789C97.6819 131.144 97.4894 131.553 97.3649 132.013C97.2723 132.355 97.2086 132.858 97.1738 133.517C97.1521 133.933 96.8062 134.259 96.3892 134.259H95.415V134.261ZM94.49 137.986C94.49 137.17 95.153 136.509 95.9709 136.509C96.7888 136.509 97.4518 137.17 97.4518 137.986C97.4518 138.801 96.7888 139.463 95.9709 139.463C95.153 139.463 94.49 138.801 94.49 137.986Z" fill="#FDE5E2"/>
<path d="M56.6589 137.124H86.9893V177.822H69.6773V178.372H87.5408V136.574H56.1074V171.71L56.6589 171.896V137.124Z" fill="#C5C5C5"/>
<path d="M64.6552 159.4H78.9933V174.524H68.7713L69.0381 175.074H79.5447V158.85H64.1038V173.002H64.6552V159.4Z" fill="#C5C5C5"/>
<path d="M69.0789 167.292L69.0953 167.278L69.1105 167.262C69.9859 166.385 70.4308 165.647 70.6013 164.907C70.6748 164.588 70.6933 164.28 70.6834 163.981C70.9209 164.139 71.1163 164.294 71.2903 164.461C71.6492 164.805 71.9437 165.219 72.325 165.856C72.8808 166.784 72.9693 167.459 73.0774 168.284C73.1072 168.511 73.1385 168.75 73.1815 169.008L73.2104 169.182L73.3347 169.306C73.416 169.388 73.5265 169.469 73.6697 169.512C73.8193 169.557 73.9688 169.55 74.1022 169.507C74.3395 169.43 74.4921 169.25 74.5753 169.137C74.7537 168.894 74.8996 168.544 75.0099 168.261C75.0546 168.146 75.0943 168.04 75.1306 167.943C76.1279 169.071 76.5114 170.466 76.5114 171.334C76.5114 172.445 76.1411 173.675 75.5506 174.502H68.7107L69.0721 175.052H75.8221C76.5969 174.118 77.0629 172.643 77.0629 171.334C77.0629 170.202 76.5066 168.361 75.0234 167.06C74.9766 166.987 74.9186 167.041 74.8512 167.17C74.8252 167.219 74.7979 167.28 74.7693 167.349C74.7495 167.396 74.7291 167.447 74.7081 167.502L74.7037 167.513C74.6748 167.588 74.6449 167.668 74.6139 167.751C74.5009 168.053 74.3747 168.39 74.2398 168.637C74.1925 168.723 74.1441 168.798 74.0949 168.857C73.976 168.999 73.852 169.045 73.7256 168.918C73.7026 168.781 73.6831 168.646 73.665 168.512C73.6531 168.424 73.6417 168.337 73.6305 168.25C73.521 167.406 73.4173 166.607 72.7985 165.574C72.1359 164.467 71.6612 163.898 70.6203 163.296C70.4381 163.19 70.2385 163.083 70.0174 162.973L70.0321 163.075C70.0601 163.27 70.0868 163.456 70.106 163.639C70.2101 164.628 70.091 165.5 68.7196 166.875C66.9582 168.383 66.3093 169.339 66.3093 171.334C66.3093 172.011 66.4342 172.734 66.662 173.402L67.3344 173.619C67.0348 172.913 66.8608 172.096 66.8608 171.334C66.8608 170.402 67.0112 169.764 67.3344 169.192C67.6674 168.603 68.208 168.038 69.0789 167.292Z" fill="#C5C5C5"/>
<path d="M62.7248 157.2H80.9231V177.824H69.7153L69.513 178.374H81.4745V156.65H62.1733V172.674L62.7248 172.765V157.2Z" fill="#C5C5C5"/>
<path fill-rule="evenodd" clip-rule="evenodd" d="M82.8534 143.45H60.7949V150.875H82.8534V143.45ZM60.2434 142.9V151.425H83.4049V142.9H60.2434Z" fill="#C5C5C5"/>
<path fill-rule="evenodd" clip-rule="evenodd" d="M86.9893 137.124H56.6589V138.499H86.9893V137.124ZM56.1074 136.574V139.049H87.5408V136.574H56.1074Z" fill="#C5C5C5"/>
<path fill-rule="evenodd" clip-rule="evenodd" d="M58.0376 171.874L58.0376 139.05L56.659 139.05L56.659 171.642L58.0376 171.874ZM58.5891 138.5L56.1075 138.5L56.1075 171.991L58.5891 172.313L58.5891 138.5Z" fill="#C5C5C5"/>
<path fill-rule="evenodd" clip-rule="evenodd" d="M86.9896 177.823L86.9896 139.05L85.6109 139.05L85.6109 177.823L86.9896 177.823ZM87.541 138.5L85.0594 138.5L85.0594 178.373L87.541 178.373L87.541 138.5Z" fill="#C5C5C5"/>
<path fill-rule="evenodd" clip-rule="evenodd" d="M77.0962 131.9H81.3133L83.5097 134.091L84.4705 137.125H58.533L61.8867 133.303L66.2146 132.296L67.6194 133.096L68.9937 132.313H75.0459L75.4531 133.357L77.0962 131.9ZM75.7429 134.1L76.1388 135.116L74.9003 136.575H79.269V135.733L77.5063 134.1H75.7429ZM79.8205 136.575H83.7181L83.0245 134.385L81.0849 132.45H77.3059L76.0651 133.55H77.7229L79.8205 135.493V136.575ZM74.178 136.575L75.5059 135.01L74.6687 132.863H69.1402L68.1751 133.413L69.3112 134.06L69.8421 136.575H74.178ZM69.2786 136.575L68.8226 134.415L66.129 132.88L62.1849 133.798L59.7483 136.575H69.2786Z" fill="#C5C5C5"/>
<path fill-rule="evenodd" clip-rule="evenodd" d="M69.5054 150.874L69.5054 143.449L70.0569 143.449L70.0569 150.874L69.5054 150.874Z" fill="#C5C5C5"/>
<path fill-rule="evenodd" clip-rule="evenodd" d="M64.5674 150.874L64.5674 143.449L65.1189 143.449L65.1189 150.874L64.5674 150.874Z" fill="#C5C5C5"/>
<path fill-rule="evenodd" clip-rule="evenodd" d="M74.4432 150.874L74.4432 143.449L74.9946 143.449L74.9946 150.874L74.4432 150.874Z" fill="#C5C5C5"/>
<path fill-rule="evenodd" clip-rule="evenodd" d="M79.3816 150.874L79.3816 143.449L79.9331 143.449L79.9331 150.874L79.3816 150.874Z" fill="#C5C5C5"/>
<path fill-rule="evenodd" clip-rule="evenodd" d="M66.261 173.584L47.2913 170.753C45.2426 170.447 43.3332 171.856 43.0266 173.899C42.72 175.942 44.1324 177.847 46.1811 178.152L65.1508 180.983C67.1996 181.289 69.109 179.881 69.4156 177.837C69.7222 175.794 68.3098 173.89 66.261 173.584ZM47.373 170.209C45.023 169.859 42.8329 171.474 42.4812 173.818C42.1296 176.161 43.7495 178.346 46.0995 178.696L65.0692 181.527C67.4192 181.878 69.6093 180.262 69.961 177.919C70.3126 175.575 68.6926 173.391 66.3427 173.04L47.373 170.209Z" fill="#C5C5C5"/>
<path fill-rule="evenodd" clip-rule="evenodd" d="M53.8014 172.523L58.4404 173.491L58.3274 174.029L53.786 173.081L46.9101 174.125L46.8271 173.582L53.8014 172.523Z" fill="#C5C5C5"/>
<path fill-rule="evenodd" clip-rule="evenodd" d="M48.9275 174.703L51.5902 175.125L51.5036 175.668L48.9228 175.259L44.9862 175.816L44.9087 175.272L48.9275 174.703Z" fill="#C5C5C5"/>
<path fill-rule="evenodd" clip-rule="evenodd" d="M57.0102 178.652L54.151 177.529L54.3531 177.018L57.0947 178.094L61.4002 177.769L61.4419 178.318L57.0102 178.652Z" fill="#C5C5C5"/>
<path fill-rule="evenodd" clip-rule="evenodd" d="M62.8014 176.971C63.0493 174.662 65.0284 173.15 66.7979 173.15V173.7C65.3081 173.7 63.5674 175.002 63.3497 177.03C63.2418 178.035 63.5882 179.064 64.1458 179.829C64.7116 180.606 65.4407 181.045 66.0596 181L66.0991 181.549C65.2047 181.613 64.3155 180.998 63.6996 180.153C63.0754 179.296 62.6766 178.133 62.8014 176.971Z" fill="#C5C5C5"/>
<path fill-rule="evenodd" clip-rule="evenodd" d="M67.4456 178.974C67.996 178.511 68.327 177.973 68.327 177.532C68.327 177.01 68.0812 176.39 67.7015 175.893C67.3065 175.376 66.8787 175.132 66.5992 175.132C66.2609 175.132 65.7854 175.345 65.3773 175.751C64.9758 176.15 64.7182 176.658 64.7182 177.149C64.7182 177.73 64.8746 178.411 65.1391 178.933C65.4213 179.491 65.7259 179.691 65.943 179.691C66.1017 179.691 66.3363 179.636 66.6173 179.506C66.892 179.38 67.1821 179.196 67.4456 178.974ZM65.943 180.171C66.9577 180.171 68.8081 178.838 68.8081 177.532C68.8081 176.225 67.6138 174.652 66.5992 174.652C65.5845 174.652 64.2371 175.843 64.2371 177.149C64.2371 178.455 64.9284 180.171 65.943 180.171Z" fill="#C5C5C5"/>
<path fill-rule="evenodd" clip-rule="evenodd" d="M65.9491 176.064L66.4983 176.114L66.3721 177.498L67.2459 178.37L66.8559 178.759L65.7996 177.705L65.9491 176.064Z" fill="#C5C5C5"/>
<path d="M283.924 63.6808C283.492 63.6808 283.143 63.3329 283.143 62.9027C283.143 61.8849 283.288 61.0057 283.576 60.2665C283.787 59.7093 284.131 59.1477 284.602 58.5803C284.95 58.1674 285.572 57.5639 286.473 56.7728C287.373 55.9802 287.958 55.3493 288.229 54.8787C288.499 54.408 288.633 53.8941 288.633 53.3368C288.633 52.3277 288.237 51.4427 287.448 50.679C286.66 49.9153 285.691 49.5342 284.545 49.5342C283.437 49.5342 282.512 49.8806 281.771 50.5722C281.23 51.0775 280.823 51.7906 280.554 52.7117C280.368 53.344 279.75 53.7483 279.094 53.6703C278.263 53.5721 277.716 52.7521 277.954 51.9509C278.318 50.7194 278.929 49.7276 279.785 48.974C280.973 47.9244 282.545 47.4004 284.501 47.4004C286.571 47.4004 288.223 47.962 289.456 49.0866C290.69 50.2112 291.305 51.5698 291.305 53.1636C291.305 54.0861 291.088 54.9364 290.655 55.7131C290.222 56.4913 289.374 57.4369 288.113 58.5514C287.266 59.3007 286.712 59.8536 286.451 60.2088C286.19 60.5639 285.998 60.9725 285.873 61.433C285.781 61.7752 285.717 62.2776 285.682 62.9373C285.661 63.3531 285.315 63.6794 284.898 63.6794H283.924V63.6808ZM282.999 67.4055C282.999 66.5899 283.662 65.9287 284.479 65.9287C285.297 65.9287 285.96 66.5899 285.96 67.4055C285.96 68.2212 285.297 68.8824 284.479 68.8824C283.662 68.8824 282.999 68.2212 282.999 67.4055Z" fill="#FDE5E2"/>
<path fill-rule="evenodd" clip-rule="evenodd" d="M277.386 67.9953H240.438V104.844H277.386V67.9953ZM239.886 67.4453V105.394H277.937V67.4453H239.886Z" fill="#C5C5C5"/>
<path d="M244.85 72.3957H272.974V86.7294L273.526 87.4427V71.8457H244.298V78.8069L244.85 78.7646V72.3957Z" fill="#C5C5C5"/>
<path d="M244.298 81.4896H244.85V91.6737H244.298V81.4896Z" fill="#C5C5C5"/>
<path d="M272.974 100.444H244.85V94.413L244.298 94.3948V100.994H273.526V98.399L272.974 98.4477V100.444Z" fill="#C5C5C5"/>
<path fill-rule="evenodd" clip-rule="evenodd" d="M246.228 81.1952V78.9953H240.438V81.1952H246.228ZM239.886 78.4453V81.7452H246.78V78.4453H239.886Z" fill="#C5C5C5"/>
<path fill-rule="evenodd" clip-rule="evenodd" d="M246.228 94.119V91.9191H240.438V94.119H246.228ZM239.886 91.3691V94.669H246.78V91.3691H239.886Z" fill="#C5C5C5"/>
<path fill-rule="evenodd" clip-rule="evenodd" d="M260.015 77.6203H257.809C253.545 77.6203 250.089 81.0675 250.089 85.3199V95.7695H267.735V85.3199C267.735 81.0675 264.279 77.6203 260.015 77.6203ZM257.809 77.0703C253.241 77.0703 249.537 80.7638 249.537 85.3199V96.3195H268.287V85.3199C268.287 80.7638 264.583 77.0703 260.015 77.0703H257.809Z" fill="#C5C5C5"/>
<path fill-rule="evenodd" clip-rule="evenodd" d="M259.188 92.5181L252.57 92.5181L252.57 87.5684L253.122 87.5684L253.122 91.9682L259.188 91.9682L259.188 92.5181Z" fill="#C5C5C5"/>
<path d="M276.324 94.2332C276.313 94.138 276.283 94.0459 276.235 93.9628C276.188 93.8797 276.123 93.8073 276.046 93.7502C275.977 93.71 275.9 93.686 275.821 93.68C275.742 93.674 275.662 93.6861 275.588 93.7155C275.452 93.7644 275.322 93.8303 275.202 93.9116C274.913 94.1088 274.638 94.3274 274.381 94.5655C274.174 94.7526 273.975 94.9437 273.808 95.1089L273.805 95.0188C273.795 94.5591 273.782 93.92 273.773 93.2023C273.756 91.7648 273.756 90.0197 273.825 88.7692L273.826 88.7492L273.824 88.7293C273.784 88.2892 273.922 86.762 272.447 85.9043C271.963 85.6412 271.407 85.5414 270.861 85.6198C270.352 85.6689 269.873 85.8802 269.494 86.2224C268.982 86.7479 268.664 87.4304 268.59 88.1591C268.517 88.662 268.59 89.1751 268.799 89.6384C269.002 90.1304 269.371 90.5366 269.841 90.7876C270.354 91.0265 270.916 91.1378 271.481 91.1117V96.1789C271.459 96.7612 271.563 97.3414 271.785 97.8803C271.921 98.1816 272.156 98.4279 272.451 98.5787C272.819 98.7391 273.232 98.7628 273.616 98.6456C274.128 98.4868 274.58 98.1788 274.915 97.7613C275.29 97.3218 275.602 96.8324 275.842 96.3069C276.067 95.8408 276.226 95.3458 276.314 94.8361C276.348 94.6368 276.352 94.4335 276.324 94.2332ZM273.274 95.7748C273.275 95.8293 273.293 95.882 273.325 95.9263C273.357 95.9707 273.401 96.0046 273.452 96.0238C273.503 96.043 273.559 96.0466 273.612 96.0342C273.665 96.0218 273.714 95.9939 273.751 95.9541L273.751 95.9541H273.751L273.751 95.954L273.751 95.9538L273.752 95.9529L273.756 95.9487L273.771 95.9321C273.785 95.9175 273.806 95.8959 273.832 95.8685C273.885 95.8135 273.961 95.7351 274.053 95.6418C274.239 95.4549 274.489 95.2096 274.751 94.9737C274.986 94.7552 275.237 94.5545 275.502 94.373C275.581 94.3185 275.667 94.2737 275.757 94.2393C275.768 94.2666 275.776 94.2952 275.78 94.3244C275.798 94.4681 275.794 94.6136 275.769 94.7561C275.688 95.2132 275.545 95.657 275.342 96.0751C275.124 96.553 274.841 96.9984 274.5 97.3984C274.239 97.7312 273.885 97.9795 273.482 98.112C273.224 98.1971 272.943 98.1871 272.692 98.084C272.508 97.9867 272.363 97.8297 272.28 97.639C272.096 97.1751 272.012 96.6776 272.033 96.1789V90.5051L271.723 90.5437C271.165 90.612 270.6 90.5262 270.088 90.2957C269.733 90.1019 269.456 89.7914 269.304 89.4169C269.138 89.0515 269.079 88.6468 269.134 88.2495C269.189 87.6341 269.454 87.0561 269.884 86.6113C270.176 86.3561 270.542 86.2 270.93 86.1655C271.355 86.1023 271.79 86.1773 272.17 86.3794C273.328 87.0535 273.226 88.1825 273.273 88.7575C273.205 90.0264 273.205 91.7771 273.222 93.2089C273.23 93.9292 273.243 94.5704 273.254 95.0317C273.26 95.2623 273.264 95.448 273.268 95.5761C273.27 95.6401 273.271 95.6897 273.272 95.7234L273.273 95.7617L273.274 95.7715L273.274 95.774V95.7746L273.274 95.7748" fill="#C5C5C5"/>
<path d="M168.76 116.296C168.328 116.296 167.979 115.948 167.979 115.518C167.979 114.5 168.124 113.621 168.412 112.882C168.624 112.324 168.967 111.763 169.439 111.196C169.786 110.783 170.409 110.179 171.309 109.388C172.209 108.595 172.794 107.965 173.065 107.494C173.336 107.023 173.469 106.509 173.469 105.952C173.469 104.943 173.074 104.058 172.285 103.294C171.496 102.531 170.527 102.149 169.381 102.149C168.273 102.149 167.348 102.496 166.607 103.187C166.066 103.693 165.659 104.406 165.39 105.327C165.204 105.959 164.586 106.364 163.931 106.286C163.1 106.187 162.552 105.367 162.79 104.566C163.155 103.335 163.766 102.343 164.621 101.589C165.81 100.54 167.382 100.016 169.337 100.016C171.407 100.016 173.059 100.577 174.292 101.702C175.526 102.826 176.141 104.185 176.141 105.779C176.141 106.701 175.924 107.552 175.491 108.328C175.058 109.107 174.21 110.052 172.949 111.167C172.102 111.916 171.548 112.469 171.287 112.824C171.027 113.179 170.834 113.588 170.71 114.048C170.617 114.39 170.553 114.893 170.519 115.553C170.497 115.968 170.151 116.295 169.734 116.295H168.76V116.296ZM167.835 120.021C167.835 119.205 168.498 118.544 169.316 118.544C170.134 118.544 170.797 119.205 170.797 120.021C170.797 120.836 170.134 121.498 169.316 121.498C168.498 121.498 167.835 120.836 167.835 120.021Z" fill="#FDE5E2"/>
<path fill-rule="evenodd" clip-rule="evenodd" d="M147.573 118.545L151.869 119.116L154.347 122.024V123.886L154.693 123.917L159.819 126.181L160.881 130.191L162.089 129.804L168.75 133.054L170.367 136.133L168.735 140.274H130.548L129.507 135.232L134.035 130.861L135.241 131.517L135.612 128.026L139.072 125.438L141.191 125.108L143.389 119.696L147.573 118.545ZM141.826 125.009L143.659 124.724L145.605 126.054L150.011 123.493L153.796 123.836V122.226L151.586 119.633L147.611 119.105L143.798 120.154L141.826 125.009ZM146.108 126.398L147.692 127.481L154.805 128.332L156.42 131.621L160.356 130.359L159.353 126.577L154.553 124.457L150.136 124.056L146.108 126.398ZM156.665 132.12L158.238 135.322L156.16 139.724H168.36L169.761 136.165L168.345 133.469L162.046 130.395L156.665 132.12ZM155.551 139.724L157.626 135.327L154.441 128.842L144.377 127.638L138.341 133.204L141.925 135.153L142.33 139.724H155.551ZM141.776 139.724L141.402 135.495L134.127 131.538L130.108 135.417L130.997 139.724H141.776ZM137.831 132.926L144.189 127.061L146.51 127.339L143.528 125.301L139.293 125.961L136.135 128.323L135.765 131.802L137.831 132.926Z" fill="#C5C5C5"/>
<path d="M126.912 140.275H171.856H172.408V139.725H126.361V140.275H126.912Z" fill="#C5C5C5"/>
<path fill-rule="evenodd" clip-rule="evenodd" d="M156.059 135.663L155.636 136.015L151.819 131.447L146.489 131.447L146.489 130.897L152.077 130.897L156.059 135.663Z" fill="#C5C5C5"/>
<path fill-rule="evenodd" clip-rule="evenodd" d="M145.104 123.372L145.528 123.724L147.502 121.361L150.252 121.361V120.811L147.244 120.811L145.104 123.372Z" fill="#C5C5C5"/>
<path fill-rule="evenodd" clip-rule="evenodd" d="M132.243 137.701L132.787 137.795L133.312 134.764L135.694 133.393L135.418 132.917L132.812 134.417L132.243 137.701Z" fill="#C5C5C5"/>
<path d="M245.321 147.095C244.89 147.095 244.541 146.747 244.541 146.317C244.541 145.299 244.686 144.42 244.974 143.681C245.185 143.123 245.528 142.562 246 141.994C246.348 141.581 246.97 140.978 247.87 140.187C248.771 139.394 249.356 138.763 249.626 138.293C249.897 137.822 250.03 137.308 250.03 136.751C250.03 135.742 249.635 134.857 248.846 134.093C248.057 133.329 247.089 132.948 245.942 132.948C244.835 132.948 243.91 133.295 243.169 133.986C242.627 134.492 242.221 135.205 241.951 136.126C241.766 136.758 241.148 137.162 240.492 137.084C239.661 136.986 239.114 136.166 239.351 135.365C239.716 134.133 240.327 133.142 241.183 132.388C242.371 131.339 243.943 130.814 245.899 130.814C247.969 130.814 249.621 131.376 250.854 132.501C252.087 133.625 252.703 134.984 252.703 136.578C252.703 137.5 252.485 138.35 252.053 139.127C251.62 139.905 250.771 140.851 249.511 141.965C248.664 142.715 248.109 143.268 247.849 143.623C247.588 143.978 247.396 144.387 247.271 144.847C247.179 145.189 247.115 145.692 247.08 146.351C247.058 146.767 246.712 147.093 246.295 147.093H245.321V147.095ZM244.396 150.82C244.396 150.004 245.059 149.343 245.877 149.343C246.695 149.343 247.358 150.004 247.358 150.82C247.358 151.635 246.695 152.296 245.877 152.296C245.059 152.296 244.396 151.635 244.396 150.82Z" fill="#FDE5E2"/>
<path fill-rule="evenodd" clip-rule="evenodd" d="M234.752 151.593H212.969C210.99 151.593 209.385 153.193 209.385 155.168V179.917C209.385 181.891 210.99 183.492 212.969 183.492H234.752C236.732 183.492 238.337 181.891 238.337 179.917V155.168C238.337 153.193 236.732 151.593 234.752 151.593ZM212.969 151.043C210.685 151.043 208.833 152.89 208.833 155.168V179.917C208.833 182.195 210.685 184.042 212.969 184.042H234.752C237.036 184.042 238.888 182.195 238.888 179.917V155.168C238.888 152.89 237.036 151.043 234.752 151.043H212.969Z" fill="#C5C5C5"/>
<path fill-rule="evenodd" clip-rule="evenodd" d="M228.41 146.368H219.311V151.043H228.41V146.368ZM218.76 145.818V151.593H228.962V145.818H218.76Z" fill="#C5C5C5"/>
<path fill-rule="evenodd" clip-rule="evenodd" d="M228.41 184.042H219.311V188.717H228.41V184.042ZM218.76 183.492V189.267H228.962V183.492H218.76Z" fill="#C5C5C5"/>
<path fill-rule="evenodd" clip-rule="evenodd" d="M238.725 155.843H208.946V155.293H238.725V155.843Z" fill="#C5C5C5"/>
<path fill-rule="evenodd" clip-rule="evenodd" d="M211.904 170.892L211.904 158.793L212.456 158.793L212.456 170.892L211.904 170.892Z" fill="#C5C5C5"/>
<path fill-rule="evenodd" clip-rule="evenodd" d="M214.536 174.392L214.536 162.293L215.088 162.293L215.088 174.392L214.536 174.392Z" fill="#C5C5C5"/>
<path fill-rule="evenodd" clip-rule="evenodd" d="M238.725 177.718H208.946V177.168H238.725V177.718Z" fill="#C5C5C5"/>
<path d="M51.0224 61.757C50.5911 61.757 50.2422 61.4091 50.2422 60.9789C50.2422 59.9611 50.3869 59.0819 50.675 58.3427C50.8864 57.7854 51.2294 57.2238 51.7014 56.6565C52.0488 56.2436 52.6712 55.6401 53.5716 54.849C54.472 54.0564 55.0569 53.4255 55.3276 52.9549C55.5983 52.4842 55.7315 51.9703 55.7315 51.413C55.7315 50.4039 55.3363 49.5189 54.5473 48.7552C53.7584 47.9915 52.7899 47.6103 51.6435 47.6103C50.536 47.6103 49.611 47.9568 48.8699 48.6483C48.3285 49.1536 47.9217 49.8668 47.6524 50.7879C47.4672 51.4202 46.849 51.8244 46.1933 51.7465C45.3624 51.6483 44.8152 50.8283 45.0526 50.0271C45.4174 48.7956 46.0283 47.8038 46.8838 47.0502C48.0722 46.0006 49.6443 45.4766 51.6 45.4766C53.6701 45.4766 55.3218 46.0382 56.5551 47.1628C57.7885 48.2874 58.4037 49.6459 58.4037 51.2398C58.4037 52.1623 58.1866 53.0126 57.7537 53.7893C57.3209 54.5675 56.4726 55.5131 55.2118 56.6276C54.3649 57.3769 53.8105 57.9298 53.5499 58.2849C53.2894 58.6401 53.0968 59.0487 52.9723 59.5092C52.8797 59.8513 52.816 60.3537 52.7813 61.0135C52.7595 61.4293 52.4136 61.7556 51.9967 61.7556H51.0224V61.757ZM50.0974 65.4817C50.0974 64.666 50.7604 64.0048 51.5783 64.0048C52.3962 64.0048 53.0592 64.666 53.0592 65.4817C53.0592 66.2974 52.3962 66.9586 51.5783 66.9586C50.7604 66.9586 50.0974 66.2974 50.0974 65.4817Z" fill="#FDE5E2"/>
<path fill-rule="evenodd" clip-rule="evenodd" d="M44.5061 65.2022H29.2539V100.492H44.5061V65.2022ZM28.6438 64.5938V101.1H45.1162V64.5938H28.6438Z" fill="#C5C5C5"/>
<path fill-rule="evenodd" clip-rule="evenodd" d="M44.6588 68.8526H28.949V68.2441H44.6588V68.8526Z" fill="#C5C5C5"/>
<path fill-rule="evenodd" clip-rule="evenodd" d="M44.6584 97.4502H29.1011V96.8418H44.6584V97.4502Z" fill="#C5C5C5"/>
<path fill-rule="evenodd" clip-rule="evenodd" d="M39.9305 61.2471H33.8296V64.5936H39.9305V61.2471ZM33.2195 60.6387V65.202H40.5406V60.6387H33.2195Z" fill="#C5C5C5"/>
<path fill-rule="evenodd" clip-rule="evenodd" d="M39.9305 101.101H33.8296V104.447H39.9305V101.101ZM33.2195 100.492V105.056H40.5406V100.492H33.2195Z" fill="#C5C5C5"/>
<path fill-rule="evenodd" clip-rule="evenodd" d="M28.6436 72.8077H26.5083V75.8499H28.6436V72.8077ZM25.8982 72.1992V76.4583H29.2537V72.1992H25.8982Z" fill="#C5C5C5"/>
<path fill-rule="evenodd" clip-rule="evenodd" d="M28.6436 92.8858H26.5083V95.928H28.6436V92.8858ZM25.8982 92.2773V96.5364H29.2537V92.2773H25.8982Z" fill="#C5C5C5"/>
<path fill-rule="evenodd" clip-rule="evenodd" d="M41.7605 84.3682L41.7605 70.9824L42.3706 70.9824L42.3706 84.3682L41.7605 84.3682Z" fill="#C5C5C5"/>
<path fill-rule="evenodd" clip-rule="evenodd" d="M39.3201 88.0186L39.3201 74.6328L39.9302 74.6328L39.9302 88.0186L39.3201 88.0186Z" fill="#C5C5C5"/>
</svg>
