<svg width="32" height="32" viewBox="0 0 32 32" fill="none" xmlns="http://www.w3.org/2000/svg">
<path d="M22.1339 23.2891C21.5891 23.289 21.0564 23.4505 20.6034 23.7532C20.1503 24.0558 19.7972 24.486 19.5887 24.9894C19.3801 25.4927 19.3255 26.0466 19.4318 26.581C19.5381 27.1154 19.8004 27.6062 20.1856 27.9915C20.5708 28.3768 21.0617 28.6392 21.596 28.7455C22.1304 28.8518 22.6843 28.7973 23.1877 28.5888C23.691 28.3804 24.1213 28.0273 24.424 27.5743C24.7267 27.1213 24.8883 26.5887 24.8883 26.0439C24.8884 25.6821 24.8171 25.3239 24.6787 24.9897C24.5403 24.6555 24.3374 24.3518 24.0817 24.096C23.8259 23.8402 23.5222 23.6373 23.188 23.4988C22.8538 23.3604 22.4956 23.2891 22.1339 23.2891Z" fill="#C7C6C6"/>
<path d="M29.9836 8.26287C29.9254 8.19133 29.8517 8.13391 29.7682 8.09494C29.6846 8.05598 29.5933 8.03647 29.5011 8.0379H7.61622L7.23128 6.47197C7.06978 5.80842 6.68943 5.21864 6.1516 4.7978C5.61377 4.37695 4.94983 4.14957 4.26692 4.15237H2.76564C2.60335 4.15432 2.44837 4.22016 2.33429 4.33561C2.22022 4.45106 2.15625 4.60683 2.15625 4.76913C2.15625 4.93143 2.22022 5.08719 2.33429 5.20265C2.44837 5.3181 2.60335 5.38394 2.76564 5.38589H4.26692C4.67326 5.38267 5.06878 5.51675 5.38941 5.76639C5.71004 6.01604 5.93698 6.36662 6.03348 6.76135L9.028 18.9903C9.19034 19.6525 9.57137 20.2406 10.1094 20.6594C10.6475 21.0782 11.3111 21.3032 11.9929 21.298H24.802C25.4927 21.3035 26.1645 21.0725 26.7057 20.6435C27.247 20.2145 27.6252 19.6132 27.7775 18.9395L30.1024 8.77742C30.1231 8.68827 30.1232 8.59556 30.1026 8.50637C30.082 8.41719 30.0413 8.33389 29.9836 8.26287V8.26287Z" fill="#C7C6C6"/>
<path d="M13.7938 23.2891C13.249 23.2891 12.7164 23.4506 12.2634 23.7533C11.8104 24.056 11.4573 24.4862 11.2488 24.9895C11.0403 25.4929 10.9857 26.0468 11.092 26.5811C11.1983 27.1155 11.4606 27.6063 11.8459 27.9916C12.2311 28.3769 12.7219 28.6392 13.2563 28.7455C13.7906 28.8518 14.3445 28.7973 14.8479 28.5888C15.3512 28.3803 15.7815 28.0273 16.0842 27.5743C16.3869 27.1213 16.5485 26.5887 16.5485 26.0439C16.5485 25.6821 16.4773 25.3239 16.3389 24.9896C16.2004 24.6554 15.9975 24.3517 15.7417 24.0959C15.4859 23.8401 15.1822 23.6372 14.848 23.4987C14.5138 23.3603 14.1556 23.289 13.7938 23.2891V23.2891Z" fill="#C7C6C6"/>
</svg>
