<svg width="17" height="17" viewBox="0 0 17 17" fill="none" xmlns="http://www.w3.org/2000/svg">
<g opacity="0.6">
<path d="M1.41602 2.1224C1.41602 1.93453 1.49064 1.75437 1.62348 1.62153C1.75632 1.48869 1.93649 1.41406 2.12435 1.41406H10.6243C10.8122 1.41406 10.9924 1.48869 11.1252 1.62153C11.2581 1.75437 11.3327 1.93453 11.3327 2.1224C11.3327 2.31026 11.2581 2.49042 11.1252 2.62326C10.9924 2.7561 10.8122 2.83073 10.6243 2.83073H2.12435C1.93649 2.83073 1.75632 2.7561 1.62348 2.62326C1.49064 2.49042 1.41602 2.31026 1.41602 2.1224ZM9.20768 5.66406H2.12435C1.93649 5.66406 1.75632 5.73869 1.62348 5.87153C1.49064 6.00437 1.41602 6.18453 1.41602 6.3724C1.41602 6.56026 1.49064 6.74042 1.62348 6.87326C1.75632 7.0061 1.93649 7.08073 2.12435 7.08073H9.20768C9.39554 7.08073 9.57571 7.0061 9.70855 6.87326C9.84139 6.74042 9.91602 6.56026 9.91602 6.3724C9.91602 6.18453 9.84139 6.00437 9.70855 5.87153C9.57571 5.73869 9.39554 5.66406 9.20768 5.66406ZM7.79102 9.91406H2.12435C1.93649 9.91406 1.75632 9.98869 1.62348 10.1215C1.49064 10.2544 1.41602 10.4345 1.41602 10.6224C1.41602 10.8103 1.49064 10.9904 1.62348 11.1233C1.75632 11.2561 1.93649 11.3307 2.12435 11.3307H7.79102C7.97888 11.3307 8.15904 11.2561 8.29188 11.1233C8.42472 10.9904 8.49935 10.8103 8.49935 10.6224C8.49935 10.4345 8.42472 10.2544 8.29188 10.1215C8.15904 9.98869 7.97888 9.91406 7.79102 9.91406ZM6.37435 14.1641H2.12435C1.93649 14.1641 1.75632 14.2387 1.62348 14.3715C1.49064 14.5044 1.41602 14.6845 1.41602 14.8724C1.41602 15.0603 1.49064 15.2404 1.62348 15.3733C1.75632 15.5061 1.93649 15.5807 2.12435 15.5807H6.37435C6.56221 15.5807 6.74238 15.5061 6.87522 15.3733C7.00805 15.2404 7.08268 15.0603 7.08268 14.8724C7.08268 14.6845 7.00805 14.5044 6.87522 14.3715C6.74238 14.2387 6.56221 14.1641 6.37435 14.1641ZM15.3773 12.2445C15.3114 12.1781 15.2331 12.1254 15.1468 12.0894C15.0604 12.0535 14.9679 12.035 14.8743 12.035C14.7808 12.035 14.6883 12.0535 14.6019 12.0894C14.5156 12.1254 14.4373 12.1781 14.3714 12.2445L13.4577 13.1653V2.1224C13.4577 1.93453 13.3831 1.75437 13.2502 1.62153C13.1174 1.48869 12.9372 1.41406 12.7493 1.41406C12.5615 1.41406 12.3813 1.48869 12.2485 1.62153C12.1156 1.75437 12.041 1.93453 12.041 2.1224V13.1653L11.1273 12.2445C11.0612 12.1784 10.9828 12.126 10.8965 12.0903C10.8102 12.0546 10.7177 12.0362 10.6243 12.0362C10.5309 12.0362 10.4385 12.0546 10.3522 12.0903C10.2659 12.126 10.1875 12.1784 10.1214 12.2445C10.0554 12.3105 10.003 12.3889 9.96726 12.4752C9.93151 12.5615 9.91312 12.654 9.91312 12.7474C9.91312 12.8408 9.93151 12.9333 9.96726 13.0196C10.003 13.1059 10.0554 13.1843 10.1214 13.2503L12.2464 15.3753C12.3123 15.4417 12.3906 15.4944 12.4769 15.5304C12.5633 15.5663 12.6558 15.5848 12.7493 15.5848C12.8429 15.5848 12.9354 15.5663 13.0218 15.5304C13.1081 15.4944 13.1864 15.4417 13.2523 15.3753L15.3773 13.2503C15.4437 13.1845 15.4964 13.1061 15.5323 13.0198C15.5683 12.9335 15.5868 12.8409 15.5868 12.7474C15.5868 12.6539 15.5683 12.5613 15.5323 12.475C15.4964 12.3887 15.4437 12.3103 15.3773 12.2445Z" fill="#5C5A5A"/>
</g>
</svg>
