<svg width="36" height="36" viewBox="0 0 36 36" fill="none" xmlns="http://www.w3.org/2000/svg">
<path d="M17.9986 7.08984C16.4938 7.08984 15.27 8.31366 15.27 9.81847C15.27 11.3233 16.4938 12.547 17.9986 12.547C19.5035 12.547 20.7272 11.3232 20.7272 9.81847C20.7272 8.31373 19.5034 7.08984 17.9986 7.08984ZM17.9986 11.1834C17.2462 11.1834 16.6337 10.5709 16.6337 9.81847C16.6337 9.06607 17.2462 8.45352 17.9986 8.45352C18.7511 8.45352 19.3636 9.06607 19.3636 9.81847C19.3636 10.5709 18.7511 11.1834 17.9986 11.1834Z" fill="#F5978C"/>
<path d="M32.3181 15.2729C32.695 15.2729 33 14.9698 33 14.593V11.866C33 11.6257 32.8735 11.4027 32.6664 11.2801L19.3289 3.3595C19.3229 3.35547 19.3169 3.35215 19.311 3.34882C18.482 2.88943 17.5472 2.8755 16.6702 3.35816L3.3336 11.2801C3.1265 11.4026 3 11.6257 3 11.866V14.593C3 14.9698 3.30496 15.2729 3.68184 15.2729H5.72729V27.5462C4.22311 27.5462 3 28.7691 3 30.2731V32.3184C3 32.6952 3.30496 33.0002 3.68184 33.0002H32.3181C32.695 33.0002 33 32.6953 33 32.3184V30.2731C33 28.7691 31.7768 27.5462 30.2727 27.5462V15.2729H32.3181ZM31.6363 30.2729V31.6365H4.36361V30.2729C4.36361 29.5212 4.97552 28.9093 5.72722 28.9093H6.40906H29.5908H30.2727C31.0244 28.9092 31.6363 29.5211 31.6363 30.2729ZM7.0909 27.5456V15.2729H9.81818V27.5456H7.0909ZM11.1818 27.5456V15.2729H15.2727V27.5456H11.1818ZM16.6363 27.5456V15.2729H19.3636V27.5456H16.6363ZM20.7272 27.5456V15.2729H24.8181V27.5456H20.7272ZM26.1818 27.5456V15.2729H28.9091V27.5456H26.1818ZM4.36361 13.9093V12.252L17.3468 4.53896C17.7716 4.30526 18.223 4.3059 18.6425 4.53429L31.6363 12.252V13.9093H4.36361Z" fill="#F5978C"/>
</svg>
