<svg width="60" height="60" viewBox="0 0 60 60" fill="none" xmlns="http://www.w3.org/2000/svg">
<path fill-rule="evenodd" clip-rule="evenodd" d="M45.546 11.6712H29.7416V48.3375H45.546V11.6712ZM29.1094 11.0391V48.9697H46.1782V11.0391H29.1094Z" fill="#3B3B3B"/>
<path fill-rule="evenodd" clip-rule="evenodd" d="M45.7044 15.4603H29.4258V14.8281H45.7044V15.4603Z" fill="#3B3B3B"/>
<path fill-rule="evenodd" clip-rule="evenodd" d="M45.7025 45.1712H29.582V44.5391H45.7025V45.1712Z" fill="#3B3B3B"/>
<path fill-rule="evenodd" clip-rule="evenodd" d="M40.8055 7.55406H34.4838V11.031H40.8055V7.55406ZM33.8516 6.92188V11.6632H41.4377V6.92188H33.8516Z" fill="#3B3B3B"/>
<path fill-rule="evenodd" clip-rule="evenodd" d="M40.8055 48.9603H34.4838V52.4373H40.8055V48.9603ZM33.8516 48.3281V53.0695H41.4377V48.3281H33.8516Z" fill="#3B3B3B"/>
<path fill-rule="evenodd" clip-rule="evenodd" d="M29.1104 19.5697H26.8977V22.7306H29.1104V19.5697ZM26.2656 18.9375V23.3627H29.7425V18.9375H26.2656Z" fill="#3B3B3B"/>
<path fill-rule="evenodd" clip-rule="evenodd" d="M29.1104 40.4369H26.8977V43.5977H29.1104V40.4369ZM26.2656 39.8047V44.2299H29.7425V39.8047H26.2656Z" fill="#3B3B3B"/>
<path fill-rule="evenodd" clip-rule="evenodd" d="M42.6992 31.5798V17.6719H43.3313V31.5798H42.6992Z" fill="#3B3B3B"/>
<path fill-rule="evenodd" clip-rule="evenodd" d="M40.1719 35.3688V21.4609H40.8041V35.3688H40.1719Z" fill="#3B3B3B"/>
</svg>
