<svg width="60" height="60" viewBox="0 0 60 60" fill="none" xmlns="http://www.w3.org/2000/svg">
<path fill-rule="evenodd" clip-rule="evenodd" d="M53.2735 10.8839H21.8449V53.1696H53.2735V10.8839ZM21.2734 10.3125V53.7411H53.8449V10.3125H21.2734Z" fill="#3B3B3B"/>
<path fill-rule="evenodd" clip-rule="evenodd" d="M46.9872 31.7433H28.13V53.1719H46.9872V31.7433ZM27.5586 31.1719V53.7433H47.5586V31.1719H27.5586Z" fill="#3B3B3B"/>
<path fill-rule="evenodd" clip-rule="evenodd" d="M48.9872 17.4542H26.13V25.1685H48.9872V17.4542ZM25.5586 16.8828V25.74H49.5586V16.8828H25.5586Z" fill="#3B3B3B"/>
<path fill-rule="evenodd" clip-rule="evenodd" d="M53.2735 10.8839H21.8449V12.3125H53.2735V10.8839ZM21.2734 10.3125V12.8839H53.8449V10.3125H21.2734Z" fill="#3B3B3B"/>
<path fill-rule="evenodd" clip-rule="evenodd" d="M23.2734 53.1696V12.8839H21.8448V53.1696H23.2734ZM23.8448 12.3125H21.2734V53.7411H23.8448V12.3125Z" fill="#3B3B3B"/>
<path fill-rule="evenodd" clip-rule="evenodd" d="M53.2734 53.1696V12.8839H51.8448V53.1696H53.2734ZM53.8448 12.3125H51.2734V53.7411H53.8448V12.3125Z" fill="#3B3B3B"/>
<path fill-rule="evenodd" clip-rule="evenodd" d="M43.0205 5.45312H47.3904L49.6663 7.72905L50.6619 10.8817H23.7852L27.2604 6.91006L31.7449 5.86368L33.2006 6.69548L34.6247 5.8817H40.896L41.3179 6.96655L43.0205 5.45312ZM41.6183 7.73884L42.0285 8.79367L40.7452 10.3103H45.272V9.43486L43.4455 7.73884H41.6183ZM45.8435 10.3103H49.8822L49.1635 8.03434L47.1537 6.02455H43.2378L41.9521 7.16741H43.6699L45.8435 9.18569V10.3103ZM39.9967 10.3103L41.3727 8.68401L40.5051 6.45313H34.7765L33.7765 7.02455L34.9537 7.69728L35.5039 10.3103H39.9967ZM34.9199 10.3103L34.4474 8.06611L31.6563 6.47115L27.5694 7.42476L25.0445 10.3103H34.9199Z" fill="#3B3B3B"/>
<path fill-rule="evenodd" clip-rule="evenodd" d="M34.9102 25.1674V17.4531H35.4817V25.1674H34.9102Z" fill="#3B3B3B"/>
<path fill-rule="evenodd" clip-rule="evenodd" d="M29.793 25.1674V17.4531H30.3645V25.1674H29.793Z" fill="#3B3B3B"/>
<path fill-rule="evenodd" clip-rule="evenodd" d="M40.0273 25.1674V17.4531H40.5988V25.1674H40.0273Z" fill="#3B3B3B"/>
<path fill-rule="evenodd" clip-rule="evenodd" d="M45.1406 25.1674V17.4531H45.7121V25.1674H45.1406Z" fill="#3B3B3B"/>
<path fill-rule="evenodd" clip-rule="evenodd" d="M17.7388 34.5949H6.02456V41.1663C6.02456 42.7443 7.30373 44.0234 8.88169 44.0234H14.8817C16.4596 44.0234 17.7388 42.7443 17.7388 41.1663V34.5949ZM5.45312 34.0234V41.1663C5.45312 43.0598 6.98814 44.5949 8.88169 44.5949H14.8817C16.7752 44.5949 18.3102 43.0598 18.3102 41.1663V34.0234H5.45312Z" fill="#3B3B3B"/>
<path fill-rule="evenodd" clip-rule="evenodd" d="M10.1796 34.0268V29.5982C10.1796 29.2037 9.85989 28.8839 9.4654 28.8839C9.07092 28.8839 8.75112 29.2037 8.75112 29.5982V34.0268H10.1796ZM9.4654 28.3125C8.75532 28.3125 8.17969 28.8881 8.17969 29.5982V34.5982H10.7511V29.5982C10.7511 28.8881 10.1754 28.3125 9.4654 28.3125Z" fill="#3B3B3B"/>
<path fill-rule="evenodd" clip-rule="evenodd" d="M14.7266 34.0268V29.5982C14.7266 29.2037 14.4068 28.8839 14.0124 28.8839C13.6179 28.8839 13.2981 29.2037 13.2981 29.5982V34.0268H14.7266ZM14.0124 28.3125C13.3023 28.3125 12.7266 28.8881 12.7266 29.5982V34.5982H15.2981V29.5982C15.2981 28.8881 14.7224 28.3125 14.0124 28.3125Z" fill="#3B3B3B"/>
<path fill-rule="evenodd" clip-rule="evenodd" d="M10.3125 44.0156H13.1697V48.5952L13.1696 48.5966C13.1696 48.5967 13.1696 48.5966 13.1696 48.5966C13.1696 48.5969 13.1696 48.5973 13.1696 48.5976C13.1697 48.5999 13.1697 48.6047 13.1701 48.6118C13.1707 48.626 13.1723 48.6492 13.1761 48.6798C13.1839 48.7412 13.2006 48.8308 13.2368 48.9358C13.3085 49.144 13.4568 49.4143 13.7697 49.6489C14.2854 50.0358 15.016 50.2408 15.6452 50.3457C15.9552 50.3974 16.2311 50.4233 16.4293 50.4362C16.5283 50.4426 16.6075 50.4458 16.6613 50.4474C16.6883 50.4482 16.7088 50.4486 16.7224 50.4488L16.7373 50.449H16.7406H16.7411H18.5982V53.1582L18.3176 53.1632L18.3125 52.8776C18.3176 53.1632 18.3177 53.1632 18.3176 53.1632L18.3143 53.1633L18.3052 53.1634L18.2704 53.1639C18.2401 53.1642 18.1956 53.1646 18.1386 53.1648C18.0247 53.1652 17.8606 53.1649 17.659 53.1621C17.2559 53.1565 16.7015 53.1407 16.0969 53.1001C15.493 53.0596 14.8349 52.9939 14.2256 52.8878C13.621 52.7825 13.0437 52.634 12.6133 52.4188C10.9037 51.5639 10.4596 49.7377 10.3149 48.6288L10.3125 48.6104V44.0156ZM18.0268 52.5935V51.0204H16.7411V50.7347C16.7411 51.0204 16.7412 51.0204 16.7411 51.0204H16.7408H16.7387H16.7334L16.7143 51.0202C16.698 51.0199 16.6745 51.0195 16.6445 51.0186C16.5846 51.0168 16.4985 51.0134 16.3921 51.0064C16.1796 50.9925 15.8842 50.9648 15.5513 50.9094C14.8947 50.7999 14.0539 50.5764 13.4268 50.1061C13.0079 49.7919 12.799 49.4194 12.6965 49.1219C12.6456 48.9741 12.621 48.8452 12.6092 48.7513C12.6032 48.7042 12.6005 48.6656 12.5992 48.6374C12.5986 48.6232 12.5983 48.6116 12.5982 48.6029C12.5982 48.5985 12.5982 48.5948 12.5982 48.5918V48.5901V44.5871H10.884V48.5731C11.0273 49.6539 11.4437 51.1951 12.8689 51.9077C13.2242 52.0854 13.7362 52.2225 14.3236 52.3249C14.9062 52.4263 15.5427 52.4902 16.1352 52.53C16.7271 52.5697 17.2709 52.5852 17.667 52.5908C17.807 52.5927 17.9285 52.5934 18.0268 52.5935Z" fill="#3B3B3B"/>
<path fill-rule="evenodd" clip-rule="evenodd" d="M34.7306 42.2152L34.7136 42.2297C33.8112 43.0048 33.251 43.5917 32.9059 44.2041C32.571 44.7986 32.4152 45.461 32.4152 46.4294C32.4152 47.5842 32.7989 48.8625 33.4109 49.7212H41.4195C42.0315 48.8625 42.4152 47.5842 42.4152 46.4294C42.4152 45.5274 42.0179 44.0783 40.9845 42.9065C40.9468 43.0075 40.9056 43.1175 40.8593 43.2368C40.7451 43.5307 40.594 43.8942 40.409 44.1468C40.3229 44.2645 40.1647 44.4509 39.9188 44.531C39.7807 44.5759 39.6256 44.5832 39.4706 44.5364C39.3222 44.4916 39.2078 44.4075 39.1235 44.3229L38.9946 44.1934L38.9647 44.0133C38.9202 43.7446 38.8877 43.4965 38.8569 43.2603C38.7449 42.4036 38.6533 41.7024 38.0774 40.7378C37.6822 40.076 37.377 39.6455 37.0051 39.2886C36.8247 39.1155 36.6223 38.9537 36.3763 38.7901C36.3865 39.1002 36.3673 39.4205 36.2911 39.7523C36.1145 40.5214 35.6535 41.2878 34.7463 42.1993L34.7306 42.2152ZM35.778 38.4341C35.8858 39.4619 35.7624 40.3683 34.3414 41.7962C32.5163 43.3639 31.8438 44.3572 31.8438 46.4294C31.8438 47.7898 32.3267 49.3225 33.1296 50.2926H41.701C42.5039 49.3225 42.9866 47.7898 42.9866 46.4294C42.9866 45.2537 42.4102 43.3406 40.8733 41.9893C40.8248 41.9131 40.7648 41.9693 40.695 42.1029C40.6681 42.1544 40.6397 42.2174 40.6101 42.2888C40.5896 42.3381 40.5683 42.3914 40.5466 42.4477C40.5451 42.4516 40.5436 42.4555 40.5421 42.4594C40.5121 42.5373 40.4812 42.6205 40.4491 42.7065C40.332 43.0203 40.2011 43.3707 40.0613 43.627C40.0123 43.7169 39.9623 43.7952 39.9113 43.8563C39.7881 44.0039 39.6595 44.0514 39.5285 43.9198C39.5047 43.7766 39.4846 43.6364 39.4659 43.498C39.4535 43.4065 39.4416 43.3157 39.43 43.2256C39.3165 42.3487 39.2092 41.5187 38.568 40.4449C37.8813 39.2949 37.3893 38.7041 36.3108 38.0777C36.1219 37.968 35.9151 37.8572 35.6861 37.7422C35.6912 37.778 35.6964 37.8135 35.7014 37.8488C35.7304 38.0508 35.7581 38.2445 35.778 38.4341Z" fill="#3B3B3B"/>
<path fill-rule="evenodd" clip-rule="evenodd" d="M44.9872 34.0246H30.13V49.7388H44.9872V34.0246ZM29.5586 33.4531V50.3103H45.5586V33.4531H29.5586Z" fill="#3B3B3B"/>
</svg>
