<svg width="60" height="60" viewBox="0 0 60 60" fill="none" xmlns="http://www.w3.org/2000/svg">
<path fill-rule="evenodd" clip-rule="evenodd" d="M30.2852 21.1417H20.8567V50.856H30.2852V21.1417ZM20.2852 20.5703V51.4275H30.8567V20.5703H20.2852Z" fill="#3B3B3B"/>
<path fill-rule="evenodd" clip-rule="evenodd" d="M17.7148 15.4297L20.2862 21.144H30.8576L33.4291 15.4297H17.7148ZM18.5985 16.0011L20.6557 20.5725H30.4881L32.5453 16.0011H18.5985Z" fill="#3B3B3B"/>
<path fill-rule="evenodd" clip-rule="evenodd" d="M14.8555 15.9989L25.5698 8.57031L36.2841 15.9989H14.8555ZM16.6826 15.4275L25.5698 9.26565L34.457 15.4275H16.6826Z" fill="#3B3B3B"/>
<path fill-rule="evenodd" clip-rule="evenodd" d="M44.5703 24.8605H35.1417V50.8605H44.5703V24.8605ZM34.5703 24.2891V51.4319H45.1417V24.2891H34.5703Z" fill="#3B3B3B"/>
<path fill-rule="evenodd" clip-rule="evenodd" d="M27.2578 20.8583V15.4297H27.8293V20.8583H27.2578Z" fill="#3B3B3B"/>
<path fill-rule="evenodd" clip-rule="evenodd" d="M23.2578 20.8583V15.4297H23.8293V20.8583H23.2578Z" fill="#3B3B3B"/>
<path fill-rule="evenodd" clip-rule="evenodd" d="M30.8567 24.0011H20.2852V23.4297H30.8567V24.0011Z" fill="#3B3B3B"/>
<path fill-rule="evenodd" clip-rule="evenodd" d="M30.8567 48.0011H20.2852V47.4297H30.8567V48.0011Z" fill="#3B3B3B"/>
<path fill-rule="evenodd" clip-rule="evenodd" d="M45.1417 27.7121H34.5703V27.1406H45.1417V27.7121Z" fill="#3B3B3B"/>
<path fill-rule="evenodd" clip-rule="evenodd" d="M45.1417 48.0011H34.5703V47.4297H45.1417V48.0011Z" fill="#3B3B3B"/>
<path fill-rule="evenodd" clip-rule="evenodd" d="M22 40.0011V27.4297H22.5714V40.0011H22Z" fill="#3B3B3B"/>
<path fill-rule="evenodd" clip-rule="evenodd" d="M36.2852 46.2857V40H36.8566V46.2857H36.2852Z" fill="#3B3B3B"/>
</svg>
