<svg width="60" height="60" viewBox="0 0 60 60" fill="none" xmlns="http://www.w3.org/2000/svg">
<path fill-rule="evenodd" clip-rule="evenodd" d="M48.8571 10.5714H10.5714V48.8571H48.8571V10.5714ZM10 10V49.4286H49.4286V10H10Z" fill="#3B3B3B"/>
<path d="M15.1417 15.1417H44.2846V30.0346L44.856 30.7757V14.5703H14.5703V21.8031L15.1417 21.759V15.1417Z" fill="#3B3B3B"/>
<path d="M14.5703 24.5938H15.1417V35.1752H14.5703V24.5938Z" fill="#3B3B3B"/>
<path d="M44.2846 44.2856H15.1417V38.0189L14.5703 38V44.857H44.856V42.1604L44.2846 42.211V44.2856Z" fill="#3B3B3B"/>
<path fill-rule="evenodd" clip-rule="evenodd" d="M16.5714 24.2868V22.0011H10.5714V24.2868H16.5714ZM10 21.4297V24.8583H17.1429V21.4297H10Z" fill="#3B3B3B"/>
<path fill-rule="evenodd" clip-rule="evenodd" d="M16.5714 37.7165V35.4308H10.5714V37.7165H16.5714ZM10 34.8594V38.2879H17.1429V34.8594H10Z" fill="#3B3B3B"/>
<path fill-rule="evenodd" clip-rule="evenodd" d="M30.8571 20.5714H28.5714C24.1532 20.5714 20.5714 24.1532 20.5714 28.5714V39.4286H38.8571V28.5714C38.8571 24.1532 35.2754 20.5714 30.8571 20.5714ZM28.5714 20C23.8376 20 20 23.8376 20 28.5714V40H39.4286V28.5714C39.4286 23.8376 35.591 20 30.8571 20H28.5714Z" fill="#3B3B3B"/>
<path fill-rule="evenodd" clip-rule="evenodd" d="M30.0016 36.0569H23.1445V30.9141H23.7159V35.4855H30.0016V36.0569Z" fill="#3B3B3B"/>
<path d="M47.7574 37.8359C47.7464 37.7369 47.7152 37.6412 47.6656 37.5549C47.616 37.4685 47.5491 37.3933 47.4692 37.334C47.398 37.2922 47.3183 37.2673 47.2361 37.261C47.1538 37.2548 47.0712 37.2674 46.9946 37.2979C46.8534 37.3488 46.7191 37.4172 46.595 37.5017C46.2948 37.7066 46.0104 37.9337 45.7442 38.1811C45.529 38.3754 45.323 38.574 45.1499 38.7457L45.1477 38.6521C45.1365 38.1745 45.1232 37.5104 45.1142 36.7647C45.0964 35.2711 45.0966 33.4579 45.1674 32.1587L45.1686 32.1379L45.1667 32.1173C45.1251 31.66 45.2679 30.0732 43.7404 29.182C43.2387 28.9087 42.6621 28.805 42.0967 28.8864C41.5694 28.9375 41.0727 29.157 40.6801 29.5126C40.15 30.0586 39.8198 30.7676 39.7432 31.5247C39.668 32.0473 39.7432 32.5804 39.9599 33.0618C40.1706 33.573 40.5525 33.9951 41.04 34.2558C41.5708 34.5041 42.1539 34.6196 42.7392 34.5926V39.8574C42.7165 40.4624 42.8238 41.0652 43.054 41.6252C43.1951 41.9383 43.4383 42.1941 43.7439 42.3509C44.1252 42.5174 44.5535 42.5421 44.9514 42.4203C45.4816 42.2553 45.9503 41.9353 46.297 41.5015C46.6861 41.0449 47.0096 40.5364 47.2583 39.9904C47.4912 39.5061 47.6558 38.9918 47.7474 38.4622C47.7826 38.2552 47.786 38.0439 47.7574 37.8359ZM44.5966 39.4376C44.5983 39.4942 44.6168 39.549 44.6497 39.595C44.6826 39.6411 44.7285 39.6763 44.7814 39.6962C44.8344 39.7162 44.8921 39.72 44.9472 39.7071C45.0023 39.6942 45.0524 39.6652 45.091 39.6238L45.0912 39.6236L45.0922 39.6226L45.0962 39.6183L45.1124 39.601C45.1268 39.5858 45.148 39.5634 45.1754 39.5349C45.23 39.4778 45.3087 39.3963 45.4045 39.2994C45.5965 39.1052 45.8558 38.8503 46.1272 38.6052C46.371 38.3782 46.6313 38.1696 46.9059 37.9811C46.9879 37.9245 47.0764 37.8779 47.1695 37.8422C47.1813 37.8705 47.1895 37.9002 47.1939 37.9306C47.2123 38.0799 47.2083 38.231 47.182 38.3791C47.0984 38.8541 46.9497 39.3152 46.7401 39.7495C46.5144 40.2461 46.2207 40.7088 45.8675 41.1245C45.5968 41.4703 45.2298 41.7283 44.8128 41.866C44.545 41.9543 44.2544 41.944 43.9936 41.8369C43.8031 41.7357 43.6527 41.5726 43.5674 41.3745C43.3763 40.8924 43.2888 40.3755 43.3107 39.8574V33.9623L42.9895 34.0024C42.4119 34.0733 41.826 33.9842 41.2956 33.7447C40.9274 33.5434 40.6402 33.2208 40.4829 32.8317C40.3111 32.452 40.25 32.0315 40.3068 31.6187C40.3643 30.9793 40.6386 30.3788 41.0841 29.9166C41.3872 29.6515 41.7665 29.4893 42.1676 29.4534C42.6086 29.3877 43.0591 29.4657 43.4525 29.6757C44.6532 30.3761 44.547 31.5491 44.596 32.1465C44.525 33.4649 44.5251 35.2839 44.5429 36.7716C44.5518 37.5199 44.5652 38.1862 44.5764 38.6654C44.582 38.9051 44.587 39.098 44.5907 39.2311C44.5925 39.2976 44.594 39.3492 44.595 39.3841L44.5961 39.4239L44.5965 39.4341V39.4367V39.4374L44.5966 39.4376Z" fill="#3B3B3B"/>
</svg>
