<svg width="60" height="60" viewBox="0 0 60 60" fill="none" xmlns="http://www.w3.org/2000/svg">
<path fill-rule="evenodd" clip-rule="evenodd" d="M56.3633 10.883H24.9347V53.1687H56.3633V10.883ZM24.3633 10.3115V53.7401H56.9347V10.3115H24.3633Z" fill="#3B3B3B"/>
<path fill-rule="evenodd" clip-rule="evenodd" d="M50.0775 31.7404H31.2204V53.1689H50.0775V31.7404ZM30.6489 31.1689V53.7404H50.6489V31.1689H30.6489Z" fill="#3B3B3B"/>
<path fill-rule="evenodd" clip-rule="evenodd" d="M52.0775 17.4547H29.2204V25.169H52.0775V17.4547ZM28.6489 16.8833V25.7404H52.6489V16.8833H28.6489Z" fill="#3B3B3B"/>
<path fill-rule="evenodd" clip-rule="evenodd" d="M56.3633 10.883H24.9347V12.3115H56.3633V10.883ZM24.3633 10.3115V12.883H56.9347V10.3115H24.3633Z" fill="#3B3B3B"/>
<path fill-rule="evenodd" clip-rule="evenodd" d="M26.3631 53.1687L26.3631 12.883L24.9346 12.883L24.9346 53.1687L26.3631 53.1687ZM26.9346 12.3115L24.3631 12.3115L24.3631 53.7401L26.9346 53.7401L26.9346 12.3115Z" fill="#3B3B3B"/>
<path fill-rule="evenodd" clip-rule="evenodd" d="M56.3631 53.1687L56.3631 12.883L54.9346 12.883L54.9346 53.1687L56.3631 53.1687ZM56.9346 12.3115L54.3631 12.3115L54.3631 53.7401L56.9346 53.7401L56.9346 12.3115Z" fill="#3B3B3B"/>
<path fill-rule="evenodd" clip-rule="evenodd" d="M46.1118 5.45459H50.4816L52.7575 7.73052L53.7531 10.8832H26.8765L30.3516 6.91153L34.8362 5.86514L36.2918 6.69695L37.716 5.88316H43.9873L44.4092 6.96802L46.1118 5.45459ZM44.7095 7.7403L45.1197 8.79513L43.8364 10.3117H48.3633V9.43632L46.5368 7.7403H44.7095ZM48.9347 10.3117H52.9734L52.2547 8.0358L50.2449 6.02602H46.329L45.0433 7.16888H46.7612L48.9347 9.18714V10.3117ZM43.0879 10.3117L44.4639 8.68548L43.5964 6.45459H37.8677L36.8677 7.02602L38.045 7.69875L38.5951 10.3117H43.0879ZM38.0111 10.3117L37.5387 8.06757L34.7475 6.47261L30.6606 7.42622L28.1358 10.3117H38.0111Z" fill="#3B3B3B"/>
<path fill-rule="evenodd" clip-rule="evenodd" d="M37.8172 25.1689L37.8172 17.4546L38.3887 17.4546L38.3887 25.1689L37.8172 25.1689Z" fill="#3B3B3B"/>
<path fill-rule="evenodd" clip-rule="evenodd" d="M32.7005 25.1689L32.7005 17.4546L33.272 17.4546L33.272 25.1689L32.7005 25.1689Z" fill="#3B3B3B"/>
<path fill-rule="evenodd" clip-rule="evenodd" d="M42.9339 25.1689L42.9339 17.4546L43.5054 17.4546L43.5054 25.1689L42.9339 25.1689Z" fill="#3B3B3B"/>
<path fill-rule="evenodd" clip-rule="evenodd" d="M48.0511 25.1689L48.0511 17.4546L48.6226 17.4546L48.6226 25.1689L48.0511 25.1689Z" fill="#3B3B3B"/>
<path fill-rule="evenodd" clip-rule="evenodd" d="M38.1075 42.2132L38.0906 42.2278C37.1881 43.0029 36.6279 43.5898 36.2829 44.2022C35.948 44.7967 35.7921 45.4591 35.7921 46.4275C35.7921 47.5823 36.1758 48.8605 36.7878 49.7193H44.7965C45.4085 48.8605 45.7921 47.5823 45.7921 46.4275C45.7921 45.5255 45.3948 44.0764 44.3614 42.9045C44.3237 43.0056 44.2826 43.1156 44.2362 43.2348C44.122 43.5288 43.9708 43.8922 43.7859 44.1449C43.6997 44.2626 43.5416 44.449 43.2957 44.529C43.1575 44.574 43.0026 44.5813 42.8476 44.5344C42.6992 44.4896 42.5847 44.4056 42.5004 44.3209L42.3716 44.1915L42.3417 44.0113C42.2971 43.7427 42.2647 43.4946 42.2338 43.2583C42.1218 42.4017 42.0301 41.7004 41.4542 40.7359C41.059 40.074 40.7539 39.6436 40.3821 39.2867C40.2017 39.1136 39.9992 38.9518 39.7531 38.7882C39.7634 39.0982 39.7442 39.4186 39.668 39.7504C39.4914 40.5194 39.0304 41.2858 38.1233 42.1974L38.1075 42.2132ZM39.1549 38.4322C39.2627 39.46 39.1393 40.3663 37.7182 41.7943C35.8931 43.3619 35.2207 44.3553 35.2207 46.4275C35.2207 47.7878 35.7035 49.3206 36.5064 50.2907H45.0778C45.8807 49.3206 46.3636 47.7878 46.3636 46.4275C46.3636 45.2517 45.7872 43.3387 44.2503 41.9873C44.2017 41.9112 44.1416 41.9673 44.0718 42.101C44.0449 42.1525 44.0166 42.2155 43.9869 42.2868C43.9664 42.3362 43.9453 42.3895 43.9236 42.4458C43.9221 42.4497 43.9206 42.4536 43.919 42.4575C43.8891 42.5353 43.858 42.6186 43.8259 42.7046C43.7088 43.0183 43.5781 43.3687 43.4383 43.6251C43.3893 43.7149 43.3392 43.7932 43.2881 43.8544C43.165 44.002 43.0365 44.0495 42.9054 43.9178C42.8817 43.7746 42.8615 43.6344 42.8427 43.496C42.8303 43.4046 42.8186 43.3137 42.8069 43.2236C42.6934 42.3468 42.586 41.5168 41.9448 40.4429C41.2582 39.2929 40.7663 38.7022 39.6878 38.0758C39.4989 37.9661 39.2921 37.8553 39.0631 37.7402C39.0682 37.776 39.0733 37.8116 39.0783 37.8469C39.1072 38.0488 39.135 38.2426 39.1549 38.4322Z" fill="#3B3B3B"/>
<path fill-rule="evenodd" clip-rule="evenodd" d="M48.0775 34.026H33.2204V49.7403H48.0775V34.026ZM32.6489 33.4546V50.3117H48.6489V33.4546H32.6489Z" fill="#3B3B3B"/>
<path fill-rule="evenodd" clip-rule="evenodd" d="M21.0743 33.1618H5.78049C5.61488 33.1618 5.48062 33.296 5.48062 33.4616V41.5584C5.48062 41.724 5.61488 41.8582 5.78049 41.8582H21.0743C21.2399 41.8582 21.3742 41.724 21.3742 41.5584V33.4616C21.3742 33.296 21.2399 33.1618 21.0743 33.1618ZM5.78049 32.562C5.28364 32.562 4.88086 32.9648 4.88086 33.4616V41.5584C4.88086 42.0552 5.28364 42.458 5.78049 42.458H21.0743C21.5712 42.458 21.9739 42.0552 21.9739 41.5584V33.4616C21.9739 32.9648 21.5712 32.562 21.0743 32.562H5.78049Z" fill="#3B3B3B"/>
<path fill-rule="evenodd" clip-rule="evenodd" d="M8.47949 41.8584H11.4783V46.665L11.4782 46.6665C11.4782 46.6665 11.4782 46.6665 11.4782 46.6665C11.4782 46.6667 11.4782 46.6672 11.4782 46.6676C11.4783 46.67 11.4784 46.675 11.4787 46.6824C11.4794 46.6973 11.481 46.7217 11.4851 46.7538C11.4932 46.8182 11.5108 46.9123 11.5487 47.0225C11.624 47.241 11.7797 47.5247 12.108 47.771C12.4096 47.9972 12.8485 48.1717 13.3615 48.3009C13.87 48.429 14.4281 48.507 14.9504 48.5534C15.4718 48.5997 15.9515 48.6141 16.301 48.6169C16.4756 48.6183 16.6173 48.6167 16.7149 48.6149C16.7637 48.614 16.8014 48.6129 16.8267 48.6122L16.8552 48.6113L16.8621 48.611L16.8637 48.6109L16.864 48.6109L17.176 48.5983V51.4542L16.8814 51.4595L16.8761 51.1596C16.8814 51.4595 16.8815 51.4595 16.8814 51.4595L16.8779 51.4595L16.8684 51.4597L16.8319 51.4602C16.8 51.4605 16.7534 51.4609 16.6936 51.4611C16.574 51.4616 16.4018 51.4613 16.1901 51.4583C15.7671 51.4524 15.1852 51.4359 14.5507 51.3932C13.9168 51.3507 13.2261 51.2818 12.5865 51.1704C11.952 51.0599 11.3461 50.904 10.8943 50.6781C9.09998 49.7809 8.63382 47.8641 8.48201 46.7003L8.47949 46.6809V41.8584ZM16.5762 50.8615V49.2166C16.4958 49.2173 16.4018 49.2174 16.2963 49.2166C15.9355 49.2138 15.439 49.1989 14.8974 49.1508C14.3566 49.1027 13.7647 49.021 13.215 48.8825C12.6698 48.7452 12.1423 48.5464 11.7482 48.2508C11.3085 47.921 11.0893 47.5301 10.9817 47.2178C10.9282 47.0627 10.9024 46.9274 10.89 46.8288C10.8838 46.7794 10.8809 46.7389 10.8795 46.7093C10.8789 46.6944 10.8786 46.6823 10.8785 46.673C10.8785 46.6684 10.8785 46.6645 10.8785 46.6614L10.8785 46.6596V42.4582H9.07925V46.6418C9.2297 47.7762 9.66672 49.3937 11.1626 50.1417C11.5355 50.3282 12.0729 50.4722 12.6894 50.5795C13.3009 50.686 13.969 50.7531 14.5909 50.7948C15.212 50.8366 15.7828 50.8528 16.1985 50.8586C16.3455 50.8607 16.473 50.8614 16.5762 50.8615Z" fill="#3B3B3B"/>
<path fill-rule="evenodd" clip-rule="evenodd" d="M11.1783 30.1632H9.37905V32.5623H11.1783V30.1632ZM9.37905 29.5635C9.04782 29.5635 8.7793 29.832 8.7793 30.1632V33.162H11.7781V30.1632C11.7781 29.832 11.5096 29.5635 11.1783 29.5635H9.37905Z" fill="#3B3B3B"/>
<path fill-rule="evenodd" clip-rule="evenodd" d="M3.32681 35.8609L3.32681 39.1595L4.88072 39.1595L4.88072 35.8609L3.32681 35.8609ZM2.72705 39.1595C2.72705 39.4908 2.99557 39.7593 3.32681 39.7593L5.48048 39.7593L5.48048 35.2611L3.32681 35.2611C2.99557 35.2611 2.72705 35.5296 2.72705 35.8609L2.72705 39.1595Z" fill="#3B3B3B"/>
<path d="M17.4757 25.3649H15.6764V26.8408H15.0767V25.3649C15.0767 25.0337 15.3452 24.7651 15.6764 24.7651H17.4757C17.8069 24.7651 18.0754 25.0337 18.0754 25.3649V26.8408H17.4757V25.3649Z" fill="#3B3B3B"/>
<path d="M15.6764 32.562H17.4757V29.2575L18.0754 29.2633V33.1617H15.0767V29.2575H15.6764V32.562Z" fill="#3B3B3B"/>
<path fill-rule="evenodd" clip-rule="evenodd" d="M18.975 27.1642H14.1769V28.9635H18.975V27.1642ZM14.1769 26.5645C13.8457 26.5645 13.5771 26.833 13.5771 27.1642V28.9635C13.5771 29.2947 13.8457 29.5632 14.1769 29.5632H18.975C19.3062 29.5632 19.5747 29.2947 19.5747 28.9635V27.1642C19.5747 26.833 19.3062 26.5645 18.975 26.5645H14.1769Z" fill="#3B3B3B"/>
</svg>
