<svg width="60" height="60" viewBox="0 0 60 60" fill="none" xmlns="http://www.w3.org/2000/svg">
<path fill-rule="evenodd" clip-rule="evenodd" d="M49.535 8.72154H46.284V46.3796H49.535V8.72154ZM45.7422 8.17969V46.9214H50.0769V8.17969H45.7422Z" fill="#3B3B3B"/>
<path fill-rule="evenodd" clip-rule="evenodd" d="M36.7896 17.2929L14.492 27.1593L19.8638 39.299C20.6508 41.0778 22.7309 41.8817 24.5097 41.0946L40.3657 34.0785C42.1445 33.2914 42.9484 31.2114 42.1613 29.4326L36.7896 17.2929ZM13.7773 26.883L19.3683 39.5183C20.2764 41.5707 22.6765 42.4983 24.7289 41.5901L40.5849 34.574C42.6374 33.6658 43.565 31.2658 42.6568 29.2134L37.0658 16.5781L13.7773 26.883Z" fill="#3B3B3B"/>
<path fill-rule="evenodd" clip-rule="evenodd" d="M42.0962 13.3281H46.2836V16.8501H43.1617L38.8965 22.1105L37.4336 18.6972L42.0962 13.3281ZM42.3433 13.87L38.0655 18.796L39.0409 21.072L42.9034 16.3083H45.7417V13.87H42.3433Z" fill="#3B3B3B"/>
<path fill-rule="evenodd" clip-rule="evenodd" d="M42.4325 37.9845H46.2862V34.7151H43.3778L41.7182 33.3281L38.7578 34.8082L42.4325 37.9845ZM42.6342 37.4426L39.7268 34.9295L41.643 33.9714L43.1812 35.2569H45.7444V37.4426H42.6342Z" fill="#3B3B3B"/>
<path fill-rule="evenodd" clip-rule="evenodd" d="M14.3164 41.507V27.9609H14.8582V41.507H14.3164Z" fill="#3B3B3B"/>
<path fill-rule="evenodd" clip-rule="evenodd" d="M15.4018 41.7762H13.7763V48.5492H15.4018V41.7762ZM13.2344 41.2344V49.0911H15.9436V41.2344H13.2344Z" fill="#3B3B3B"/>
<path fill-rule="evenodd" clip-rule="evenodd" d="M16.9067 13.8881C16.6036 14.4527 16.8157 15.1561 17.3803 15.4592C17.4163 15.4786 17.484 15.5095 17.5767 15.5519C18.1075 15.7948 19.462 16.4144 20.4416 17.3984C21.2941 18.2545 21.9817 19.3623 22.4714 20.1621C22.4461 19.9444 22.4115 19.7085 22.367 19.4604C22.176 18.3965 21.8115 17.1663 21.2468 16.2127C20.3111 14.6325 18.787 13.5804 18.4779 13.4145C17.9133 13.1114 17.2098 13.3234 16.9067 13.8881ZM23.0668 21.0915C23.0926 20.0193 22.7088 17.6182 21.713 15.9366C20.715 14.2512 19.107 13.1372 18.7342 12.9371C17.9059 12.4925 16.874 12.8035 16.4293 13.6318C15.9847 14.4601 16.2957 15.492 17.124 15.9366C17.18 15.9667 17.2708 16.0087 17.3882 16.0629C17.9605 16.3275 19.1654 16.8846 20.0577 17.7807C20.8921 18.6187 21.57 19.7269 22.069 20.5426C22.2388 20.8202 22.3879 21.0639 22.5154 21.2516C22.524 21.2642 22.5325 21.2767 22.5409 21.2888C22.5649 21.3235 22.5881 21.356 22.6105 21.3862C22.7901 21.629 22.9175 21.7241 22.9897 21.5898C23.0315 21.5118 23.0574 21.355 23.0654 21.1385C23.0659 21.1231 23.0664 21.1075 23.0668 21.0915Z" fill="#3B3B3B"/>
<path fill-rule="evenodd" clip-rule="evenodd" d="M9.14266 25.7344C9.75105 26.3428 10.7374 26.3428 11.3458 25.7344C11.3903 25.6899 11.4707 25.5903 11.6096 25.4182C11.6417 25.3785 11.6769 25.3349 11.7155 25.2872C11.9056 25.0523 12.1506 24.7546 12.4401 24.4372C13.0142 23.8081 13.7872 23.0749 14.6959 22.5896C16.0302 21.877 17.6104 21.5221 18.7403 21.2861C18.8357 21.2662 18.9271 21.2473 19.0143 21.2292C19.0396 21.224 19.0646 21.2188 19.0893 21.2137C18.707 21.1101 18.2504 21.0102 17.7484 20.93C16.4166 20.7172 14.8271 20.6528 13.4923 20.9821C11.2952 21.5242 9.49437 23.1795 9.14266 23.5312C8.53427 24.1396 8.53427 25.126 9.14266 25.7344ZM20.0916 20.9753C18.944 20.494 15.8083 19.8527 13.3625 20.4561C11.0167 21.0348 9.12858 22.779 8.75952 23.1481C7.93953 23.9681 7.93953 25.2976 8.75952 26.1175C9.57951 26.9375 10.9089 26.9375 11.7289 26.1175C11.7959 26.0506 11.9013 25.9198 12.041 25.7466C12.5812 25.0765 13.6336 23.7711 14.9512 23.0675C16.3099 22.3419 17.9622 22.0002 19.1165 21.7614C19.4883 21.6845 19.8085 21.6183 20.0506 21.5534C20.0597 21.5509 20.0687 21.5485 20.0776 21.546C20.1134 21.5362 20.1474 21.5264 20.1794 21.5166C20.4869 21.4224 20.6187 21.3273 20.4937 21.2023C20.4305 21.1391 20.3011 21.065 20.1176 20.9863C20.109 20.9827 20.1004 20.979 20.0916 20.9753Z" fill="#3B3B3B"/>
<path fill-rule="evenodd" clip-rule="evenodd" d="M37.9391 19.5423L15.3172 29.5664L15.0977 29.071L37.7196 19.0469L37.9391 19.5423Z" fill="#3B3B3B"/>
<path fill-rule="evenodd" clip-rule="evenodd" d="M19.3762 28.9375L24.352 39.9098L23.8585 40.1335L18.8828 29.1613L19.3762 28.9375Z" fill="#3B3B3B"/>
<path fill-rule="evenodd" clip-rule="evenodd" d="M24.2513 26.7656L29.227 37.7379L28.7336 37.9617L23.7578 26.9894L24.2513 26.7656Z" fill="#3B3B3B"/>
<path fill-rule="evenodd" clip-rule="evenodd" d="M29.6692 24.3281L34.645 35.3004L34.1515 35.5242L29.1758 24.5519L29.6692 24.3281Z" fill="#3B3B3B"/>
<path fill-rule="evenodd" clip-rule="evenodd" d="M34.5482 22.1641L39.524 33.1363L39.0305 33.3601L34.0547 22.3879L34.5482 22.1641Z" fill="#3B3B3B"/>
</svg>
