<svg width="60" height="60" viewBox="0 0 60 60" fill="none" xmlns="http://www.w3.org/2000/svg">
<path fill-rule="evenodd" clip-rule="evenodd" d="M20.5698 29.7121H13.427V52.5692H20.5698V29.7121ZM12.8555 29.1406V53.1406H21.1412V29.1406H12.8555Z" fill="#3B3B3B"/>
<path fill-rule="evenodd" clip-rule="evenodd" d="M47.7143 29.7121H40.5714V52.5692H47.7143V29.7121ZM40 29.1406V53.1406H48.2857V29.1406H40Z" fill="#3B3B3B"/>
<path fill-rule="evenodd" clip-rule="evenodd" d="M47.7126 19.4252V12.2824H13.4269V19.4252H47.7126ZM48.284 11.7109H12.8555V19.9967H48.284V11.7109Z" fill="#3B3B3B"/>
<path fill-rule="evenodd" clip-rule="evenodd" d="M47.7126 29.144V20.0011H13.4269V29.144H47.7126ZM48.284 19.4297H12.8555V29.7154H48.284V19.4297Z" fill="#3B3B3B"/>
<path fill-rule="evenodd" clip-rule="evenodd" d="M20.5697 38.2891V34.8605H13.4269V38.2891H20.5697ZM21.1412 34.2891H12.8555V38.8605H21.1412V34.2891Z" fill="#3B3B3B"/>
<path fill-rule="evenodd" clip-rule="evenodd" d="M47.7143 38.2891V34.8605H40.5715V38.2891H47.7143ZM48.2857 34.2891H40V38.8605H48.2857V34.2891Z" fill="#3B3B3B"/>
<path fill-rule="evenodd" clip-rule="evenodd" d="M20.5697 46.8594V43.4308H13.4269V46.8594H20.5697ZM21.1412 42.8594H12.8555V47.4308H21.1412V42.8594Z" fill="#3B3B3B"/>
<path fill-rule="evenodd" clip-rule="evenodd" d="M47.7143 46.8594V43.4308H40.5715V46.8594H47.7143ZM48.2857 42.8594H40V47.4308H48.2857V42.8594Z" fill="#3B3B3B"/>
<path fill-rule="evenodd" clip-rule="evenodd" d="M49.7127 10.2824H11.427V11.7109H49.7127V10.2824ZM10.8555 9.71094V12.2824H50.2841V9.71094H10.8555Z" fill="#3B3B3B"/>
<path fill-rule="evenodd" clip-rule="evenodd" d="M12.8555 52.5681V12.2824H11.4269V52.5681H12.8555ZM13.4269 11.7109H10.8555V53.1395H13.4269V11.7109Z" fill="#3B3B3B"/>
<path fill-rule="evenodd" clip-rule="evenodd" d="M49.7148 52.5681V12.2824H48.2862V52.5681H49.7148ZM50.2862 11.7109H47.7148V53.1395H50.2862V11.7109Z" fill="#3B3B3B"/>
<path fill-rule="evenodd" clip-rule="evenodd" d="M40.0016 31.4308H21.1445V30.8594H40.0016V31.4308Z" fill="#3B3B3B"/>
</svg>
