<svg width="60" height="60" viewBox="0 0 60 60" fill="none" xmlns="http://www.w3.org/2000/svg">
<path fill-rule="evenodd" clip-rule="evenodd" d="M28.3452 19.0859L32.7974 19.6796L35.3651 22.7004V24.6354L35.7235 24.668L41.0348 27.0197L42.1358 31.1861L43.3873 30.7839L50.2891 34.1613L51.9645 37.3599L50.2741 41.6626H10.7037L9.625 36.4236L14.3174 31.8825L15.5666 32.5639L15.9513 28.9372L19.5364 26.2484L21.7325 25.9053L24.0104 20.2818L28.3452 19.0859ZM22.3907 25.8024L24.2902 25.5056L26.3061 26.8875L30.8715 24.2269L34.7937 24.5835V22.9104L32.5042 20.217L28.385 19.6677L24.4341 20.7576L22.3907 25.8024ZM26.8275 27.245L28.4688 28.3701L35.8391 29.2545L37.513 32.6721L41.5911 31.3612L40.5525 27.4311L35.5781 25.2286L31.0016 24.8125L26.8275 27.245ZM37.767 33.1906L39.3963 36.5172L37.2439 41.0911H49.8847L51.3372 37.3938L49.8697 34.5923L43.3429 31.3984L37.767 33.1906ZM36.6124 41.0911L38.7625 36.5222L35.4626 29.7849L25.0336 28.5334L18.7797 34.3165L22.4934 36.3421L22.9124 41.0911H36.6124ZM22.3388 41.0911L21.9511 36.6972L14.4128 32.5854L10.248 36.6158L11.1694 41.0911H22.3388ZM18.2504 34.0278L24.8395 27.9346L27.2437 28.2231L24.1543 26.1052L19.7653 26.791L16.4932 29.245L16.1098 32.8602L18.2504 34.0278Z" fill="#3B3B3B"/>
<path d="M6.93471 41.6651H53.5061H54.0776V41.0938H6.36328V41.6651H6.93471Z" fill="#3B3B3B"/>
<path fill-rule="evenodd" clip-rule="evenodd" d="M37.1357 36.8735L36.6968 37.2393L32.7417 32.4934H27.2188V31.9219H33.0094L37.1357 36.8735Z" fill="#3B3B3B"/>
<path fill-rule="evenodd" clip-rule="evenodd" d="M25.7852 24.1057L26.2242 24.4715L28.2699 22.0168H31.1199V21.4453H28.0022L25.7852 24.1057Z" fill="#3B3B3B"/>
<path fill-rule="evenodd" clip-rule="evenodd" d="M12.4609 38.9946L13.024 39.0919L13.5682 35.9432L16.0363 34.5182L15.7506 34.0234L13.0507 35.5822L12.4609 38.9946Z" fill="#3B3B3B"/>
</svg>
