<svg width="60" height="60" viewBox="0 0 60 60" fill="none" xmlns="http://www.w3.org/2000/svg">
<path fill-rule="evenodd" clip-rule="evenodd" d="M44.0134 13.4308H21.4419C19.3905 13.4308 17.7276 15.0937 17.7276 17.1451V42.8594C17.7276 44.9107 19.3905 46.5737 21.4419 46.5737H44.0134C46.0647 46.5737 47.7276 44.9107 47.7276 42.8594V17.1451C47.7276 15.0937 46.0647 13.4308 44.0134 13.4308ZM21.4419 12.8594C19.0749 12.8594 17.1562 14.7782 17.1562 17.1451V42.8594C17.1562 45.2263 19.0749 47.1451 21.4419 47.1451H44.0134C46.3803 47.1451 48.299 45.2263 48.299 42.8594V17.1451C48.299 14.7782 46.3803 12.8594 44.0134 12.8594H21.4419Z" fill="#3B3B3B"/>
<path fill-rule="evenodd" clip-rule="evenodd" d="M37.4414 8.00112H28.0128V12.8583H37.4414V8.00112ZM27.4414 7.42969V13.4297H38.0128V7.42969H27.4414Z" fill="#3B3B3B"/>
<path fill-rule="evenodd" clip-rule="evenodd" d="M37.4414 47.1417H28.0128V51.9989H37.4414V47.1417ZM27.4414 46.5703V52.5703H38.0128V46.5703H27.4414Z" fill="#3B3B3B"/>
<path fill-rule="evenodd" clip-rule="evenodd" d="M48.1306 17.8449H17.2734V17.2734H48.1306V17.8449Z" fill="#3B3B3B"/>
<path fill-rule="evenodd" clip-rule="evenodd" d="M20.3359 33.4855V20.9141H20.9073V33.4855H20.3359Z" fill="#3B3B3B"/>
<path fill-rule="evenodd" clip-rule="evenodd" d="M23.0664 37.1183V24.5469H23.6378V37.1183H23.0664Z" fill="#3B3B3B"/>
<path fill-rule="evenodd" clip-rule="evenodd" d="M48.1306 40.5714H17.2734V40H48.1306V40.5714Z" fill="#3B3B3B"/>
</svg>
