<svg width="60" height="60" viewBox="0 0 60 60" fill="none" xmlns="http://www.w3.org/2000/svg">
<path d="M20.8058 9.06362H52.2344V51.3493H34.2955V51.9208H52.8058V8.49219H20.2344V44.9985L20.8058 45.1916V9.06362Z" fill="#3B3B3B"/>
<path d="M29.091 32.2042H43.9481V47.9185H33.356L33.6326 48.49H44.5195V31.6328H28.5195V46.3376H29.091V32.2042Z" fill="#3B3B3B"/>
<path d="M33.6745 40.4094L33.6915 40.3949L33.7073 40.379C34.6144 39.4675 35.0754 38.701 35.252 37.932C35.3282 37.6002 35.3474 37.2799 35.3371 36.9698C35.5832 37.1334 35.7856 37.2952 35.966 37.4683C36.3379 37.8252 36.643 38.2557 37.0382 38.9175C37.6141 39.882 37.7058 40.5833 37.8178 41.44C37.8487 41.6762 37.8811 41.9243 37.9257 42.193L37.9556 42.3731L38.0844 42.5026C38.1686 42.5872 38.2832 42.6712 38.4315 42.7161C38.5866 42.7629 38.7415 42.7556 38.8797 42.7106C39.1255 42.6306 39.2837 42.4442 39.3699 42.3265C39.5548 42.0739 39.706 41.7104 39.8202 41.4165C39.8665 41.2972 39.9077 41.1872 39.9453 41.0862C40.9787 42.258 41.3761 43.7071 41.3761 44.6091C41.3761 45.7639 40.9924 47.0422 40.3805 47.9009H33.293L33.6675 48.4723H40.6618C41.4647 47.5022 41.9475 45.9695 41.9475 44.6091C41.9475 43.4334 41.3712 41.5203 39.8342 40.169C39.7857 40.0928 39.7256 40.149 39.6558 40.2826C39.6289 40.3341 39.6006 40.3971 39.5709 40.4685C39.5504 40.5178 39.5293 40.5711 39.5075 40.6274L39.503 40.6391C39.4731 40.7169 39.442 40.8002 39.4099 40.8862C39.2928 41.2 39.162 41.5504 39.0222 41.8067C38.9732 41.8966 38.9231 41.9749 38.8721 42.036C38.7489 42.1836 38.6204 42.2311 38.4894 42.0995C38.4657 41.9563 38.4454 41.816 38.4267 41.6777C38.4143 41.5862 38.4026 41.4954 38.3909 41.4052C38.2774 40.5284 38.17 39.6984 37.5288 38.6246C36.8421 37.4746 36.3503 36.8838 35.2717 36.2574C35.0829 36.1477 34.8761 36.0369 34.647 35.9219L34.6623 36.0285C34.6912 36.2304 34.719 36.4242 34.7388 36.6138C34.8466 37.6416 34.7233 38.548 33.3022 39.9759C31.4771 41.5436 30.8047 42.5369 30.8047 44.6091C30.8047 45.3132 30.934 46.0635 31.1702 46.758L31.8669 46.983C31.5564 46.2503 31.3761 45.4007 31.3761 44.6091C31.3761 43.6407 31.5319 42.9783 31.8669 42.3838C32.2119 41.7714 32.7721 41.1845 33.6745 40.4094Z" fill="#3B3B3B"/>
<path d="M27.091 29.923H45.9481V51.3516H34.3345L34.1249 51.923H46.5195V29.3516H26.5195V46.0005L27.091 46.0945V29.923Z" fill="#3B3B3B"/>
<path fill-rule="evenodd" clip-rule="evenodd" d="M47.9481 15.6339H25.091V23.3482H47.9481V15.6339ZM24.5195 15.0625V23.9196H48.5195V15.0625H24.5195Z" fill="#3B3B3B"/>
<path fill-rule="evenodd" clip-rule="evenodd" d="M52.2344 9.06362H20.8058V10.4922H52.2344V9.06362ZM20.2344 8.49219V11.0636H52.8058V8.49219H20.2344Z" fill="#3B3B3B"/>
<path fill-rule="evenodd" clip-rule="evenodd" d="M22.2344 45.1675V11.0636H20.8058V44.9266L22.2344 45.1675ZM22.8058 10.4922H20.2344V45.29L22.8059 45.6238L22.8058 10.4922Z" fill="#3B3B3B"/>
<path fill-rule="evenodd" clip-rule="evenodd" d="M52.2344 51.3493V11.0636H50.8059V51.3493H52.2344ZM52.8059 10.4922H50.2344V51.9208H52.8059V10.4922Z" fill="#3B3B3B"/>
<path fill-rule="evenodd" clip-rule="evenodd" d="M41.9814 3.64062H46.3512L48.6271 5.91656L49.6227 9.0692H22.7461L26.2212 5.09756L30.7058 4.05117L32.1614 4.88298L33.5856 4.0692H39.8569L40.2788 5.15405L41.9814 3.64062ZM40.5791 5.92634L40.9893 6.98117L39.706 8.49777H44.2329V7.62236L42.4064 5.92634H40.5791ZM44.8043 8.49777H48.843L48.1243 6.22183L46.1145 4.21205H42.1986L40.9129 5.3549H42.6308L44.8043 7.37317V8.49777ZM38.9575 8.49777L40.3336 6.87152L39.466 4.64063H33.7373L32.7373 5.21205L33.9146 5.88478L34.4647 8.49777H38.9575ZM33.8807 8.49777L33.4083 6.25361L30.6171 4.65864L26.5302 5.61225L24.0054 8.49777H33.8807Z" fill="#3B3B3B"/>
<path fill-rule="evenodd" clip-rule="evenodd" d="M34.1172 23.3471V15.6328H34.6886V23.3471H34.1172Z" fill="#3B3B3B"/>
<path fill-rule="evenodd" clip-rule="evenodd" d="M29 23.3471V15.6328H29.5714V23.3471H29Z" fill="#3B3B3B"/>
<path fill-rule="evenodd" clip-rule="evenodd" d="M39.2344 23.3471V15.6328H39.8058V23.3471H39.2344Z" fill="#3B3B3B"/>
<path fill-rule="evenodd" clip-rule="evenodd" d="M44.3516 23.3471V15.6328H44.9231V23.3471H44.3516Z" fill="#3B3B3B"/>
<path fill-rule="evenodd" clip-rule="evenodd" d="M30.7568 46.9468L11.1004 44.0055C8.97743 43.6878 6.99891 45.1512 6.68124 47.2742C6.36356 49.3972 7.82703 51.3757 9.94999 51.6934L29.6064 54.6347C31.7294 54.9524 33.7079 53.4889 34.0256 51.3659C34.3433 49.243 32.8798 47.2645 30.7568 46.9468ZM11.1849 43.4403C8.74988 43.0759 6.48048 44.7546 6.1161 47.1896C5.75172 49.6247 7.43035 51.8941 9.86543 52.2585L29.5219 55.1998C31.9569 55.5642 34.2264 53.8856 34.5907 51.4505C34.9551 49.0154 33.2765 46.746 30.8414 46.3817L11.1849 43.4403Z" fill="#3B3B3B"/>
<path fill-rule="evenodd" clip-rule="evenodd" d="M17.844 45.8438L22.651 46.85L22.5339 47.4093L17.828 46.4242L10.7032 47.509L10.6172 46.9441L17.844 45.8438Z" fill="#3B3B3B"/>
<path fill-rule="evenodd" clip-rule="evenodd" d="M12.7932 48.1094L15.5523 48.5484L15.4626 49.1127L12.7884 48.6873L8.70924 49.2665L8.62891 48.7007L12.7932 48.1094Z" fill="#3B3B3B"/>
<path fill-rule="evenodd" clip-rule="evenodd" d="M21.1697 52.2141L18.207 51.0473L18.4164 50.5156L21.2572 51.6345L25.7187 51.2965L25.7618 51.8663L21.1697 52.2141Z" fill="#3B3B3B"/>
<path fill-rule="evenodd" clip-rule="evenodd" d="M27.1721 50.4696C27.429 48.071 29.4796 46.5 31.3133 46.5V47.0714C29.7695 47.0714 27.9658 48.4243 27.7402 50.5304C27.6284 51.575 27.9873 52.6442 28.5651 53.4395C29.1514 54.2466 29.9069 54.7023 30.5482 54.6562L30.5891 55.2262C29.6623 55.2927 28.741 54.6539 28.1028 53.7754C27.456 52.885 27.0427 51.6773 27.1721 50.4696Z" fill="#3B3B3B"/>
<path fill-rule="evenodd" clip-rule="evenodd" d="M31.981 52.5532C32.5514 52.0714 32.8942 51.5125 32.8942 51.054C32.8942 50.5122 32.6397 49.8677 32.2462 49.3516C31.8369 48.8147 31.3936 48.5611 31.1039 48.5611C30.7535 48.5611 30.2607 48.7822 29.8377 49.2037C29.4217 49.6182 29.1549 50.1467 29.1549 50.6563C29.1549 51.2598 29.317 51.9675 29.591 52.5106C29.8835 53.0901 30.199 53.2977 30.424 53.2977C30.5885 53.2977 30.8315 53.2401 31.1227 53.1059C31.4074 52.9746 31.7079 52.7838 31.981 52.5532ZM30.424 53.7963C31.4754 53.7963 33.3928 52.4112 33.3928 51.054C33.3928 49.6969 32.1553 48.0625 31.1039 48.0625C30.0525 48.0625 28.6562 49.2992 28.6562 50.6563C28.6562 52.0135 29.3727 53.7963 30.424 53.7963Z" fill="#3B3B3B"/>
<path fill-rule="evenodd" clip-rule="evenodd" d="M30.4322 49.5234L31.0013 49.5752L30.8706 51.0133L31.7759 51.9187L31.3719 52.3228L30.2773 51.2281L30.4322 49.5234Z" fill="#3B3B3B"/>
</svg>
